<svg width="199" height="230" viewBox="0 0 199 230" fill="none" xmlns="http://www.w3.org/2000/svg">
<path d="M100.102 228.811C75.8274 227.597 57.9588 222.237 52.0588 219.708L53.576 201.503L55.0931 189.366L44.4731 191.388H29.8074L21.2103 193.411L11.6017 190.377L4.01601 181.78L3.00458 169.643L5.53315 158.011L13.6246 152.448L25.7617 151.943V144.863L30.3131 133.737L38.4045 132.22L42.4503 136.771L41.4388 144.863L40.9331 151.943L45.9902 158.011H52.0588L66.7245 152.448L72.7931 133.737L56.1045 127.163L50.5417 118.566V112.497L57.116 103.9L60.6559 102.888V113.508L64.1959 115.026L67.7359 109.968L66.7245 105.923L64.1959 93.2799L53.576 92.2685L47.5074 103.9L41.4388 93.2799L35.876 91.7628L29.8074 98.337L26.7731 97.8313L21.2103 87.7171L15.6474 78.1085L18.176 58.8914L23.2331 48.2714L29.3017 45.7428L37.8988 48.2714L59.6445 45.7428L62.1731 38.6628L74.3102 25.0085L87.4588 19.9514L92.0102 12.3657L101.113 2.75714L107.687 13.3771L109.71 19.9514H114.262L123.87 10.8486L131.962 6.80285L134.996 22.9857V28.5485L145.616 22.9857L155.224 20.9628L157.753 23.9971L158.764 38.6628L153.707 47.26V50.7999L160.787 49.7885L173.936 50.7999V57.3742L160.787 71.5342L158.764 75.5799L170.902 81.1428L177.982 87.7171L160.787 101.371V107.44L177.982 119.071L164.327 132.22L165.339 138.794L169.384 140.817L183.544 145.368V151.437L175.959 154.977L170.902 161.551L173.936 171.16H180.004L191.13 175.206L193.659 179.251L191.13 183.803L180.004 191.894V197.963L196.693 208.583L193.659 215.157L183.544 221.731V226.788L169.384 224.26C173.43 226.283 176.667 230.025 157.247 228.811C137.828 227.597 102.293 222.237 86.9531 219.708C101.45 223.248 124.376 230.025 100.102 228.811Z" fill="white"/>
<path d="M73.2988 133.231L57.1159 186.331C55.5988 191.894 52.2611 206.155 51.0474 218.697M137.019 168.126C138.367 177.397 141.267 201.199 142.076 222.237M183.039 223.754C182.364 216.505 180.611 199.682 178.993 190.377C176.97 178.745 169.89 158.011 167.867 151.943C165.844 145.874 160.282 120.083 160.282 98.337C160.282 76.5913 157.753 59.9028 152.19 48.2713C146.627 36.6399 134.996 23.9971 119.824 21.4685C104.653 18.9399 70.7702 11.3542 59.1388 45.7428" stroke="black" stroke-width="4" stroke-linecap="round"/>
<path d="M59.1387 46.2485L36.8873 48.777L30.8188 46.2485C28.2902 44.8999 22.4239 44.529 19.1874 53.8342C15.1417 65.4656 15.6474 77.097 16.6588 80.637C17.6702 84.177 18.1759 85.6942 22.2217 88.2227C26.2674 90.7513 33.8531 92.7742 43.9674 92.7742C54.0816 92.7742 75.8273 91.257 84.9302 89.7399C92.2124 88.5262 109.542 86.537 117.296 85.6942C118.307 85.5256 120.431 86.0987 120.836 89.7399C121.342 94.2913 121.847 101.371 117.296 105.923C112.744 110.474 104.653 115.531 84.9302 116.543C65.2073 117.554 57.1159 111.991 54.5873 110.474C52.5645 109.8 48.7211 110.07 49.5302 116.543C50.5416 124.634 58.1273 129.186 63.1845 130.703C68.2416 132.22 84.4245 138.288 113.756 130.703" stroke="black" stroke-width="4" stroke-linecap="round"/>
<path d="M27.1424 59.8738C26.7942 60.8341 25.9131 62.7704 25.6044 64.4812C25.4719 65.2159 25.5596 66.3582 25.6902 67.0282C25.8207 67.6983 26.0819 67.8724 26.347 67.9186C26.8671 68.0091 27.4036 67.6139 27.9299 67.2195C29.0042 66.4144 29.1631 64.9811 29.4718 63.3547C29.9243 60.9707 29.7805 59.8791 29.5628 59.0877C29.471 58.754 28.9099 58.8186 28.5551 58.9057C28.2003 58.9927 27.9391 59.1668 27.761 59.3871C27.583 59.6074 27.4959 59.8686 27.4075 60.1337C27.3192 60.3988 27.2321 60.66 27.1424 60.9291" stroke="black" stroke-width="4" stroke-linecap="round"/>
<path d="M48.5107 62.7758C47.7219 62.9499 46.8434 63.8257 46.1391 64.8822C45.4347 65.9388 44.9071 66.9914 44.5985 68.3974C44.5035 68.83 44.5536 69.3603 44.9454 69.6294C45.9392 70.312 47.189 69.7244 47.7153 69.4171C48.687 68.8496 49.3865 67.7933 49.8284 66.6933C50.3534 65.3862 50.4444 64.3612 50.5763 63.7914C50.6466 63.4875 50.6211 63.1345 50.0988 62.9551C49.5765 62.7758 48.5318 62.7758 47.9066 62.9063C47.2814 63.0369 47.1073 63.2981 46.974 63.6067C46.6995 64.2428 46.6641 65.4929 46.9688 66.812C47.2734 67.2604 47.8828 67.2604 48.3273 67.1299C48.7719 66.9993 49.033 66.7381 49.3021 65.9414" stroke="black" stroke-width="4" stroke-linecap="round"/>
<path d="M71.1979 44.5732C70.5832 46.681 70.4064 48.0818 70.537 49.4879C70.612 50.295 71.459 50.6381 71.9853 51.0773C72.9266 51.8629 76.4476 51.6959 78.5804 51.1709C79.637 50.4666 80.6896 49.7649 81.4836 48.798C81.6604 48.5329 81.8345 48.2717 82.0139 47.7388" stroke="black" stroke-width="4" stroke-linecap="round"/>
<path d="M98.3699 49.5855C98.3699 52.126 98.7181 54.5925 99.4225 55.6491C100.117 56.6904 101.441 56.9721 102.587 57.2345C104.651 57.7073 107.862 57.3256 109.137 56.273C110.151 55.3919 110.853 54.3393 111.339 53.2827C111.47 53.0176 111.645 52.7564 111.824 51.9598" stroke="black" stroke-width="4" stroke-linecap="round"/>
<path d="M65.824 113.605C66.1535 112.196 67.8114 109.54 69.2308 107.454C70.9665 104.903 72.3106 104.037 73.9734 102.541C75.8077 100.892 78.5525 99.7076 81.2515 98.5453C83.0108 97.7878 84.8744 97.2108 86.5821 96.463C88.195 95.7568 91.1013 95.548 93.6568 94.9637C95.1918 94.6128 97.1934 94.1298 98.9799 93.9226C102.993 93.457 105.842 94.8738 107.474 95.3769C108.52 95.6994 109.677 96.3719 110.555 97.3307C111.359 98.2095 112.509 99.0335 113.012 100.118C113.427 101.201 113.927 102.529 113.97 106.308C113.929 107.111 113.847 107.358 113.512 107.862" stroke="black" stroke-width="4" stroke-linecap="round"/>
<path d="M63.0775 92.8815C63.0775 93.7079 63.2423 95.538 63.3684 96.6641C63.5048 97.8828 63.7417 98.8687 64.241 100.283C64.6652 101.485 64.99 103.028 65.4894 104.154C65.5743 104.776 65.7391 105.363 66.0299 105.861C66.156 106.112 66.2384 106.359 66.8227 107.113" stroke="black" stroke-width="4" stroke-linecap="round"/>
<path d="M66.0737 94.1299C65.9913 94.0475 65.9089 93.9651 65.8253 94.0462C64.9157 94.9286 65.7391 97.121 66.7353 98.7427C67.4693 99.9374 68.4007 100.866 68.8189 102.073C68.9187 102.362 68.9849 102.614 69.1098 102.865C69.2346 103.116 69.3994 103.363 69.4843 102.337C69.7592 99.0138 69.4044 96.3795 69.0723 95.8814C68.7402 95.3832 68.4057 94.8814 68.0736 94.7541C66.4919 94.1476 67.9013 98.694 68.5268 100.533C68.9216 101.694 69.0698 102.864 69.3182 103.616C69.7038 104.785 71.4817 101.376 75.876 97.4331C77.7974 95.7093 78.5526 94.4694 79.3465 93.6318C80.0507 92.8889 77.1494 95.7028 75.9821 96.5405C74.3964 97.6785 73.3193 98.4543 72.3194 98.6653C71.8172 98.7712 71.1546 98.8737 70.4892 98.7501C69.9974 98.6588 69.9861 97.7951 69.8613 97.0486C69.7108 96.1488 70.066 95.2984 70.6053 94.6754C71.5977 93.5292 73.0597 93.7154 74.7225 93.5893C76.5592 93.45 78.5526 93.216 79.7597 92.9239C80.2867 92.7964 80.8021 92.7991 81.0531 92.7978C82.2309 92.792 78.6474 94.045 76.444 94.4195C74.7753 94.7031 73.8187 95.0437 72.3231 95.3358C71.7506 95.4476 70.9174 95.3783 70.4518 95.5018C69.9861 95.6254 69.9037 95.8726 69.8201 96.1235C69.7364 96.3745 69.6541 96.6216 69.7764 96.7902C71.2709 98.8489 78.1181 96.7964 80.2591 96.4194C81.8163 96.1452 83.9606 95.2135 86.4124 94.4657C88.3496 93.8749 90.3623 93.6305 91.9515 93.3409C92.9686 93.1555 93.7854 92.8815 94.2835 92.8403C96.99 92.6164 83.8907 92.7966 82.4762 93.0887C81.9062 93.2064 80.9894 93.1312 80.7697 93.1724C80.4737 93.2279 82.3776 93.216 84.9443 92.8016C89.3053 92.0974 93.1112 91.8828 94.9813 91.8416C97.2052 91.7926 98.5267 91.4683 99.8163 91.0938C101.361 90.6451 102.686 90.4696 105.173 90.1775C106.652 90.0038 109.298 90.135 110.45 90.2586C111.602 90.3822 111.19 90.6294 110.772 90.7979C109.326 91.3806 108.439 91.3834 107.816 91.4246C107.52 91.4442 107.275 91.5482 107.725 91.5906C110.764 91.8776 111.76 92.7117 112.43 93.2959C113.877 94.557 107.201 92.3821 105.57 92.1749C105.115 92.117 104.454 92.1324 104.238 92.1324C103.699 92.1324 105.767 92.3821 107.016 92.6718C108.314 92.9729 109.263 93.2959 110.263 94.0849C111.225 94.8442 112.259 95.4581 113.259 96.1248C113.757 96.4569 114.259 96.709 114.757 96.8339C115.004 96.8957 115.255 96.8763 115.424 96.7527C116.204 96.1805 116.009 94.2247 115.72 92.8852C115.479 91.7736 114.186 90.5595 112.893 89.8042C112.539 89.5976 112.024 89.391 112.017 89.1401C111.965 87.397 115.42 88.2225 117 87.9304C117.574 87.8244 118.406 87.8879 118.872 88.0527C119.567 88.2989 119.505 89.793 119.422 91.331C119.32 93.2423 117.927 94.6242 117.301 95.6242C117.015 96.082 116.925 96.7065 116.718 97.3295C116.618 97.632 116.429 97.87 116.344 97.6266C115.496 95.196 116.923 92.8865 116.967 90.0214C116.976 89.3872 116.843 89.1413 116.801 89.4259C116.439 91.8513 117.173 93.5406 117.465 95.4507C118.095 99.5725 117.093 100.616 116.759 101.616C116.676 101.867 116.593 102.115 116.551 102.036C115.879 100.791 116.259 98.9636 116.176 98.0885C116.153 97.8405 115.759 100.517 115.965 103.762C116.037 104.883 116.583 104.866 116.919 104.825C118.004 104.452 118.753 103.87 119.169 103.372C119.337 103.121 119.42 102.874 119.505 102.619" stroke="black" stroke-width="4" stroke-linecap="round"/>
<path d="M42.3542 93.6304C43.4329 96.4518 44.4316 98.619 45.4715 100.655C45.821 101.34 46.0145 101.867 46.3878 102.324C46.7609 102.781 47.3453 102.951 47.8846 102.993C49.1669 103.094 49.6748 101.211 50.093 99.8362C50.6043 98.1558 51.0081 96.4668 51.3414 95.1747C51.425 94.8813 51.5074 94.6341 51.5499 94.3832C51.5923 94.1323 51.5923 93.8851 51.5923 93.6304" stroke="black" stroke-width="4" stroke-linecap="round"/>
<path d="M23.3788 88.8866C23.7932 91.8802 24.2926 93.0412 24.6671 94.2085C25.1542 95.7264 25.541 96.8713 26.1639 97.7888C26.7508 98.6533 28.1177 98.3743 28.9903 98.2507C30.3382 98.0598 30.6993 96.2171 31.3248 95.1323C31.5332 94.6342 31.7829 94.1323 32.115 93.6342C32.2823 93.3833 32.4471 93.1361 32.6168 92.3821" stroke="black" stroke-width="4" stroke-linecap="round"/>
<path d="M76.0608 115.602C76.4728 114.199 77.6388 111.363 78.3054 109.741C78.8635 108.383 79.9707 107.615 80.344 107.24C80.5165 107.067 80.7997 107.113 81.0506 107.237C82.1342 107.77 82.2178 109.105 82.7996 110.354C83.3827 111.605 83.7159 112.601 84.0904 113.601C84.2153 113.852 84.38 114.099 84.5061 114.35C84.6322 114.601 84.7146 114.848 85.0492 115.352" stroke="black" stroke-width="4" stroke-linecap="round"/>
<path d="M52.8408 109.11C53.5025 108.281 54.5037 107.118 55.2927 106.118C56.0826 105.117 56.9156 104.122 57.5822 103.122C57.7495 102.871 57.9143 102.624 58.1227 102.455C58.3312 102.287 58.5784 102.204 58.8293 102.327C60.0273 102.911 59.9966 104.362 60.2887 105.65C60.3311 107.013 60.4135 108.192 60.5384 109.144C60.5808 109.767 60.5808 110.673 60.8305 112.107" stroke="black" stroke-width="4" stroke-linecap="round"/>
<path d="M67.736 151.943L54.5874 157C52.9017 157.843 48.5188 159.023 44.4731 157C40.4274 154.977 40.4274 148.74 40.9331 145.874C42.1131 142.503 43.7652 135.254 40.9331 133.231C37.3931 130.703 28.796 131.208 26.2674 140.817C25.7617 142.84 25.0537 147.897 26.2674 151.943M57.1159 188.354C53.0702 190.377 41.54 193.816 27.7845 191.388M27.7845 167.114C33.8531 165.597 32.8417 159.023 29.3017 154.977C25.7617 150.931 21.2103 151.943 15.6474 151.943C11.1971 151.943 7.38743 155.314 6.03886 157C-2.05256 176.217 6.54457 186.331 7.556 187.343C8.56743 188.354 15.6474 193.411 21.716 193.411C27.7845 193.411 30.8188 189.365 29.3017 185.32C27.7845 181.274 24.7503 180.768 22.2217 179.757C20.1988 178.948 14.9731 178.745 12.6131 178.745M12.6131 165.597H21.716C23.9074 165.428 28.796 166.001 30.8188 169.643C33.3474 174.194 32.8417 179.251 26.2674 180.768" stroke="black" stroke-width="4" stroke-linecap="round"/>
<path d="M89.4878 18.2559C90.9778 14.8182 91.4355 13.4452 92.5797 11.7246C93.8516 9.81197 95.1037 8.28349 97.3938 5.76286C98.6433 4.38754 99.1195 3.2319 99.9196 2.88779C100.355 2.70048 100.947 2.77079 101.41 2.94112C103.129 3.57378 103.707 5.51681 104.625 7.46622C105.415 9.14203 106.232 10.6785 106.406 12.3423C106.807 13.779 107.492 15.152 108.068 16.5869C108.183 16.9896 108.297 17.4438 108.414 18.2559" stroke="black" stroke-width="4" stroke-linecap="round"/>
<path d="M114.608 18.9441C115.289 17.6916 117.354 15.3929 118.675 14.4173C119.984 13.4514 121.139 12.2959 123.374 11.0915C124.99 10.2208 126.301 9.19885 127.679 8.28006C129.007 7.39467 130.09 7.01717 130.833 6.72983C131.213 6.58305 131.69 6.78317 131.981 7.012C133.252 8.01267 133.073 10.3344 133.247 11.9982C133.648 13.5484 133.992 14.8113 134.164 17.0309C134.223 18.9097 134.223 22.3165 134.223 25.8264" stroke="black" stroke-width="4" stroke-linecap="round"/>
<path d="M137.664 26.8587C138.118 26.174 140.176 24.8009 141.845 24.1076C143.44 23.4447 144.883 23.1905 146.318 22.4455C147.963 21.5917 149.701 21.4699 151.079 21.0105C151.765 20.7817 153.252 20.6647 155.143 20.835C156.347 20.9435 156.817 22.0377 157.218 22.7242C158.069 24.1808 157.966 31.8415 157.681 36.2014C157.571 37.8722 157.051 39.24 156.592 40.6749C156.132 42.3404 155.447 43.7134 154.585 45.0916C154.412 45.4374 154.298 45.7781 153.837 46.8173" stroke="black" stroke-width="4" stroke-linecap="round"/>
<path d="M154.525 50.2585C155.323 50.2585 156.927 50.0314 159.162 49.8576C163.777 49.4988 171.38 49.7974 172.758 50.3135C173.502 50.5921 174.023 51.2874 174.424 51.9739C174.799 52.6165 174.828 53.5792 174.601 54.6666C174.122 56.9601 172.309 58.1662 171.048 59.6012C169.607 61.2407 168.868 62.9838 167.72 64.0764C166.488 65.2496 165.2 66.886 163.993 68.2608C163.025 69.288 162.099 70.1001 161.413 70.6145C161.067 70.9019 160.726 71.2425 160.031 72.2817" stroke="black" stroke-width="4" stroke-linecap="round"/>
<path d="M160.375 76.067C164.959 78.1283 166.79 79.2742 168.285 79.8505C169.721 80.4044 171.036 81.4558 172.414 82.5432C173.691 83.5507 175.165 84.3189 176.487 85.697C177.081 86.317 177.35 87.0752 177.466 87.8185C177.752 89.6644 175.523 90.7469 174.431 91.8343C173.217 93.0421 171.738 93.8439 170.645 94.8745C169.521 95.9347 167.953 96.5968 166.289 97.3986C164.739 98.5445 163.476 99.5803 162.789 99.8659C162.443 100.038 162.103 100.265 161.752 100.843" stroke="black" stroke-width="4" stroke-linecap="round"/>
<path d="M161.407 108.07C163.001 108.637 166.218 110.471 167.882 111.222C169.498 111.95 171.036 113.224 172.471 114.203C173.942 115.207 176.418 116.886 177.808 118.845C178.082 119.232 177.925 119.873 177.755 120.279C176.971 122.147 174.718 123.548 173.457 124.812C172.33 125.942 170.251 127.443 168.525 128.598C168.066 128.94 167.498 129.508 167.035 129.914C166.573 130.32 166.232 130.547 165.537 131.125" stroke="black" stroke-width="4" stroke-linecap="round"/>
<path d="M166.225 139.384C167.137 139.611 169.198 140.299 171.376 141.158C174.842 142.524 176.769 142.935 178.264 143.568C179.707 144.18 181.015 144.773 182.622 145.631C183.02 145.844 183.197 146.259 183.314 146.662C183.78 148.265 182.288 149.7 181.313 151.307C180.442 152.742 178.847 153.486 177.3 155.093C175.864 156.128 174.718 157.271 173.742 158.536C173.455 158.768 173.114 158.881 172.763 159.343" stroke="black" stroke-width="4" stroke-linecap="round"/>
<path d="M175.516 171.042C177.336 171.042 181.015 171.269 182.849 172.071C185.117 173.063 186.521 173.678 187.899 174.138C189.277 174.597 190.65 175.282 192.028 176.314C192.871 176.945 193.179 178.035 193.352 179.12C193.575 180.53 193.069 181.82 192.383 182.679C191.089 184.296 189.288 185.261 187.909 186.237C186.284 187.387 184.814 188.702 183.493 189.392C183.204 189.621 182.976 189.962 182.689 190.251C182.402 190.54 182.061 190.767 181.71 191.001" stroke="black" stroke-width="4" stroke-linecap="round"/>
<path d="M182.054 198.916C185.148 200.406 186.521 200.863 187.899 201.951C189.226 202.997 190.65 203.843 192.029 204.476C193.647 205.22 195.351 207.05 196.676 208.43C197.474 209.262 196.624 210.726 195.996 211.698C194.41 214.153 192.385 215.199 191.007 216.347C189.628 217.15 188.255 218.296 186.877 219.158C186.531 219.332 186.191 219.445 185.151 220.251" stroke="black" stroke-width="4" stroke-linecap="round"/>
</svg>
