<svg width="140" height="32" viewBox="0 0 140 32" fill="none" xmlns="http://www.w3.org/2000/svg">
<g clip-path="url(#clip0_18_397)">
<path d="M12.1245 21.6202C12.1163 21.7492 12.0801 21.9925 12.2329 22.0418C15.5942 22.4083 18.6369 21.3621 19.8625 18.0371C20.2962 16.8603 20.5672 15.3547 20.4572 13.933L12.817 18.0667C12.4662 19.2953 12.1918 20.5485 12.1245 21.6202Z" fill="#006EFE"/>
<path d="M30.8599 17.6474L26.9523 10.4188L23.2172 12.4396C23.8497 15.4549 22.9773 19.0404 21.0001 21.3382C18.9941 23.668 15.3979 24.521 12.4193 24.3608C11.8468 24.3296 10.7723 24.226 10.2359 24.0847C9.56729 23.908 9.27322 23.5702 9.265 22.8618C9.25515 21.9981 9.38575 20.9125 9.55826 19.831L4.98694 22.3046L8.89453 29.5333C9.75787 31.13 11.7515 31.725 13.3476 30.8613L29.5324 22.1041C31.1285 21.2404 31.7232 19.2459 30.8599 17.6491V17.6474Z" fill="#006EFE"/>
<path d="M11.2094 12.106C11.5174 11.2949 12.5335 11.2398 13.286 11.3236C13.9406 11.3968 14.5937 12.0189 14.5025 12.6303C14.3801 13.4546 14.1468 14.1794 13.8355 15.0094C13.7361 15.2749 13.6334 15.5551 13.5307 15.8444L20.1236 12.2769C19.7951 11.3401 19.2192 10.5339 18.3115 10.0186C15.7955 8.58784 12.3372 9.52799 9.92709 10.7566C9.39479 11.0278 8.73107 11.7436 8.1996 11.0245C7.92688 10.6555 7.95892 10.0761 8.10103 9.66112C8.38442 8.82945 10.1908 8.05695 10.995 7.7685C15.0274 6.32294 20.7759 6.59578 22.7169 10.8733L26.268 8.9519L22.3604 1.72328C21.4971 0.126504 19.5034 -0.467663 17.9074 0.395236L1.72336 9.15324C0.1273 10.017 -0.467423 12.0115 0.395911 13.6083L4.3035 20.8369L9.92052 17.7978C9.97637 17.5036 10.0306 17.2234 10.0807 16.9621C10.3477 15.5675 10.7206 13.3872 11.2085 12.1052L11.2094 12.106Z" fill="#FA9324"/>
</g>
<path d="M133.016 25.4638C131.595 25.4638 130.342 25.1646 129.257 24.5662C128.173 23.9491 127.322 23.1077 126.705 22.0418C126.088 20.9572 125.779 19.7044 125.779 18.2832C125.779 16.8434 126.078 15.5625 126.677 14.4405C127.294 13.3186 128.145 12.449 129.229 11.832C130.314 11.1962 131.576 10.8783 133.016 10.8783C134.4 10.8783 135.615 11.1775 136.662 11.7759C137.709 12.3742 138.523 13.1877 139.102 14.2161C139.701 15.2446 140 16.4133 140 17.7223C140 17.9092 140 18.1149 140 18.3393C140 18.5637 139.981 18.7975 139.944 19.0406H128.416V16.7966H136.326C136.269 15.8991 135.933 15.1791 135.316 14.6369C134.699 14.0946 133.941 13.8234 133.044 13.8234C132.371 13.8234 131.754 13.973 131.193 14.2722C130.632 14.5714 130.183 15.0202 129.846 15.6186C129.528 16.1983 129.369 16.9462 129.369 17.8625V18.6479C129.369 19.4332 129.528 20.1158 129.846 20.6955C130.164 21.2751 130.594 21.7239 131.136 22.0418C131.679 22.341 132.296 22.4906 132.988 22.4906C133.698 22.4906 134.297 22.3316 134.783 22.0138C135.269 21.6959 135.643 21.2751 135.905 20.7516H139.607C139.345 21.6304 138.906 22.4345 138.289 23.1638C137.691 23.8743 136.943 24.4353 136.045 24.8467C135.147 25.2581 134.138 25.4638 133.016 25.4638Z" fill="white"/>
<path d="M122.527 25.1272C121.592 25.1272 120.798 25.0244 120.143 24.8187C119.507 24.5943 119.03 24.1735 118.713 23.5565C118.395 22.9207 118.236 22.0138 118.236 20.8357V14.2722H115.852V11.2149H118.236V7.48438H121.882V11.2149H125.388V14.2722H121.882V20.3869C121.882 20.8544 121.929 21.2097 122.022 21.4528C122.116 21.6772 122.293 21.8268 122.555 21.9016C122.817 21.9764 123.172 22.0138 123.621 22.0138H125.304V25.1272H122.527Z" fill="white"/>
<path d="M107.82 25.4638C106.418 25.4638 105.155 25.1552 104.033 24.5382C102.911 23.9211 102.023 23.0609 101.369 21.9577C100.714 20.8544 100.387 19.5922 100.387 18.171C100.387 16.7312 100.714 15.469 101.369 14.3844C102.023 13.2812 102.911 12.421 104.033 11.8039C105.174 11.1868 106.436 10.8783 107.82 10.8783C109.223 10.8783 110.485 11.1868 111.607 11.8039C112.729 12.421 113.617 13.2812 114.271 14.3844C114.926 15.469 115.253 16.7312 115.253 18.171C115.253 19.5922 114.926 20.8544 114.271 21.9577C113.617 23.0609 112.729 23.9211 111.607 24.5382C110.485 25.1552 109.223 25.4638 107.82 25.4638ZM107.82 22.3223C108.493 22.3223 109.11 22.1727 109.671 21.8735C110.232 21.5556 110.672 21.0881 110.99 20.4711C111.326 19.854 111.494 19.0873 111.494 18.171C111.494 17.2548 111.326 16.4881 110.99 15.871C110.653 15.2539 110.204 14.7958 109.643 14.4966C109.101 14.1787 108.503 14.0198 107.848 14.0198C107.175 14.0198 106.558 14.1787 105.997 14.4966C105.436 14.8145 104.987 15.282 104.651 15.8991C104.314 16.4974 104.146 17.2548 104.146 18.171C104.146 19.0873 104.305 19.854 104.622 20.4711C104.959 21.0881 105.408 21.5556 105.969 21.8735C106.53 22.1727 107.147 22.3223 107.82 22.3223Z" fill="white"/>
<path d="M84.9227 25.1272V11.2149H88.5691V13.3186C89.0179 12.5706 89.635 11.9816 90.4203 11.5515C91.2057 11.1027 92.122 10.8783 93.1691 10.8783C94.9082 10.8783 96.2452 11.4299 97.1801 12.5332C98.1151 13.6177 98.5826 15.2072 98.5826 17.3015V25.1272H94.9362V17.6381C94.9362 16.4414 94.6931 15.5344 94.207 14.9174C93.7395 14.2816 92.9915 13.9637 91.963 13.9637C90.972 13.9637 90.1585 14.319 89.5228 15.0296C88.887 15.7214 88.5691 16.6938 88.5691 17.9466V25.1272H84.9227Z" fill="white"/>
<path d="M75.6897 25.4638C74.2873 25.4638 73.025 25.1552 71.9031 24.5382C70.7811 23.9211 69.8929 23.0609 69.2384 21.9577C68.584 20.8544 68.2567 19.5922 68.2567 18.171C68.2567 16.7312 68.584 15.469 69.2384 14.3844C69.8929 13.2812 70.7811 12.421 71.9031 11.8039C73.0437 11.1868 74.306 10.8783 75.6897 10.8783C77.0922 10.8783 78.3544 11.1868 79.4763 11.8039C80.5983 12.421 81.4865 13.2812 82.141 14.3844C82.7955 15.469 83.1227 16.7312 83.1227 18.171C83.1227 19.5922 82.7955 20.8544 82.141 21.9577C81.4865 23.0609 80.5983 23.9211 79.4763 24.5382C78.3544 25.1552 77.0922 25.4638 75.6897 25.4638ZM75.6897 22.3223C76.3629 22.3223 76.98 22.1727 77.5409 21.8735C78.1019 21.5556 78.5414 21.0881 78.8592 20.4711C79.1958 19.854 79.3641 19.0873 79.3641 18.171C79.3641 17.2548 79.1958 16.4881 78.8592 15.871C78.5227 15.2539 78.0739 14.7958 77.5129 14.4966C76.9706 14.1787 76.3722 14.0198 75.7178 14.0198C75.0446 14.0198 74.4275 14.1787 73.8665 14.4966C73.3055 14.8145 72.8568 15.282 72.5202 15.8991C72.1836 16.4974 72.0153 17.2548 72.0153 18.171C72.0153 19.0873 72.1742 19.854 72.4921 20.4711C72.8287 21.0881 73.2775 21.5556 73.8385 21.8735C74.3994 22.1727 75.0165 22.3223 75.6897 22.3223Z" fill="white"/>
<path d="M58.5494 25.464C56.9599 25.464 55.6977 24.9217 54.7628 23.8371C53.8465 22.7339 53.3884 21.1351 53.3884 19.0408V11.2151H57.0347V18.7042C57.0347 19.9009 57.2591 20.8172 57.7079 21.453C58.1754 22.0701 58.8486 22.3786 59.7274 22.3786C60.7185 22.3786 61.4852 22.0327 62.0275 21.3408C62.5697 20.6302 62.8409 19.6485 62.8409 18.3956V11.2151H66.4873V25.1274H62.8409V23.0798C62.4295 23.8091 61.8685 24.3888 61.1579 24.8189C60.4474 25.2489 59.5778 25.464 58.5494 25.464Z" fill="white"/>
<path d="M43.1066 25.4639C41.7977 25.4639 40.6196 25.146 39.5725 24.5102C38.544 23.8744 37.7306 23.0049 37.1322 21.9017C36.5338 20.7797 36.2346 19.5268 36.2346 18.1431C36.2346 16.7406 36.5338 15.4971 37.1322 14.4126C37.7306 13.3093 38.544 12.4491 39.5725 11.8321C40.6196 11.1963 41.7977 10.8784 43.1066 10.8784C44.1538 10.8784 45.0607 11.0747 45.8274 11.4674C46.6128 11.8601 47.2392 12.4024 47.7067 13.0943V4.93201H51.353V25.1273H47.7067V23.1358C47.2766 23.7529 46.6876 24.2952 45.9396 24.7627C45.2103 25.2301 44.266 25.4639 43.1066 25.4639ZM43.892 22.2944C44.6587 22.2944 45.3319 22.1167 45.9115 21.7614C46.5099 21.4061 46.968 20.9199 47.2859 20.3029C47.6225 19.6671 47.7908 18.9565 47.7908 18.1711C47.7908 17.3671 47.6225 16.6565 47.2859 16.0394C46.968 15.4223 46.5099 14.9362 45.9115 14.5809C45.3319 14.2256 44.6587 14.0479 43.892 14.0479C43.144 14.0479 42.4709 14.2256 41.8725 14.5809C41.2741 14.9362 40.8066 15.4223 40.47 16.0394C40.1334 16.6378 39.9651 17.339 39.9651 18.1431C39.9651 18.9472 40.1334 19.6671 40.47 20.3029C40.8066 20.9199 41.2741 21.4061 41.8725 21.7614C42.4709 22.1167 43.144 22.2944 43.892 22.2944Z" fill="white"/>
<defs>
<clipPath id="clip0_18_397">
<rect width="31.2558" height="31.2558" fill="white"/>
</clipPath>
</defs>
</svg>
