<?xml version="1.0" encoding="UTF-8"?><svg id="a" xmlns="http://www.w3.org/2000/svg" viewBox="0 0 710.97 512"><defs><style>.b{fill:none;stroke-linecap:round;stroke-width:3px;}.b,.c,.d,.e{stroke:#000;}.c{stroke-width:.3px;}.d{fill:#fff;stroke-width:4px;}.e{stroke-width:.1px;}</style></defs><path class="d" d="M529.41,170.56c13.92-7.42,31.15-2.09,38.4,11.77l.34.67c16.37,33.41,30,62.13,46.47,96.86l17.62,37.13c6.29,13.22,1.51,29.04-10.96,36.49l-.6.35c-93.51,52.82-155.84,82.3-245.22,118.51l-8.74,3.53c-13.81,5.56-29.53-.62-36.04-13.97l-.3-.64c-21.74-47.54-38.19-82.19-59-123.61l-4.22-8.38c-7.35-14.54-1.07-32.28,13.65-39.06l.71-.31c109.35-46.93,166.65-76.15,234.22-112.04l13.67-7.28Z"/><path d="M510.42,237.33c3.35-1.78,6.32-1.89,8.92-.33,2.64,1.54,5.03,4.33,7.17,8.36l6.61,12.72c.35.65.41,1.3.19,1.93-.24.6-.77,1.11-1.57,1.53-.8.42-1.54.56-2.23.41-.69-.15-1.22-.59-1.61-1.32l-6.63-12.49c-1.68-3.16-3.2-5.24-4.57-6.24-1.35-1.05-2.86-1.14-4.54-.25-1.46.77-2.11,2.26-1.96,4.47.18,2.19.97,4.64,2.36,7.35l2.14,4.04,4.2,7.91c.77,1.46.31,2.64-1.41,3.54-1.86.99-3.18.73-3.97-.76l-4.96-9.47-1.3-2.45c-1.37-2.58-2.96-4.52-4.76-5.8-1.78-1.34-3.44-1.6-4.96-.79-2.26,1.2-2.59,4.57-1,10.11.54,1.72,1.59,4.05,3.15,7l1.97,3.71,1.82,3.44c.31.58.31,1.19,0,1.82-.3.58-.78,1.04-1.43,1.39-.8.42-1.54.61-2.22.55-.65-.08-1.14-.44-1.49-1.1-4.19-7.89-7.51-14.1-9.96-18.63-.5-.85-.95-1.43-1.34-1.74-.38-.36-.81-.6-1.29-.71-.06-.02-.24-.06-.56-.13-.28-.09-.5-.29-.68-.62-.37-.69-.41-1.39-.13-2.1.28-.71.73-1.22,1.34-1.55.62-.33,1.53-.19,2.75.43,1.17.54,2.08,1.41,2.72,2.61l.41.76c-.33-2.11-.16-3.99.5-5.65.64-1.69,1.83-3,3.58-3.93,3.49-1.85,6.79-1.3,9.9,1.67-.33-2.11-.07-3.99.77-5.66.82-1.7,2.18-3.05,4.07-4.05Z"/><path d="M477.2,290.38c-4.46,1.92-8.62,2.31-12.46,1.18-3.82-1.18-6.75-4.14-8.78-8.87-1.28-2.99-1.83-5.89-1.65-8.7.22-2.83,1.15-5.36,2.79-7.59,1.68-2.25,4.03-4.02,7.06-5.32,2.95-1.27,5.85-1.77,8.69-1.51,2.88.24,5.47,1.26,7.77,3.05,2.32,1.74,4.14,4.16,5.47,7.26,1.95,4.54,2.08,8.61.4,12.2-1.68,3.59-4.78,6.35-9.28,8.29ZM475.16,285.94c2.8-1.2,4.72-2.99,5.76-5.36,1.03-2.41.86-5.21-.51-8.39-.88-2.04-2.06-3.71-3.56-4.99-1.47-1.34-3.14-2.15-5-2.42-1.85-.33-3.71-.09-5.6.73-2.8,1.2-4.63,3.15-5.49,5.85-.84,2.65-.56,5.6.84,8.85,1.43,3.33,3.37,5.41,5.84,6.23,2.46.83,5.03.66,7.72-.49Z"/><path d="M450.84,289.79c.87-.37,1.58-.45,2.12-.24.54.22,1.01.78,1.4,1.69.93,2.16,1,4.26.22,6.29-.8,2-2.28,3.46-4.43,4.39-2.99,1.28-5.69.94-8.1-1.03-2.43-2-4.81-5.73-7.15-11.18-.83-1.93-1.6-3.88-2.32-5.86l-2.8,1c-1.51.56-2.58.1-3.21-1.38-.32-.76-.37-1.39-.14-1.89.25-.56.84-1.01,1.77-1.36l2.86-1.02c-.8-2.48-1.78-5.98-2.96-10.49-.36-1.46.28-2.54,1.9-3.24.95-.41,1.77-.47,2.47-.19.74.27,1.22.75,1.44,1.47.88,3.52,1.83,6.97,2.83,10.35,2.07-.8,3.44-1.34,4.08-1.62.72-.31,1.32-.37,1.81-.17.47.16.85.57,1.14,1.26.36.83.42,1.5.19,2-.21.45-.78.9-1.71,1.34l-4.03,1.73c.67,1.86,1.41,3.76,2.24,5.69,1.64,3.82,3.1,6.55,4.39,8.2,1.27,1.6,2.53,2.14,3.78,1.6,1.44-.62,1.74-2.07.89-4.35-.29-.68-.36-1.26-.2-1.73.2-.49.71-.91,1.54-1.27Z"/><path d="M421.24,314.67c-2.61,1.12-5.13,1.46-7.56,1.03-2.43-.44-4.55-1.46-6.35-3.05-.49-.41-.8-.77-.93-1.08-.24-.66-.12-1.38.35-2.17.45-.82,1.04-1.34,1.75-1.56.41-.09.76-.06,1.05.09.31.09.76.3,1.35.63,1.62.96,3.05,1.63,4.28,1.99,1.25.31,2.64.14,4.15-.51,1.4-.6,2.43-1.45,3.08-2.53.65-1.09.76-2.14.32-3.16-.47-1.1-1.32-1.72-2.55-1.86-1.24-.18-3.09-.2-5.53-.05-2.24.2-4.12.27-5.63.2-1.52-.11-2.98-.52-4.36-1.22-1.36-.76-2.41-2.01-3.16-3.75-.68-1.59-.86-3.21-.55-4.87.34-1.71,1.15-3.27,2.43-4.67,1.26-1.44,2.9-2.59,4.91-3.45,2.04-.88,4.01-1.25,5.9-1.12,1.88.09,3.51.6,4.89,1.53,1.39.93,2.4,2.15,3.05,3.66.37.87.44,1.6.2,2.2-.22.54-.78,1.01-1.69,1.4-.91.39-1.58.5-2.01.33-.45-.21-.81-.57-1.07-1.09-.78-1.41-1.79-2.3-3.03-2.67-1.21-.42-2.63-.28-4.26.42-1.7.73-2.78,1.66-3.23,2.8-.43,1.08-.45,2.1-.04,3.04.49,1.14,1.35,1.79,2.6,1.98,1.28.17,3.18.16,5.7-.03,2.26-.16,4.13-.2,5.6-.12,1.51.07,2.93.47,4.27,1.19,1.33.69,2.35,1.88,3.08,3.58.78,1.82.93,3.57.44,5.25-.45,1.67-1.35,3.18-2.7,4.52-1.37,1.3-2.96,2.35-4.78,3.12Z"/><path d="M399.08,315.31c.39.91.81,1.62,1.26,2.15.43.49.88.9,1.34,1.24.46.34.71.57.76.68.26.6.22,1.25-.11,1.93-.3.67-.77,1.14-1.41,1.41-.76.32-1.7.17-2.82-.47-1.14-.68-1.91-1.49-2.32-2.43l-.15-.34c-.07,1.91-.66,3.62-1.76,5.13-1.12,1.47-2.72,2.65-4.8,3.54-3.22,1.38-6.16,1.32-8.82-.18-2.64-1.56-4.82-4.34-6.54-8.35l-5.92-13.79c-.28-.64-.25-1.26.08-1.85.37-.61.95-1.08,1.74-1.42.83-.36,1.59-.46,2.29-.31.73.13,1.23.52,1.51,1.17l5.95,13.85c2.36,5.49,5.18,7.52,8.47,6.11,2.31-.99,3.53-2.75,3.66-5.27.15-2.57-.63-5.85-2.33-9.82l-4.22-9.82c-.32-.76-.33-1.45-.02-2.08.3-.67.86-1.18,1.69-1.53.87-.38,1.67-.45,2.39-.22.72.23,1.24.7,1.55,1.42l8.54,19.26Z"/><path d="M359.14,340.93c-2.95,1.27-5.77,1.76-8.44,1.47-2.68-.28-5.05-1.21-7.12-2.79-2.03-1.59-3.6-3.7-4.72-6.31-1.17-2.72-1.67-5.51-1.51-8.36.19-2.9,1.08-5.53,2.67-7.87,1.63-2.36,3.92-4.17,6.87-5.44,3.18-1.36,6.2-1.74,9.06-1.13,2.84.57,5.18,1.79,7.01,3.65.42.36.72.74.9,1.16.37.87.03,1.74-1.04,2.6-.42.27-.69.43-.8.48-.57.24-1.1.3-1.61.16-.52-.18-1.1-.52-1.71-1.01-1.17-1.06-2.6-1.77-4.27-2.13-1.69-.39-3.45-.2-5.26.58-1.86.8-3.29,1.99-4.31,3.59-.98,1.59-1.51,3.38-1.59,5.39-.04,1.99.35,3.95,1.18,5.88,1.19,2.76,2.93,4.68,5.23,5.76,2.34,1.06,4.96.96,7.87-.29,1.86-.8,3.27-1.83,4.25-3.1.98-1.27,1.53-2.58,1.67-3.94.17-1.37.05-2.65-.36-3.81-.21-.49-.19-.97.06-1.44.27-.52.76-.93,1.48-1.24.91-.39,1.67-.49,2.29-.31.64.13,1.15.65,1.54,1.56.71,1.76.89,3.69.55,5.82-.31,2.1-1.27,4.15-2.87,6.14-1.61,1.99-3.95,3.64-7.01,4.96Z"/><path class="b" d="M322.19,379.81c48.29-18.59,167.04-68.49,255.69-119.33"/><path class="e" d="M544.35,304.65l6.04-1.79.11-.03v.11c.13.83.22,1.71.29,2.65h0c.11.92.29,2.05.54,3.41h0c.08.55.18,1.19.31,1.94l.46,2.55c.18.95.36,1.96.55,3.03l.59,3.36c.42,2.29.82,4.69,1.21,7.19h0c.21,1.24.41,2.47.61,3.68l.57,3.59c.18,1.18.35,2.31.51,3.38l.43,3.04c.12.82.23,1.57.32,2.25.9-.59,1.84-1.19,2.81-1.81l3.12-2.09c1.05-.7,2.1-1.42,3.16-2.14h0l3.19-2.16c1.05-.7,2.08-1.39,3.1-2.07l5.52-3.83c.68-.49,1.32-.95,1.9-1.37-.07-.05-.13-.09-.2-.14h0c-1.64-1.19-3.27-2.31-4.89-3.36l-1.61-1.02c-2.14-1.33-4.04-2.37-5.69-3.13l-.11-.05.07-.09,3.12-4.02.05-.06.07.04c1.73.9,3.68,2.02,5.82,3.36h0c2.19,1.32,4.41,2.75,6.67,4.3h0c2.28,1.5,4.41,2.96,6.37,4.39l1.44,1.03c1.38,1,2.57,1.92,3.57,2.76l.07.06-.06.07-3.49,4.5-.06.08-.08-.07c-1.33-1.2-2.98-2.57-4.95-4.09h0c-.59-.46-1.18-.92-1.79-1.38-.18.13-.35.26-.54.39l-2.43,1.69c-1.78,1.22-3.71,2.54-5.8,3.97h0c-2.07,1.37-4.21,2.83-6.42,4.37h0l-6.42,4.37c-1.04.71-2.05,1.4-3.02,2.05l-2.8,1.87c-1.8,1.18-3.31,2.16-4.52,2.94h0c-.33.22-.66.45-1,.69l-1.04.74c-.71.51-1.43,1.03-2.18,1.57l-.08.05-.06-.08-3.5-4.65-.07-.09.11-.05c.85-.4,1.72-.84,2.59-1.3.89-.52,1.71-.99,2.46-1.43l2.1-1.28c.16-.1.33-.21.5-.31-.1-.94-.22-1.98-.38-3.14l-.44-3.17c-.16-1.12-.33-2.29-.51-3.52l-.58-3.71c-.2-1.24-.41-2.49-.63-3.75l-.64-3.79c-.21-1.24-.42-2.45-.63-3.65-.42-2.38-.83-4.52-1.22-6.41h0s-.85-4.51-.85-4.51c-.34-1.45-.64-2.57-.87-3.37l-.41-1.23c-.14-.4-.29-.79-.45-1.17l-.04-.1.1-.03Z"/><path class="e" d="M489.38,326.38l5.86-.73.12-.02-.02.12c-.11.73-.19,1.47-.26,2.23l-.06.77c-.07,1.03-.13,1.88-.19,2.54h0c-.05.77-.13,1.57-.22,2.4l15.05-6.93c.74-.34,1.41-.7,2.01-1.06l.41-.3c.39-.3.72-.59.99-.88l.03-.04h.05s4.74.54,4.74.54h.1s-.01.11-.01.11c-.07.52-.08,1.13-.03,1.83h0c.03.67.06,1.27.08,1.8.31,1.88.5,3.96.57,6.22l.02.99c.03,1.99-.02,4.04-.17,6.14l-.17,2.12c-.21,1.99-.53,3.99-.96,5.99.71.14,1.42.27,2.11.41l1.75.36c1.71.37,3.29.75,4.73,1.14l.09.02-.03.09-1.53,5.4-.03.09-.09-.03c-1.8-.57-3.92-1.14-6.35-1.69h0c-.68-.17-1.36-.34-2.06-.5-.9,2.85-2.1,5.79-3.6,8.8l-.89,1.73c-2.43,4.58-5.86,9.06-10.29,13.46l-.04.04-.05-.02-5.64-1.62-.16-.05.13-.12c2.97-2.68,5.52-5.46,7.63-8.34l.78-1.1c1.79-2.57,3.29-5.14,4.52-7.73l.51-1.1c.77-1.71,1.43-3.4,1.98-5.06l-.39-.08c-1.99-.41-3.97-.78-5.93-1.13l-1.96-.34c-2.6-.43-5.01-.79-7.23-1.09l-.12-.02.04-.11,1.61-4.48.02-.07h.07c2.28.23,4.7.52,7.27.87l1.93.28c1.93.29,3.87.62,5.8.99h0c.09.02.17.03.26.04.32-1.56.57-3.17.73-4.82h0s.18-1.95.18-1.95c.15-1.93.22-3.81.2-5.63l-.03-.91c-.08-2.05-.29-3.91-.62-5.58l-18.86,8.69-.2,1c-.64,3.25-1.59,6.64-2.87,10.18h0c-1.24,3.52-2.87,7.02-4.9,10.5l-.03.06-.07-.02-5.1-1.18-.13-.03.08-.11.84-1.3c1.9-3.03,3.39-6.06,4.49-9.1l.45-1.29c1.02-2.99,1.77-5.81,2.26-8.45l.2-1.11c.44-2.54.69-4.71.76-6.53h0s.05-.51.05-.51c.04-.54.05-1.2.03-1.97l-.04-.77c-.05-.74-.15-1.41-.28-1.99l-.02-.1h.1Z"/><path class="e" d="M453.11,350.32l3.87.87.1.02-.03.09c-.08.3-.15.78-.21,1.44h0c-.04.61-.05,1.16-.05,1.65.1,1.62.13,3.42.08,5.39l-.07,2.03c-.11,2.06-.29,4.14-.56,6.24l-.29,2.11c-.26,1.72-.58,3.37-.96,4.96,1.65.47,3.36,1.01,5.13,1.62h0c2.35.77,4.7,1.63,7.03,2.55l1.71.66c1.68.66,3.29,1.32,4.81,1.98l1.47.62c1.42.61,2.7,1.2,3.85,1.76l.08.04-.04.08-2.38,5.18-.04.09-.09-.05c-2.13-1.19-4.59-2.39-7.37-3.6h0c-2.8-1.25-5.7-2.43-8.7-3.54h0c-2.34-.91-4.65-1.71-6.92-2.41-.87,2.63-1.87,5.28-3.04,7.95h0c-1.47,3.31-3.13,6.55-4.98,9.72h0c-1.87,3.13-3.98,6.06-6.31,8.77l-.04.05-.06-.03-5.32-2.1-.13-.05.1-.1c2.47-2.59,4.69-5.4,6.64-8.42l.73-1.16c1.67-2.71,3.15-5.47,4.43-8.28l.54-1.22c1.24-2.83,2.26-5.56,3.07-8.19l.43-1.56c.41-1.59.77-3.27,1.08-5.04h0s.29-1.8.29-1.8c.26-1.79.43-3.56.52-5.29l.04-.87c.07-1.95,0-3.66-.21-5.15l-21.76,10.03c-.32.15-.66.31-1.02.48l-1.14.58-2.13,1.12c-.62.33-1.03.56-1.23.7l-.09.06-2.45-5.31.1-.03c.28-.08.77-.24,1.48-.48h0c.73-.29,1.49-.59,2.29-.92s1.48-.62,2.04-.87l21.65-9.98c.93-.43,1.74-.85,2.41-1.25l.5-.31c.46-.3.82-.57,1.07-.82l.04-.04h.05Z"/><path class="e" d="M383.7,377.21l.02.1c.16.69.36,1.51.61,2.47.27.91.52,1.71.72,2.43.67,2.08,1.27,4.08,1.79,6.01l13.78-4.87c.39-.14.75-.27,1.09-.4l.93-.38c.59-.3,1.13-.57,1.6-.83h.03s.03,0,.03,0l3.84.48h.07s.02.08.02.08c.1.53.2,1.06.3,1.59h0c.14.52.28.97.41,1.35h0c.35,1.1.8,2.63,1.35,4.57.59,1.93,1.19,4.06,1.79,6.38.63,2.27,1.2,4.58,1.73,6.93.42,1.75.77,3.42,1.03,5.01l.24,1.56c.27,2,.35,3.66.25,4.98h0c-.16,1.43-.64,2.62-1.46,3.58h0c-.78.94-1.97,1.69-3.58,2.26-1.48.52-3.05,1.01-4.73,1.47h0c-1.66.5-3.26.98-4.8,1.43l-.08.02-.04-.07-2.29-4.63-.05-.11.12-.03c1.66-.37,3.25-.75,4.76-1.16l1.13-.32c1.1-.31,2.1-.63,3-.95.85-.3,1.48-.68,1.91-1.13.43-.44.67-1.07.72-1.91h0s.05-.41.05-.41c.09-.98.03-2.2-.18-3.65l-.2-1.28c-.22-1.31-.5-2.73-.84-4.24l-.35-1.52c-.36-1.52-.74-3.04-1.15-4.57-.54-2.03-1.11-3.95-1.7-5.75h0s-.79-2.51-.79-2.51c-.24-.73-.46-1.39-.67-1.98l-16.12,5.69c.27,1.25.51,2.46.71,3.64l.29,1.82c.59,4.15.76,7.99.52,11.5l-.13,1.49c-.34,3.38-1.06,6.54-2.15,9.48l-.49,1.24c-1.34,3.27-3.1,6.41-5.28,9.41l-.04.06-.07-.02-5.47-1.94-.13-.05.1-.11c.75-.83,1.53-1.82,2.34-2.98l.59-.87c.57-.86,1.08-1.72,1.53-2.56l.45-.86c1.03-2.02,1.84-4.19,2.43-6.5h0s.26-1.01.26-1.01c.56-2.37.87-4.92.93-7.65h0s.02-1.19.02-1.19c.01-2.81-.28-5.87-.87-9.17l-.27-1.45c-.04-.2-.08-.39-.12-.59l-9.64,3.41c-1.16.41-2.3.83-3.41,1.27h0c-1.12.4-2.18.84-3.19,1.32l-.1.05-1.82-5.15.1-.02c1.05-.24,2.17-.53,3.36-.86h0c1.18-.37,2.31-.75,3.39-1.13l10.17-3.59c-.52-1.9-1.13-3.87-1.84-5.93l-.26-.69-.33-.8c-.24-.57-.51-1.13-.79-1.68h0s0,0,0,0c-.12-.28-.24-.55-.36-.8l-.36-.7-.05-.1,5.68-2.01Z"/><path class="d" d="M426.75,144.46c12.68-9.38,30.51-6.65,39.71,6l.43.61c21.1,30.64,38.8,57.04,60.2,88.98l22.89,34.14c8.16,12.15,5.76,28.5-5.48,37.7l-.54.43c-84.74,65.99-142.05,104.31-225.14,153.26l-8.13,4.77c-12.85,7.52-29.3,3.73-37.7-8.52l-.39-.59c-28.49-43.83-49.85-75.68-76.52-113.6l-5.41-7.67c-9.41-13.31-5.8-31.77,7.76-40.64l.65-.42c101.26-62.49,153.65-99.81,215.21-145.25l12.45-9.21Z"/><path d="M454.99,221.29c-2.75,2.49-5.62,4.06-8.61,4.72-2.96.63-5.81.44-8.54-.56-2.7-1.03-5.09-2.69-7.16-4.99-2.14-2.36-3.54-4.97-4.2-7.85-.69-2.9-.56-5.78.38-8.64.92-2.89,2.62-5.46,5.1-7.71,2.2-1.99,4.58-3.32,7.14-4,2.57-.74,5.08-.75,7.55-.04,2.47.71,4.63,2.1,6.51,4.16.99,1.1,1.55,2.04,1.67,2.81.09.74-.36,1.59-1.33,2.53l-17.28,16.09c.96,1.07,2.3,1.86,4,2.37,1.7.52,3.54.59,5.5.23,1.96-.43,3.8-1.42,5.52-2.97,1.23-1.11,2.11-2.21,2.66-3.3.55-1.14.88-2.18.99-3.1.08-.95.12-2.14.13-3.56.03-.68.33-1.27.88-1.76.52-.47,1.19-.7,2.02-.69.84-.05,1.49.18,1.96.7.38.42.6.95.66,1.61.27,2.11.09,4.36-.52,6.73-.64,2.35-2.32,4.75-5.03,7.21ZM448.3,200.17c.19-.18.28-.34.26-.5-.02-.22-.13-.44-.34-.67-1.55-1.71-3.54-2.44-5.96-2.19-2.42.19-4.71,1.26-6.87,3.23-1.65,1.49-2.77,3.21-3.36,5.16-.56,1.92-.7,3.75-.41,5.49.29,1.68.8,2.93,1.53,3.73l15.15-14.25Z"/><path d="M426.31,228.47c.77-.64,1.47-.93,2.08-.87.61.06,1.25.49,1.92,1.3,1.58,1.92,2.28,4.02,2.09,6.33-.21,2.27-1.28,4.2-3.2,5.78-2.65,2.19-5.5,2.65-8.54,1.37-3.07-1.31-6.6-4.39-10.6-9.23-1.42-1.71-2.78-3.47-4.1-5.27l-2.54,1.85c-1.37,1.02-2.59.87-3.68-.44-.56-.67-.79-1.3-.7-1.88.09-.64.56-1.28,1.39-1.91l2.59-1.89c-1.55-2.28-3.59-5.54-6.13-9.78-.8-1.38-.48-2.66.97-3.86.84-.69,1.66-1,2.46-.93.83.05,1.46.4,1.9,1.06,1.95,3.31,3.93,6.54,5.96,9.67,1.87-1.43,3.09-2.39,3.66-2.86.64-.53,1.23-.77,1.78-.71.52.02,1.04.33,1.54.93.61.74.87,1.4.79,1.98-.08.52-.53,1.14-1.34,1.87l-3.58,2.96c1.23,1.7,2.56,3.4,3.98,5.11,2.81,3.4,5.11,5.73,6.91,7.02,1.77,1.25,3.21,1.42,4.32.5,1.28-1.06,1.15-2.62-.39-4.68-.5-.61-.74-1.17-.72-1.7.05-.55.45-1.13,1.19-1.75Z"/><path d="M381.76,228.59c-1.12.76-2.28,1.03-3.49.79-1.24-.27-2.23-.96-2.99-2.08-.74-1.08-.99-2.23-.76-3.44.27-1.24.98-2.25,2.13-3.03s2.31-1.07,3.46-.85c1.19.2,2.16.85,2.92,1.97.76,1.12,1.02,2.31.78,3.59-.21,1.25-.89,2.26-2.04,3.05ZM401.04,258.58c-.83.56-1.63.82-2.41.77-.77-.05-1.41-.44-1.9-1.16l-14.39-22.33c-.49-.72-.62-1.45-.38-2.19.21-.78.71-1.43,1.5-1.97.79-.54,1.59-.76,2.39-.67.84.07,1.5.46,1.99,1.18l14.39,22.33c.45.75.56,1.49.33,2.23-.22.68-.73,1.29-1.53,1.83Z"/><path d="M363.58,243.71c2.31-1.57,4.65-2.08,7.03-1.53,2.37.55,4.31,1.92,5.81,4.12,1.42,2.09,1.89,4.17,1.4,6.25-.49,2.07-1.76,3.81-3.82,5.21-.9.61-1.64.93-2.21.95-.56-.04-1.07-.41-1.53-1.09-.42-.61-.59-1.13-.5-1.56.09-.49.4-.93.91-1.33,2.15-1.73,2.56-3.56,1.24-5.51-.64-.94-1.45-1.55-2.43-1.83-.95-.31-1.96-.09-3.04.64-1.26.86-1.99,2.22-2.19,4.1-.16,1.85.02,3.83.56,5.94.58,2.09,1.32,3.92,2.25,5.51,1.59,2.88,3.52,5.99,5.8,9.35,1.1,1.62,1.66,2.83,1.67,3.61,0,.79-.49,1.52-1.5,2.21-.97.66-1.81.94-2.51.84-.69-.16-1.37-.73-2.03-1.71-.5-.66-2.74-3.91-6.71-9.75-1.99-2.92-4.48-6.16-7.47-9.71l-3.15-3.94c-.5-.66-.67-1.34-.51-2.03.2-.72.71-1.35,1.54-1.92,1.44-.98,2.64-.85,3.59.4l4.13,5.26c-.75-2.5-.82-4.85-.21-7.05.58-2.24,1.89-4.05,3.91-5.42Z"/><path d="M349.49,294.26c-4.26,2.89-8.49,4.14-12.72,3.74-4.21-.46-7.85-2.94-10.92-7.45-1.94-2.85-3.09-5.75-3.47-8.71-.34-2.98.12-5.8,1.37-8.45,1.29-2.67,3.38-4.99,6.27-6.95,2.81-1.91,5.72-3.02,8.73-3.33,3.05-.33,5.94.21,8.69,1.61,2.76,1.34,5.14,3.49,7.15,6.45,2.94,4.33,3.9,8.53,2.87,12.6-1.03,4.07-3.69,7.57-7.98,10.48ZM346.48,290.06c2.67-1.81,4.31-4.06,4.91-6.74.58-2.72-.16-5.59-2.22-8.62-1.32-1.95-2.89-3.44-4.7-4.47-1.8-1.1-3.7-1.6-5.69-1.51-1.98.03-3.88.66-5.68,1.88-2.67,1.81-4.18,4.21-4.52,7.19-.34,2.92.55,5.93,2.66,9.03,2.16,3.17,4.6,4.94,7.32,5.3,2.72.36,5.37-.33,7.93-2.07Z"/><path d="M317.41,313.55c-2.93,1.82-8.33-.39-16.21-6.64-2.48-2-4.82-4.09-7.04-6.25-2.22-2.17-3.66-3.78-4.33-4.86-.53-.85-.68-1.63-.45-2.34.24-.77.79-1.41,1.64-1.94.7-.44,1.41-.62,2.12-.55.71.07,1.34.42,1.89,1.06,2.51,3.06,5.67,6.23,9.46,9.52,2.06,1.75,4.02,3.25,5.88,4.51,1.87,1.2,2.98,1.69,3.31,1.49.37-.23.45-1.46.25-3.69-.23-2.27-.65-4.76-1.25-7.46-.78-3.16-1.5-5.69-2.17-7.58-.65-1.96-1.35-3.75-2.11-5.39-.34-.71-.4-1.42-.17-2.13.23-.71.75-1.31,1.57-1.82.85-.53,1.67-.7,2.45-.52.78.18,1.44.7,1.96,1.55.69,1.11,1.46,3.1,2.31,5.96.89,2.83,1.66,5.9,2.32,9.18.94,4.91,1.33,8.88,1.16,11.91-.17,3.03-1.03,5.03-2.59,6Z"/><path d="M295.25,321.73c.61-.25,1.15-.31,1.63-.19.52.11.98.52,1.39,1.24.39.68.55,1.34.47,1.99-.08.65-.42,1.15-1.02,1.5-1.55.89-2.85,1.35-3.9,1.35-1.02-.02-2.21-.46-3.57-1.34-.1,3.48-2.3,6.47-6.61,8.96-4.38,2.53-8.37,3.08-11.98,1.63-3.62-1.48-6.58-4.2-8.87-8.16-1.53-2.64-2.41-5.38-2.64-8.22-.23-2.84.29-5.51,1.57-8.01,1.27-2.5,3.27-4.53,5.99-6.11,1.74-1,3.46-1.55,5.18-1.63,1.75-.11,3.3.23,4.66,1.01l-.65-1.51c-.63-1.45-.22-2.6,1.26-3.45.98-.57,1.81-.74,2.49-.53.66.17,1.13.6,1.42,1.29,1.26,3.05,2.27,5.31,3.02,6.79.67,1.42,1.64,3.23,2.91,5.42l2.16,3.74c1.14,1.96,2.01,3.27,2.64,3.91.66.62,1.48.73,2.45.32ZM284.61,320.7c-.95-1.72-2.27-4.05-3.97-7-.89-1.55-1.97-2.61-3.21-3.2-1.21-.61-2.43-.86-3.68-.74-1.21.09-2.3.42-3.28.99-1.7.98-2.86,2.33-3.48,4.05-.6,1.66-.76,3.44-.47,5.33.33,1.87.97,3.64,1.93,5.3,1.46,2.53,3.32,4.4,5.58,5.61,2.28,1.15,4.68,1,7.21-.47,2-1.16,3.33-2.6,3.99-4.34.66-1.74.45-3.58-.63-5.53Z"/><path d="M237.16,307.53c2.61-1.57,5.08-2.04,7.4-1.4,2.33.58,4.38,2.33,6.13,5.24.56.93.77,1.78.61,2.54-.14.7-.68,1.32-1.61,1.89-1.79,1.08-3.21.84-4.25-.72-.92-1.43-1.78-2.44-2.58-3.02-.83-.62-1.83-.58-2.98.12-1.27.76-1.8,1.87-1.59,3.32.23,1.39,1.12,3.37,2.67,5.95l3.88,6.44,3.98-2.4c.67-.41,1.3-.5,1.89-.3.56.17,1.05.61,1.48,1.32.81,1.34.53,2.45-.82,3.32-1.02.67-2.3,1.46-3.83,2.38l10.05,16.32c.51.76.63,1.5.35,2.23-.26.67-.8,1.25-1.62,1.74-.86.52-1.65.72-2.39.6-.72-.18-1.28-.6-1.68-1.28-2.44-3.97-5.82-9.37-10.13-16.19-.46.33-1.35.89-2.66,1.68-.86.52-1.59.7-2.19.55-.6-.15-1.12-.6-1.57-1.34-.41-.67-.57-1.28-.5-1.84.11-.58.6-1.15,1.48-1.73l2.75-1.65c-2.05-3.24-3.46-5.5-4.23-6.77-2.18-3.62-3.14-6.91-2.89-9.87.26-2.95,1.88-5.33,4.87-7.13Z"/><path class="c" d="M465.16,274.98l4.04-2.59.31-.2.12.34c.34.99.77,2.12,1.29,3.39h0c.53,1.21,1.11,2.49,1.72,3.83h0c.63,1.28,1.23,2.52,1.83,3.69h0c.3.56.59,1.08.85,1.56-.14-1.03-.24-2.11-.27-3.25v-.66c0-1.53.17-3.07.52-4.6l.15-.66c.38-1.53.94-2.97,1.67-4.3h0s.34-.57.34-.57c.82-1.3,1.87-2.39,3.13-3.26,2.05-1.42,4.31-2.03,6.77-1.83l.47.04c2.33.26,4.66,1.21,7,2.83l.46.33c2.32,1.7,4.5,4.04,6.55,7,2.17,3.13,3.59,6.19,4.27,9.17h0c.61,2.77.68,5.46.2,8.08l-.1.52c-.58,2.78-1.71,5.48-3.38,8.1h0c-1.63,2.6-3.68,5.1-6.14,7.52l-.13.13-.17-.07-4.34-1.77-.41-.17.32-.3c2.16-2.02,4.03-4.11,5.61-6.26l.58-.82c1.29-1.93,2.25-3.91,2.86-5.94.68-2.33.78-4.76.29-7.29h0s-.09-.48-.09-.48c-.52-2.4-1.67-4.9-3.48-7.51-1.62-2.34-3.32-4.23-5.09-5.66h0c-1.57-1.28-3.11-2.11-4.61-2.5l-.64-.14c-1.69-.31-3.29.06-4.82,1.12-1.18.82-2.09,1.94-2.74,3.37l-.26.63c-.65,1.75-1.02,3.7-1.1,5.86h0c-.07,2.1.13,4.19.6,6.27h0c.45,2.05,1.11,3.84,1.96,5.38h0c.47.95,1,1.83,1.57,2.66.6.8,1.36,1.72,2.29,2.74l.2.22-.23.19-3.27,2.66-.2.17-.18-.2c-.7-.76-1.54-1.71-2.51-2.85h0c-.94-1.17-1.92-2.49-2.94-3.96-.73-1.05-1.49-2.25-2.29-3.61h0s-2.37-4.2-2.37-4.2h0s-2.22-4.17-2.22-4.17h0s-1.75-3.49-1.75-3.49l-.57-1.09c-.19-.35-.38-.7-.56-1.03l-.59-1.01c-.19-.33-.39-.65-.58-.95l-.15-.24.23-.15Z"/><path class="c" d="M435.58,297.36l.18.22c.98,1.25,2.2,2.69,3.65,4.32l1.13,1.22c1.17,1.22,2.48,2.47,3.91,3.72l.72.61c1.7,1.42,3.61,2.79,5.73,4.11l.92.55c2.17,1.27,4.55,2.38,7.13,3.32l1.11.38c2.62.85,5.47,1.46,8.53,1.84l1.33.13c3.15.25,6.52.13,10.12-.35l.39-.05-.07.39c-.07.38-.17.88-.3,1.48-.07.6-.13,1.19-.18,1.77,0,.59,0,1.08.01,1.49v.25l-.25.03c-4.25.5-8.23.51-11.95.02h0c-3.71-.53-7.16-1.41-10.34-2.63h0c-3.15-1.24-6.05-2.69-8.68-4.34h0c-1.54-1-2.99-2.02-4.36-3.05,1.24,3.26,2.21,6.44,2.9,9.54h0c1.1,4.79,1.52,9.45,1.26,13.98h0c-.26,4.48-1.26,8.9-2.99,13.28l-.09.24-.24-.07c-.32-.09-.78-.14-1.39-.17h-.01c-.59-.05-1.21-.08-1.88-.11l-.85-.02c-.26,0-.5,0-.72.02l-.46.02.19-.42c2.61-5.83,3.76-11.75,3.44-17.77l-.08-1.21c-.57-6.47-2.58-13.24-6.02-20.28l-.12-.25.24-.13,1.8-.96c-1.2-1.14-2.31-2.26-3.31-3.36h0c-.38-.43-.74-.84-1.08-1.24l-10.62,8.31-2.9-3.71,14.23-11.13Z"/><path class="c" d="M375.4,338.91l4.24-2.4.29-.16.12.31c.11.29.24.67.39,1.14.16.42.31.87.46,1.34.16.41.3.77.42,1.07.43.94.92,2.03,1.47,3.28h0c.53,1.22,1.13,2.53,1.79,3.92.67,1.35,1.36,2.72,2.07,4.13.71,1.35,1.42,2.66,2.13,3.94h0c.74,1.25,1.45,2.38,2.15,3.39.76,1.1,1.51,2.12,2.24,3.06l1.2,1.42c.17.2.34.4.52.6-.13-.53-.25-1.07-.39-1.64l-.69-2.91h0s-.57-2.65-.57-2.65l-.09-.37.37.02,2.88.13h.21s.05.21.05.21l1.2,4.41c.44,1.59.89,3.1,1.36,4.54h0c.48,1.39.88,2.48,1.2,3.26l.56,1.18c.2.42.39.72.56.91l.3.36c.09.12.19.24.28.38l.64.74.2.23-.23.19-3.07,2.46-.18.14-.18-.15c-1.17-.96-2.47-2.2-3.92-3.71l-1.49-1.6c-2.08-2.29-4.16-4.95-6.26-7.98-1.14-1.65-2.23-3.38-3.26-5.2-1.05-1.84-2.02-3.65-2.9-5.44-.9-1.81-1.71-3.46-2.43-4.95h0s-1-2.11-1-2.11c-.31-.63-.59-1.2-.85-1.71h0s-.43-.89-.43-.89c-.15-.29-.3-.58-.45-.87-.33-.6-.66-1.14-.98-1.6l-.18-.26.27-.15ZM401.52,352.98l3.44-1.92.29-.16.11.31c.17.47.35.92.52,1.34l.5,1.18c.33.73.71,1.39,1.13,2.01.33.47.75.88,1.28,1.22.52.28,1.15.44,1.91.45l.3-.02c.72-.07,1.57-.3,2.56-.68,1.1-.46,2.41-1.21,3.93-2.26,2.02-1.4,3.86-2.81,5.52-4.22l1.22-1.1c1.21-1.12,2.38-2.28,3.52-3.5l.23-.25.2.28,2.69,3.7.14.19-.16.17c-1.21,1.28-2.69,2.66-4.46,4.15h0c-1.75,1.44-3.8,2.97-6.14,4.58-3.78,2.62-7.02,3.97-9.69,4h0c-2.65,0-4.74-1.08-6.25-3.25-.52-.76-1.02-1.6-1.49-2.53h0s-.7-1.57-.7-1.57c-.24-.56-.49-1.14-.74-1.77l-.09-.23.22-.12ZM412.01,325.16l-.2.17c-1.12.95-2.45,2.03-4.01,3.24h0c-1.54,1.16-3.19,2.34-4.92,3.54-1.71,1.18-3.39,2.3-5.05,3.36h0c-1.68,1.03-3.17,1.91-4.49,2.64l-.23.13-2.81-4.07.29-.15c1.34-.67,2.86-1.5,4.55-2.49h0c1.7-1.04,3.41-2.16,5.14-3.36,1.31-.94,2.55-1.85,3.73-2.75l1.16-.89c1.52-1.23,2.77-2.32,3.74-3.25l.24-.23,2.85,4.12Z"/><path class="c" d="M358.4,376.87l3.97-1.16.33-.1.03.34c.37,3.85.29,7.71-.24,11.59,2.22.05,4.34.15,6.34.32l1.71.16c1.66.19,3.15.44,4.47.76l.27.06-.05.27-.88,4.38-.06.29-.29-.08c-1.7-.44-3.72-.78-6.04-1.02h0c-1.98-.23-4.09-.38-6.32-.48-.43,1.96-.95,3.89-1.57,5.8l-.48,1.41c-1.3,3.7-2.92,7.23-4.84,10.61l-.13.22-.23-.1c-.15-.06-.32-.13-.52-.19l-.69-.18c-.52-.12-1.06-.23-1.61-.33h0c-.52-.07-.99-.12-1.39-.14l-.48-.03.26-.41c2.01-3.19,3.69-6.55,5.03-10.08l.5-1.33c.63-1.77,1.16-3.56,1.59-5.37-.8,0-1.6,0-2.4,0l-1.98.04c-2.64.06-5.18.21-7.62.45l-.4.04.09-.39.93-3.83.05-.19.2-.02c2.38-.27,4.89-.46,7.52-.56h0c1.5-.09,3-.13,4.49-.15.51-3.53.59-6.97.23-10.34l-.02-.23.23-.07ZM367.9,364.78l.16.23c2.06,2.9,3.98,5.56,5.79,7.98l1.33,1.71c1.31,1.64,2.54,3.08,3.7,4.32,1.55,1.6,2.93,2.72,4.16,3.38,1.19.62,2.11.61,2.82.12.1-.07.18-.21.14-.55-.05-.35-.22-.83-.54-1.45l-.56-1.02c-.62-1.08-1.41-2.35-2.38-3.8l-.38-.56.66.12c.6.11,1.24.21,1.93.31.68.05,1.28.07,1.79.06h.16s.09.13.09.13c1.2,1.92,2.07,3.54,2.63,4.86.55,1.32.76,2.44.57,3.36h0c-.17.95-.76,1.77-1.71,2.47h0c-1.55,1.08-3.19,1.42-4.91,1.02l-.35-.09c-1.82-.52-3.71-1.67-5.69-3.42h0c-1.96-1.81-4.02-4.09-6.2-6.84h0c-1.49-1.94-3.06-4.04-4.69-6.3l-25.82,17.87-2.34-3.38,29.64-20.52ZM331.57,363.82l4.02-1.66.29-.12.09.3c.49,1.57.92,3.14,1.27,4.71l27.98-19.36,2.34,3.38-29.51,20.42c.16,1.18.29,2.36.38,3.54h0c.29,4.2.05,8.06-.73,11.59l-.06.27-.27-.05c-.33-.06-.78-.09-1.34-.09h-.02c-.28-.03-.56-.05-.84-.06l-.85-.02c-.28,0-.54,0-.78.02l-.64.06-.43.06.12-.42.17-.62c.7-2.69,1.01-5.57.95-8.66l-.06-1.44c-.25-3.91-.99-7.74-2.23-11.5l-.08-.25.25-.1ZM365.39,357.04l2.28,3.29-26.41,18.28-2.28-3.29,26.42-18.28Z"/><path class="c" d="M294.12,389.22l.1.34c.09.31.22.66.4,1.05h0s.53,1.2.53,1.2c.2.43.38.83.54,1.2.37.75.85,1.73,1.43,2.94.33.64.68,1.32,1.05,2.03.31-.22.63-.44.95-.67l1.06-.81c.7-.54,1.38-1.08,2.05-1.63l.99-.82c1.32-1.14,2.46-2.2,3.44-3.19l.26-.26.19.32,2.15,3.67.12.2-.17.16c-1.09.97-2.32,2.03-3.69,3.15h0s0,0,0,0c-1.04.82-2.11,1.64-3.21,2.45l-1.11.81c-.31.22-.61.43-.91.65l1.18,2.25c.75,1.45,1.47,2.79,2.16,4.03l.72,1.31c.86-.89,1.76-1.75,2.7-2.55l.76-.64c2.02-1.7,3.98-3.07,5.88-4.11,2.35-1.29,4.66-2.04,6.93-2.23h0c2.3-.2,4.38.13,6.24,1.03h0c1.88.85,3.36,2.26,4.44,4.22,1.07,1.95,1.62,3.9,1.63,5.85.04,1.94-.44,3.84-1.45,5.71h0c-.97,1.84-2.42,3.65-4.33,5.42h0c-.94.81-1.92,1.54-2.94,2.19h0c-.97.66-1.85,1.25-2.64,1.77l-.18.12-.16-.15-3.47-3.13-.31-.28.37-.19c.9-.45,1.82-.96,2.75-1.51l.7-.44c.68-.45,1.32-.92,1.89-1.42h0s.46-.39.46-.39c.89-.78,1.68-1.63,2.36-2.54l.33-.46c.87-1.29,1.38-2.61,1.55-3.98h0s.05-.52.05-.52c.07-1.2-.23-2.4-.89-3.62-.64-1.16-1.45-1.99-2.42-2.5l-.43-.2c-1.04-.44-2.18-.61-3.43-.51l-.54.06c-1.47.2-2.95.71-4.45,1.54-2.08,1.15-4,2.49-5.74,4.02-1.18,1.04-2.33,2.17-3.44,3.4.61,1.06,1.23,2.12,1.84,3.18l1.22,2.04c.38.66.75,1.3,1.09,1.92l.94,1.62c.27.48.51.91.72,1.28.71,1.29,1.17,2.45,1.36,3.46l.07.42c.13,1.1-.04,2.04-.52,2.81h0c-.42.76-1.09,1.39-1.98,1.88-.96.53-2.16.88-3.57,1.07h0c-1.4.22-2.83.25-4.31.09h0c-1.27-.15-2.46-.47-3.55-.95l-.46-.22c-1.24-.61-2.17-1.47-2.78-2.57-.82-1.5-1.06-3.27-.72-5.28h0s.16-.76.16-.76c.4-1.78,1.09-3.61,2.07-5.5h0s.44-.81.44-.81c.8-1.42,1.69-2.76,2.68-4.02-.49-.87-.96-1.72-1.42-2.55l-2.42-4.4-.87-1.63c-1.18.78-2.24,1.43-3.18,1.95-.69.38-1.32.72-1.91,1.04l-1.61.84c-.95.48-1.86.9-2.75,1.26l-.23.09-.12-.22-2.09-3.57-.17-.28.31-.13c1.39-.56,2.56-1.06,3.51-1.5h0c.97-.49,1.89-.98,2.78-1.47,1.02-.56,2.13-1.24,3.32-2.02-.55-1.04-1.05-1.98-1.51-2.82h0s-.75-1.46-.75-1.46c-.21-.4-.38-.72-.51-.96-.17-.31-.38-.66-.64-1.05v-.02s0,0,0,0c-.12-.22-.24-.43-.37-.64l-.38-.6c-.26-.39-.48-.68-.67-.89l-.25-.27,4.88-2.68ZM303.49,417.24c-.58.83-1.09,1.67-1.54,2.54h0c-.81,1.51-1.33,2.92-1.58,4.23-.22,1.28-.09,2.29.32,3.04.27.48.68.87,1.26,1.17.62.25,1.28.42,2.01.5l.54.05c.54.02,1.07,0,1.6-.08.69-.14,1.23-.32,1.64-.55.47-.26.72-.61.78-1.05v-.02s.03-.18.03-.18c.03-.44-.12-.99-.49-1.66-.25-.46-.56-1.01-.92-1.64l-1.23-2.15c-.76-1.32-1.57-2.73-2.42-4.21ZM311.66,386.51c1.48-.03,3.16,0,5.04.09l1.39.05c1.38.06,2.72.15,4.03.27h0c1.78.14,3.24.32,4.37.54l.25.05-.02.25-.28,4.13-.02.35-.34-.1c-.87-.25-1.92-.45-3.15-.6h0c-1.25-.18-2.56-.31-3.92-.38h0s.02-.28.02-.28l-.02.28c-1.38-.11-2.72-.18-4.02-.21h0c-1.32-.06-2.47-.09-3.45-.08h-.3s.01-.29.01-.29l.14-3.81v-.27s.28,0,.28,0Z"/><path class="b" d="M254.81,385.23c44.73-26.03,154.06-94.14,233.51-158.4"/><path class="d" d="M278.58,39.52c11.65-10.63,29.67-9.75,40.11,1.89l.49.56c24.13,28.31,44.45,52.76,69.01,82.34l26.27,31.61c9.36,11.25,8.65,27.76-1.58,38.06l-.49.48c-77.52,74.33-130.6,118.33-208.23,175.55l-7.59,5.58c-12.01,8.8-28.77,6.72-38.37-4.6l-.45-.55c-32.84-40.68-57.35-70.17-87.77-105.15l-6.17-7.08c-10.72-12.27-9.03-31.01,3.55-41.22l.61-.48c94.32-72.55,142.6-115.05,199.18-166.56l11.44-10.43Z"/><path d="M301.53,149.96c-.7.66-1.5.99-2.39.99-.86.03-1.58-.25-2.15-.85-.27-.29-.46-.62-.57-.99-2.09-5.16-4.23-10.24-6.41-15.24-2.23.36-5.12.09-8.67-.83-3.55-.98-7.16-2.31-10.84-4-3.71-1.72-6.89-3.46-9.55-5.21-.3-.2-.56-.4-.77-.63-.51-.54-.72-1.18-.63-1.92.12-.77.52-1.48,1.22-2.14.6-.57,1.15-.84,1.65-.83.52-.02,1.1.19,1.74.61,11.33,6.59,19.04,9.55,23.13,8.87-2.47-4.86-6.15-11.75-11.05-20.66-.35-.69-.49-1.28-.41-1.77.08-.49.4-1.01.97-1.54.76-.72,1.53-1.11,2.3-1.18.78-.13,1.45.05,2.02.53.15.1.3.29.45.57,2.63,4.71,4.84,8.79,6.65,12.24,1.8,3.45,3.56,7.04,5.26,10.76,1.33,2.88,2.89,6.35,4.67,10.42,1.82,4.04,3.15,7.15,4.01,9.34.29.69.39,1.31.31,1.86-.05.52-.36,1.05-.93,1.59Z"/><path d="M263.43,163.78c-2.35,2.14-4.92,3.63-7.71,4.45-2.78.76-5.59.72-8.42-.12-2.83-.9-5.47-2.71-7.94-5.42-2.29-2.51-3.77-5.18-4.44-7.99-.67-2.81-.51-5.58.49-8.31.99-2.73,2.76-5.26,5.31-7.58,1.64-1.5,3.29-2.58,4.92-3.24,1.64-.66,3.16-.99,4.58-.99-6.88-7.95-12.01-14.07-15.38-18.36-.44-.61-.6-1.28-.51-2.02.13-.77.52-1.44,1.16-2.03.74-.67,1.51-1.02,2.32-1.05.84-.05,1.52.24,2.04.88,1.71,2.33,5.05,6.43,10.02,12.28,5,5.82,9.53,10.96,13.58,15.41,3.9,4.29,6.3,6.73,7.2,7.33,1.56,1,2.79,1.38,3.7,1.15.19-.05.46.11.81.5.53.58.74,1.36.63,2.35-.08.95-.44,1.72-1.08,2.31-.55.5-1.1.77-1.66.8-1.71.38-3.5-.06-5.35-1.32.28,1.93.06,3.86-.64,5.8-.74,1.91-1.95,3.63-3.62,5.15ZM259.73,159.81c1.23-1.11,2.12-2.46,2.69-4.04.6-1.61.81-3.19.64-4.74-.2-1.58-.79-2.91-1.76-3.97-1.35-1.48-2.39-2.66-3.12-3.53l-3.47-3.91c-1.25-.4-2.87-.34-4.87.19-2,.46-3.79,1.41-5.37,2.85-2.45,2.23-3.71,4.76-3.79,7.6-.04,2.81,1.16,5.55,3.59,8.23,1.67,1.84,3.47,3.07,5.38,3.68,1.92.55,3.74.61,5.46.16,1.75-.47,3.29-1.31,4.61-2.51Z"/><path d="M211.77,162.28c2.85-2.37,5.86-3.15,9.04-2.33,3.18.75,6.44,3.14,9.79,7.17l9.66,11.61c.53.64.72,1.3.56,2-.18.67-.64,1.3-1.38,1.92-.74.61-1.48.98-2.24,1.1-.75.12-1.38-.13-1.88-.73l-9.74-11.81c-2.32-2.78-4.31-4.53-5.98-5.24-1.66-.77-3.28-.5-4.86.81-3.02,2.51-2.97,6.55.14,12.13.92,1.72,2.25,3.63,3.98,5.71l5.99,7.1c.5.6.67,1.25.52,1.95-.19.67-.65,1.3-1.38,1.92-.81.67-1.58,1.03-2.33,1.09-.74,0-1.34-.28-1.78-.81-2.79-3.35-6.09-7.18-9.91-11.5-2.24-2.56-3.78-4.34-4.62-5.35-.65-.71-1.24-1.18-1.77-1.42-.53-.3-1.39-.65-2.6-1.07-.41-.22-.72-.45-.91-.69-.42-.5-.52-1.21-.32-2.12.21-.91.58-1.59,1.11-2.03.57-.47,1.43-.57,2.58-.27,1.99.55,3.44,1.37,4.33,2.44l.5.6c-.71-2.08-.86-4.16-.45-6.26.44-2.13,1.75-4.1,3.93-5.91Z"/><path d="M209.14,201.06c.56-.35,1.08-.5,1.57-.46.52.02,1.05.34,1.58.98.5.6.77,1.23.8,1.89.03.65-.22,1.2-.75,1.65-1.37,1.14-2.58,1.81-3.62,1.99-1,.16-2.25-.08-3.74-.71.49,3.45-1.18,6.76-5,9.95-3.89,3.23-7.73,4.45-11.52,3.63-3.82-.85-7.2-3.03-10.13-6.55-1.95-2.35-3.28-4.9-3.99-7.66-.71-2.76-.64-5.48.19-8.16.83-2.68,2.46-5.02,4.87-7.03,1.54-1.28,3.15-2.11,4.82-2.48,1.71-.4,3.3-.33,4.77.2l-.9-1.38c-.87-1.32-.65-2.52.66-3.61.87-.72,1.66-1.04,2.36-.94.68.06,1.22.41,1.62,1.03,1.76,2.79,3.13,4.85,4.13,6.18.9,1.29,2.16,2.91,3.78,4.85l2.76,3.32c1.45,1.74,2.54,2.88,3.26,3.41.76.5,1.58.47,2.47-.1ZM198.48,201.85c-1.22-1.53-2.92-3.61-5.1-6.22-1.14-1.37-2.38-2.25-3.71-2.61-1.29-.4-2.54-.44-3.75-.11-1.17.29-2.2.81-3.07,1.53-1.51,1.26-2.42,2.78-2.74,4.58-.31,1.74-.17,3.51.44,5.33.64,1.79,1.57,3.43,2.8,4.9,1.87,2.25,4.02,3.77,6.45,4.58,2.44.75,4.78.19,7.03-1.68,1.78-1.48,2.84-3.13,3.19-4.96.35-1.82-.16-3.61-1.55-5.34Z"/><path d="M163.07,209.76c1.79,1.69,3.79,4.01,5.98,6.94,2.21,2.88,4.74,6.49,7.59,10.82.38.58.43,1.25.15,2.01-.25.74-.75,1.36-1.52,1.86-.76.5-1.53.72-2.31.66-.77-.06-1.41-.48-1.92-1.24-6.04-9.18-10.28-14.82-12.71-16.92-1.23-1.07-2.39-1.64-3.47-1.71-1.11-.1-2.23.22-3.36.96-2.51,1.65-3.77,3.95-3.78,6.87,0,2.87.92,5.68,2.75,8.45l7.52,11.42c.38.58.44,1.22.17,1.92-.27.7-.79,1.3-1.55,1.81-.8.53-1.58.78-2.33.75-.77-.06-1.35-.39-1.74-.97-4.84-7.36-9.39-14.46-13.65-21.32-3.28-5.3-6.78-11.25-10.49-17.84-.92-1.64-.55-3.01,1.13-4.11.8-.53,1.54-.75,2.22-.68.69.02,1.23.36,1.63,1.04l6.36,10.85,3.63,6.22c.13-1.71.67-3.39,1.61-5.05.94-1.66,2.41-3.15,4.42-4.47,2.4-1.58,4.71-2.21,6.9-1.88,2.18.29,4.43,1.49,6.76,3.61Z"/><path d="M274.72,240.21l20.8-17.31,2.54,3.06-20.8,17.31-2.54-3.06ZM291.83,212.51l3.19-2.65,20.07,24.12-3.19,2.65-20.07-24.12ZM275.96,223.13l3.23-2.69,30.33,36.44-3.23,2.69-30.33-36.44ZM298.9,199.24l3.28-2.73,29.13,35c.95,1.14,1.49,2.11,1.63,2.94.17.8.02,1.63-.43,2.5-.51.87-1.38,1.86-2.61,2.99-1.18,1.13-2.77,2.53-4.78,4.2-.33-.27-.73-.55-1.21-.84-.46-.26-.93-.53-1.42-.82-.49-.29-.94-.5-1.35-.65,1.57-1.26,2.98-2.4,4.23-3.45,1.25-1.04,2.08-1.73,2.49-2.07.38-.37.6-.7.66-.99.03-.32-.13-.68-.46-1.09l-29.13-35ZM281.82,212.49l4.52.45c-1.1,2.05-2.53,4.27-4.28,6.67-1.75,2.4-3.66,4.79-5.7,7.19-2.02,2.37-4.02,4.63-5.99,6.76-.4-.31-.91-.62-1.53-.95-.59-.35-1.14-.6-1.67-.76,1.44-1.59,2.88-3.23,4.33-4.93,1.45-1.75,2.83-3.47,4.14-5.15,1.32-1.74,2.5-3.39,3.56-4.96,1.09-1.6,1.96-3.04,2.62-4.32ZM284.93,234.08l3.15-.92c.83,2.12,1.58,4.38,2.25,6.79.67,2.4,1.23,4.82,1.68,7.26.45,2.43.77,4.81.96,7.11.17,2.28.17,4.35,0,6.22-.38-.22-.84-.41-1.36-.57-.52-.21-1.05-.41-1.6-.59-.52-.21-.99-.36-1.41-.45.24-1.73.32-3.62.24-5.67-.08-2.11-.28-4.28-.61-6.51-.33-2.24-.78-4.43-1.33-6.58-.55-2.2-1.2-4.23-1.95-6.07ZM291.59,236.23c.68-.07,1.69-.1,3.04-.09,1.37,0,2.85,0,4.44,0,1.59.01,3.04.04,4.35.08,1.34.02,2.32.04,2.94.07l.41,4.32c-.85-.13-1.97-.26-3.35-.39-1.41-.16-2.88-.29-4.4-.4-1.52-.11-2.98-.21-4.37-.28-1.39-.07-2.52-.1-3.39-.07l.34-3.24Z"/><path d="M234.3,255.8l27.05-22.51,2.47,2.97-27.05,22.51-2.47-2.97ZM257.38,277.86c3.12.9,6.47,1.05,10.05.44,3.59-.67,7.35-1.98,11.3-3.93,3.98-1.98,8.05-4.48,12.23-7.52-.01.45,0,.97.02,1.53.05.6.11,1.17.17,1.71.11.55.24,1.03.39,1.45-4.34,2.97-8.59,5.38-12.77,7.23-4.13,1.86-8.15,3.03-12.07,3.54-3.91.45-7.69.09-11.32-1.08l2-3.37ZM251.99,268.44l3.78,4.54,18.09-15.05-3.78-4.54-18.09,15.05ZM246.21,261.5l3.71,4.46,18.09-15.05-3.71-4.46-18.09,15.05ZM241,261.46l24.34-20.25,13.82,16.6-24.34,20.25-13.82-16.6ZM246.99,246.79l3.23-2.69,14.51,17.43c1.31,1.57,2.5,3.22,3.59,4.93,1.08,1.71,1.92,3.55,2.52,5.52.58,1.94.81,4.03.72,6.28-.12,2.22-.7,4.65-1.71,7.27-1,2.65-2.57,5.54-4.71,8.65-.33-.16-.76-.33-1.29-.48-.5-.13-1.03-.26-1.58-.39-.5-.13-.95-.2-1.35-.2,2.2-2.92,3.85-5.57,4.92-7.95,1.06-2.41,1.63-4.59,1.73-6.54.13-1.98-.08-3.8-.63-5.47-.55-1.67-1.31-3.23-2.28-4.69-.99-1.49-2.06-2.92-3.2-4.29l-14.47-17.39ZM229.27,256.07l3.83-1.71c1.22,3.18,2.26,6.45,3.14,9.81.85,3.33,1.49,6.62,1.92,9.86.43,3.24.61,6.3.53,9.17-.31-.19-.74-.39-1.32-.61-.57-.21-1.16-.41-1.76-.6-.63-.22-1.14-.36-1.53-.42.12-2.52,0-5.21-.35-8.06-.35-2.91-.92-5.84-1.7-8.79-.75-2.97-1.67-5.86-2.76-8.65ZM234.37,270.82l.52-5.68h.08s26.44,31.77,26.44,31.77l-3.15,2.62-23.89-28.71Z"/><path d="M331.3,231.51l-29.13-35-3.28,2.73,29.13,35,.22.3c.19.29.27.56.24.8-.05.29-.27.62-.66.99l-2.49,2.07-.36-.44,2.47-2.06c.32-.31.44-.53.47-.65,0-.11-.05-.31-.33-.65l-29.49-35.44,4.15-3.45,29.49,35.44c.96,1.15,1.57,2.22,1.74,3.18h0c.2.95.02,1.92-.48,2.89h0s0,.02,0,.02c-.55.94-1.47,1.97-2.71,3.11h0c-1.19,1.14-2.8,2.55-4.81,4.23l-.37.3-.36-.31c-.3-.25-.67-.51-1.14-.78-.46-.26-.93-.53-1.42-.82-.46-.27-.88-.47-1.25-.6l-.97-.34.8-.64c1.57-1.25,2.97-2.4,4.22-3.44l.36.44-2,1.64c-.7.58-1.45,1.18-2.23,1.81.42.14.87.36,1.35.65.49.29.96.56,1.42.81.36.22.68.43.96.63l.26.2c2.01-1.67,3.6-3.07,4.78-4.2,1.08-.99,1.88-1.87,2.41-2.66l.21-.33c.46-.87.6-1.71.43-2.5-.12-.72-.55-1.56-1.29-2.51l-.34-.42ZM295.52,222.9l-8.43,7.02-6.72-8.07c.11-.15.23-.29.34-.44l1.34-1.8c1.75-2.4,3.18-4.62,4.28-6.67l-4.52-.45c-.66,1.29-1.53,2.72-2.62,4.32-1.06,1.57-2.25,3.23-3.56,4.96-1.31,1.68-2.69,3.4-4.15,5.15l-2.17,2.5c-.72.82-1.44,1.63-2.16,2.43.52.16,1.08.41,1.67.76.46.24.86.48,1.21.71l.32.23c1.97-2.13,3.97-4.38,5.99-6.76.45-.53.9-1.06,1.34-1.59l6.16,7.41-9.13,7.6,2.54,3.06,8.45-7.04c.42,1.24.81,2.54,1.16,3.92l.4,1.62c.38,1.63.69,3.28.94,4.96l.23,1.67c.2,1.65.33,3.27.39,4.85l.02.76c.04,1.76-.05,3.4-.26,4.91.42.09.89.24,1.41.45.55.18,1.08.38,1.6.59.52.16.98.35,1.36.57.15-1.64.17-3.43.06-5.37l-.06-.84c-.14-1.73-.36-3.49-.65-5.3l-.31-1.82c-.41-2.22-.91-4.41-1.5-6.6l15.79,18.97,3.23-2.69-14.41-17.32c1.25.07,2.55.15,3.91.25,1.52.11,2.99.25,4.4.4,1.39.13,2.51.26,3.36.39l-.41-4.32c-.62-.03-1.6-.05-2.94-.07-.66-.02-1.35-.04-2.08-.05l-2.28-.03c-.79,0-1.56,0-2.3,0h-2.14c-.94,0-1.72,0-2.34.04l-2.66-3.2,8.43-7.02-2.54-3.06ZM295.02,209.86l-3.19,2.65,20.07,24.12,3.19-2.65-20.07-24.12ZM298.86,226.04l-8.43,7.02,2.12,2.54c.58-.02,1.27-.03,2.07-.02,1.38,0,2.86,0,4.45,0l2.29.03c.72.01,1.41.03,2.07.05,1.35.02,2.33.04,2.96.07l.49.02.46,4.81.07.73-.72-.11c-.83-.13-1.94-.26-3.32-.38h0c-.7-.08-1.42-.15-2.15-.22l-2.23-.19c-.89-.06-1.75-.12-2.59-.18l13.94,16.75-4.11,3.42-14.55-17.48c.19.79.37,1.58.53,2.37l.36,1.84c.45,2.45.78,4.84.97,7.17h0c.17,2.31.17,4.41,0,6.32l-.08.89-.77-.45c-.34-.2-.75-.37-1.24-.52h-.03s-.02-.02-.02-.02c-.51-.2-1.03-.4-1.57-.58h-.02s-.02,0-.02,0c-.5-.2-.94-.34-1.32-.42l-.51-.11.07-.52c.23-1.69.31-3.55.23-5.57h0s-.08-1.58-.08-1.58c-.1-1.59-.28-3.21-.53-4.88l-.27-1.66c-.29-1.65-.64-3.27-1.05-4.87h0s-.43-1.6-.43-1.6c-.14-.51-.29-1-.45-1.49l-8.25,6.87-3.27-3.93,9.13-7.6-5.36-6.45c-.3.36-.6.72-.9,1.08h0c-2.03,2.38-4.03,4.63-6,6.77l-.35.38-.41-.31c-.37-.28-.85-.58-1.45-.9h-.01s-.01-.02-.01-.02c-.56-.33-1.07-.56-1.54-.7l-.87-.26.61-.67c1.43-1.58,2.87-3.22,4.31-4.91l2.12-2.59c.69-.86,1.36-1.7,2.02-2.54,1.31-1.73,2.49-3.37,3.54-4.93h0s.77-1.16.77-1.16c.73-1.13,1.33-2.16,1.81-3.11l.18-.35.39.04,4.52.45.85.09-.4.75c-1.12,2.08-2.56,4.33-4.33,6.74-.46.63-.94,1.26-1.42,1.89l6.06,7.28,8.43-7.02,3.27,3.93ZM315.89,234.05l-4.06,3.38-20.8-24.99,4.06-3.38,20.8,24.99Z"/><path d="M265.34,241.21l-10.36,8.62-3.06-3.67,11.89-9.89-2.47-2.97-27.05,22.51,2.47,2.97,11.93-9.93,3.05,3.67-10.75,8.94,13.82,16.6,10.42-8.67c.7,1.19,1.27,2.44,1.7,3.76l.19.63c.38,1.39.52,2.88.45,4.47-.05,0-.09.02-.14.03-3.58.61-6.93.47-10.05-.44l-2,3.37c3.63,1.17,7.41,1.53,11.32,1.08.07,0,.13-.02.2-.03-.27.93-.63,1.89-1.06,2.9l-.43.9c-1.07,2.14-2.57,4.49-4.49,7.04.4,0,.85.08,1.35.2.55.13,1.08.26,1.58.39.39.12.73.24,1.02.36l.27.12c2.14-3.11,3.71-6,4.71-8.65.55-1.41.96-2.77,1.25-4.07,2.52-.63,5.08-1.53,7.68-2.7,3.66-1.62,7.37-3.67,11.15-6.14l1.62-1.09c-.15-.42-.28-.9-.39-1.45-.06-.54-.11-1.11-.17-1.71-.03-.57-.04-1.08-.02-1.53-3.66,2.65-7.24,4.91-10.74,6.75l-1.5.77c-2.46,1.22-4.84,2.18-7.16,2.9,0-1.6-.18-3.11-.53-4.54l-.2-.73c-.57-1.87-1.36-3.63-2.37-5.27l10.69-8.9-13.82-16.6ZM270.08,253.39l3.78,4.54-7.24,6.03c-.3-.41-.61-.83-.92-1.23l-.96-1.19-1.82-2.18,7.17-5.96ZM259.61,262.84l-6.82,5.67,3.05,3.67,6.77-5.63c-.51-.68-1.04-1.35-1.59-2.01l-1.42-1.7ZM264.3,246.44l3.71,4.46-7.17,5.96-3.71-4.46,7.17-5.96ZM253.9,255.09l3.71,4.46-7.69,6.4-3.71-4.46,7.69-6.4ZM260.91,256.06l6.29-5.24-2.98-3.58-6.29,5.24,2.98,3.58ZM249.99,265.15l6.82-5.67-2.98-3.58-6.82,5.67,2.98,3.58ZM261.41,296.91l-24.36-29.28c-.16-.74-.32-1.47-.5-2.21l-.31-1.25c-.88-3.36-1.92-6.63-3.14-9.81l-3.83,1.71c1.09,2.79,2.01,5.67,2.76,8.65l.28,1.1c.63,2.58,1.11,5.14,1.42,7.69l.12,1.06c.26,2.46.34,4.8.23,7,.4.06.91.2,1.53.42.6.19,1.19.39,1.76.6.57.21,1.01.42,1.32.61.06-2.41-.05-4.95-.35-7.62l19.92,23.94,3.15-2.62ZM265.17,261.17c.53.64,1.05,1.3,1.54,1.97l6.35-5.28-3.05-3.67-6.29,5.24,1.46,1.75ZM262.3,265.22c.37.47.73.95,1.08,1.43l-7.61,6.34-3.78-4.55,7.69-6.4,1.78,2.14.84,1.04ZM264.62,236.34l-11.89,9.89,2.33,2.8,10.36-8.62,14.54,17.48-10.76,8.95c.92,1.56,1.64,3.23,2.18,4.98h0c.44,1.48.68,3.03.74,4.66,2.06-.68,4.18-1.55,6.36-2.63,3.94-1.96,7.99-4.45,12.15-7.47l.94-.68-.04,1.16c-.01.43,0,.92.02,1.47l.16,1.68c.11.52.23.96.37,1.34l.15.41-.36.25c-4.36,2.98-8.65,5.41-12.86,7.28-2.51,1.13-4.99,2.01-7.43,2.64-.29,1.23-.69,2.49-1.21,3.81h0c-1.02,2.71-2.61,5.63-4.77,8.77l-.28.41-.44-.22c-.3-.15-.69-.3-1.2-.45-.49-.13-1.01-.25-1.55-.38h0c-.47-.12-.88-.18-1.23-.19l-1.11-.03.67-.88c1.92-2.54,3.39-4.85,4.44-6.95l.42-.88c.3-.69.56-1.35.78-2-3.75.34-7.39-.04-10.89-1.17l-.68-.22,2.37-3.98.22-.38.42.12c2.94.85,6.1,1.01,9.49.47.03-1.6-.18-3.08-.63-4.44l-.21-.6c-.31-.85-.68-1.67-1.11-2.47l-10.33,8.6-14.54-17.48,10.75-8.95-2.33-2.79-11.93,9.93-1.96-2.36c.76,2.23,1.45,4.5,2.05,6.82.29,1.12.55,2.24.79,3.35l24.64,29.61-4.02,3.34-19.11-22.96c.16,2.03.22,3.98.17,5.85l-.02.99-.84-.52c-.26-.16-.66-.35-1.22-.56-.56-.21-1.14-.41-1.73-.59h-.02c-.61-.22-1.09-.35-1.44-.4l-.5-.08.03-.51c.12-2.48,0-5.14-.35-7.97h0s-.14-1.09-.14-1.09c-.35-2.53-.87-5.07-1.54-7.63h0s-.29-1.11-.29-1.11c-.69-2.56-1.5-5.06-2.45-7.48l-.2-.51.49-.22,4.38-1.95.21.56c.14.37.28.74.42,1.12l27.37-22.78,3.2,3.84Z"/><path class="b" d="M135.3,297.66c42.09-30.11,144.53-108.19,217.6-179.63"/></svg>