<?xml version="1.0" encoding="UTF-8"?><svg id="a" xmlns="http://www.w3.org/2000/svg" viewBox="0 0 710.97 512"><defs><style>.b{fill:#fff;}.b,.c,.d{stroke:#000;stroke-width:4px;}.c,.d{fill:none;}.d{stroke-linecap:round;}</style></defs><path class="b" d="M100.77,74.14c41.2-1.04,122.57-1.98,242.52-1.78l24.5.05c123.11.35,201.8-.87,246.2-1.96l8.43-.22c18.46-.49,33.92,14.21,34.14,32.62l.38,32c.2,17.26-13.15,31.6-30.27,32.67l-.82.04c-134.13,5.02-253.25,6.51-472.48,5.91l-45.22-.15c-17.71-.07-32.16-14.34-32.37-32.02l-.43-35.99c-.1-8.73,2.31-16.48,6.64-22.01,4.13-5.28,10.14-8.74,18-9.14l.77-.03Z"/><path class="c" d="M142.5,93.13c14.13-5.02,29.46,2.17,34.33,15.87,4.87,13.7-2.47,28.96-16.6,33.98-14.13,5.02-29.46-2.17-34.33-15.87-4.87-13.7,2.47-28.96,16.6-33.98Z"/><path class="d" d="M115.84,153.18c3.11-3.37,5.41-5.1,8.18-7.43,3.61-3.04,3.53-4.2,6.08-6.08.56-.55,1.54-.74,2.65-2.08"/><path d="M466.31,137.74c.08.24.12.46.12.65,0,.68-.28,1.2-.85,1.58-.54.35-1.19.53-1.94.53-.59,0-1.11-.12-1.54-.36-.43-.24-.72-.61-.85-1.09l-1.54-5.59-9.36-.04c-.19.65-.38,1.27-.57,1.86-.16.57-.31,1.09-.45,1.58l-.61,2.07c-.16.51-.46.89-.89,1.13-.41.27-.89.41-1.46.41-.76,0-1.42-.19-1.99-.57-.54-.38-.81-.88-.81-1.5,0-.14.03-.36.08-.69,0,0,1.92-5.75,5.75-17.26l1.42-4.34c.57-1.76,1.19-3.01,1.86-3.77.68-.76,1.55-1.13,2.63-1.13s1.89.34,2.51,1.01c.62.68,1.2,1.85,1.74,3.53,1.16,3.51,2.53,7.93,4.09,13.25h1.13c.57,0,1.01.19,1.34.57.32.38.49.93.49,1.66,0,1.51-.47,2.27-1.42,2.27h-.2l1.3,4.25ZM458.45,128.91c-.81-3.03-1.51-5.54-2.11-7.54-.05-.19-.11-.35-.16-.49-.05-.14-.09-.27-.12-.41-.21-.76-.39-1.31-.53-1.66-.13-.35-.27-.53-.41-.53s-.27.18-.41.53c-.13.35-.27.78-.41,1.3-.13.54-.23.89-.28,1.05l-2.31,7.7,6.73.04Z"/><path d="M410.53,140.33c-.7,0-1.3-.16-1.78-.49-.46-.35-.69-.78-.69-1.3v-26.78c0-.65.22-1.15.65-1.5.46-.38,1.05-.57,1.78-.57s1.32.19,1.78.57c.49.38.73.88.73,1.5l-.08,12.36c3.48-2.13,6.54-3.98,9.16-5.55.43-.27.88-.41,1.34-.41.51,0,.97.26,1.38.77.41.49.61,1.04.61,1.66,0,.35-.1.63-.28.85-.19.22-.5.46-.93.73l-10.45,6.32,10.74,7.98c.41.3.61.74.61,1.34s-.23,1.15-.69,1.58c-.46.41-.99.61-1.58.61s-1.16-.22-1.78-.65c-.73-.54-2.09-1.62-4.09-3.24-.51-.41-1.11-.86-1.78-1.38-.65-.54-1.39-1.13-2.23-1.78v5.55c0,.54-.23.99-.69,1.34-.43.32-1,.49-1.7.49Z"/><path d="M393.16,140.05c-2.05,0-3.86-.42-5.43-1.26-1.54-.86-2.73-2.04-3.57-3.53-.84-1.51-1.26-3.23-1.26-5.15s.43-3.82,1.3-5.47c.89-1.67,2.13-3,3.73-3.97,1.62-.97,3.47-1.46,5.55-1.46,2.21,0,4.13.54,5.75,1.62,1.65,1.08,2.81,2.43,3.48,4.05.16.41.24.77.24,1.09,0,.76-.53,1.27-1.58,1.54-.27.08-.54.12-.81.12-.46,0-.84-.12-1.13-.36-.3-.27-.61-.68-.93-1.22-.46-.86-1.08-1.58-1.86-2.15-.78-.57-1.74-.85-2.88-.85s-2.19.32-3.08.97c-.89.62-1.59,1.47-2.11,2.55-.49,1.08-.73,2.27-.73,3.57,0,1.84.49,3.31,1.46,4.42,1,1.08,2.44,1.62,4.34,1.62,1.78,0,3.12-.46,4.01-1.38.92-.95,1.39-2.01,1.42-3.2,0-.41.19-.76.57-1.05.38-.3.88-.45,1.5-.45.76,0,1.34.15,1.74.45.41.3.61.81.61,1.54,0,1.3-.36,2.55-1.09,3.77-.7,1.22-1.82,2.21-3.36,3-1.54.78-3.5,1.17-5.88,1.17Z"/><path d="M369.55,140.37c-2.38,0-4.4-.46-6.08-1.38-1.65-.95-2.89-2.21-3.73-3.81-.84-1.62-1.26-3.43-1.26-5.43s.46-3.8,1.38-5.39c.95-1.62,2.23-2.88,3.85-3.77,1.65-.92,3.5-1.38,5.55-1.38,1.86,0,3.54.36,5.02,1.09,1.49.73,2.66,1.77,3.53,3.12.87,1.35,1.3,2.92,1.3,4.7,0,1.05-.17,1.81-.53,2.27-.32.43-.94.65-1.86.65l-13.9.12c0,.76.26,1.54.77,2.35.51.81,1.27,1.5,2.27,2.07,1,.54,2.18.81,3.52.81.92,0,1.69-.11,2.31-.32.65-.24,1.18-.53,1.58-.85.41-.32.88-.77,1.42-1.34.41-.41.85-.61,1.34-.61.51,0,1,.2,1.46.61.49.41.73.86.73,1.38,0,.38-.15.8-.45,1.26-.65.97-1.63,1.86-2.96,2.67-1.3.78-3.05,1.17-5.27,1.17ZM374.54,127.81c.22,0,.35-.04.41-.12.08-.08.12-.23.12-.45,0-1.24-.55-2.27-1.66-3.08-1.11-.81-2.48-1.22-4.13-1.22-1.27,0-2.4.28-3.4.85-.97.54-1.73,1.22-2.27,2.03-.51.78-.77,1.49-.77,2.11l11.71-.12Z"/><path d="M354.03,124.65c.65,2.59.97,7.06.97,13.41,0,.57-.23,1.03-.69,1.38-.46.32-1.04.49-1.74.49s-1.34-.18-1.82-.53c-.46-.38-.69-.9-.69-1.58,0-3.32-.05-6-.16-8.02-.08-2.03-.26-3.57-.53-4.62-.41-1.51-1.3-2.27-2.67-2.27-1.7,0-2.97.66-3.81,1.99-.84,1.3-1.26,2.92-1.26,4.86v8.43c0,.49-.24.9-.73,1.26-.49.32-1.07.49-1.74.49s-1.26-.16-1.74-.49c-.46-.35-.69-.78-.69-1.3,0-5.32.07-10.52.2-15.6.11-3.21.27-6.78.49-10.7l.08-1.58c.05-.62.3-1.12.73-1.5.43-.38,1.01-.57,1.74-.57s1.26.18,1.66.53c.43.32.64.77.61,1.34l-.57,10.41-.04.85c.65-.7,1.46-1.27,2.43-1.7,1-.43,2.15-.65,3.44-.65,1.81,0,3.23.46,4.25,1.38,1.05.92,1.81,2.35,2.27,4.29Z"/><path d="M321.3,140.05c-2.05,0-3.86-.42-5.43-1.26-1.54-.86-2.73-2.04-3.57-3.53-.84-1.51-1.26-3.23-1.26-5.15s.43-3.82,1.3-5.47c.89-1.67,2.13-3,3.73-3.97,1.62-.97,3.47-1.46,5.55-1.46,2.21,0,4.13.54,5.75,1.62,1.65,1.08,2.81,2.43,3.48,4.05.16.41.24.77.24,1.09,0,.76-.53,1.27-1.58,1.54-.27.08-.54.12-.81.12-.46,0-.84-.12-1.13-.36-.3-.27-.61-.68-.93-1.22-.46-.86-1.08-1.58-1.86-2.15-.78-.57-1.74-.85-2.88-.85s-2.19.32-3.08.97c-.89.62-1.59,1.47-2.11,2.55-.49,1.08-.73,2.27-.73,3.57,0,1.84.49,3.31,1.46,4.42,1,1.08,2.45,1.62,4.34,1.62,1.78,0,3.12-.46,4.01-1.38.92-.95,1.39-2.01,1.42-3.2,0-.41.19-.76.57-1.05.38-.3.88-.45,1.5-.45.76,0,1.34.15,1.74.45.41.3.61.81.61,1.54,0,1.3-.36,2.55-1.09,3.77-.7,1.22-1.82,2.21-3.36,3-1.54.78-3.5,1.17-5.88,1.17Z"/><path d="M283.65,140.37c-2.38,0-4.4-.46-6.08-1.38-1.65-.95-2.89-2.21-3.73-3.81-.84-1.62-1.26-3.43-1.26-5.43s.46-3.8,1.38-5.39c.95-1.62,2.23-2.88,3.85-3.77,1.65-.92,3.5-1.38,5.55-1.38,1.86,0,3.54.36,5.02,1.09,1.48.73,2.66,1.77,3.53,3.12.87,1.35,1.3,2.92,1.3,4.7,0,1.05-.18,1.81-.53,2.27-.32.43-.95.65-1.86.65l-13.9.12c0,.76.26,1.54.77,2.35.51.81,1.27,1.5,2.27,2.07,1,.54,2.17.81,3.53.81.92,0,1.69-.11,2.31-.32.65-.24,1.18-.53,1.58-.85.41-.32.88-.77,1.42-1.34.41-.41.85-.61,1.34-.61.51,0,1,.2,1.46.61.49.41.73.86.73,1.38,0,.38-.15.8-.45,1.26-.65.97-1.63,1.86-2.96,2.67-1.3.78-3.05,1.17-5.27,1.17ZM288.64,127.81c.22,0,.35-.04.41-.12.08-.08.12-.23.12-.45,0-1.24-.55-2.27-1.66-3.08-1.11-.81-2.49-1.22-4.13-1.22-1.27,0-2.4.28-3.4.85-.97.54-1.73,1.22-2.27,2.03-.51.78-.77,1.49-.77,2.11l11.71-.12Z"/><path d="M260.64,140.37c-1.86,0-3.5-.45-4.9-1.34-1.4-.89-2.43-2.05-3.08-3.48-.19-.46-.27-.81-.24-1.05.05-.49.32-.93.81-1.34.49-.41,1.01-.61,1.58-.61.38,0,.67.09.89.28.22.16.46.41.73.73.76.97,1.43,1.69,2.03,2.15.59.43,1.34.65,2.23.65.84,0,1.54-.19,2.11-.57.59-.38.89-.88.89-1.5,0-.68-.32-1.19-.97-1.54-.62-.38-1.63-.81-3.04-1.3-1.43-.49-2.59-.95-3.48-1.38-.87-.43-1.62-1.05-2.27-1.86-.62-.84-.93-1.89-.93-3.16s.35-2.34,1.05-3.28c.7-.95,1.65-1.67,2.84-2.19,1.22-.51,2.54-.77,3.97-.77,1.51,0,2.82.28,3.93.85,1.13.57,2,1.32,2.59,2.27.59.92.89,1.92.89,3,0,.68-.18,1.18-.53,1.5-.32.32-.88.49-1.66.49s-1.27-.12-1.54-.36c-.24-.24-.41-.58-.49-1.01-.19-1.81-1.26-2.71-3.2-2.71-.97,0-1.7.22-2.19.65-.49.41-.73.89-.73,1.46,0,.68.32,1.2.97,1.58.65.38,1.69.81,3.12,1.3,1.38.43,2.51.86,3.4,1.3.89.43,1.65,1.05,2.27,1.86.65.81.97,1.85.97,3.12,0,1.43-.41,2.62-1.22,3.57-.78.92-1.8,1.61-3.04,2.07-1.22.43-2.47.65-3.77.65Z"/><path d="M245.17,139.69c-.73,0-1.32-.19-1.78-.57-.43-.41-.65-.92-.65-1.54l-.24-27.47c0-.65.23-1.16.69-1.54.49-.41,1.11-.61,1.86-.61s1.31.19,1.74.57c.46.38.69.89.69,1.54l.2,27.51c0,.65-.24,1.16-.73,1.54-.49.38-1.08.57-1.78.57Z"/><path d="M226.61,111.69c2.13,0,4.09.41,5.88,1.22,1.81.78,3.24,1.89,4.29,3.32,1.05,1.43,1.58,3.07,1.58,4.9,0,1.73-.47,3.27-1.42,4.62-.92,1.35-2.19,2.4-3.81,3.16-1.62.76-3.44,1.13-5.47,1.13-1,0-1.96-.08-2.88-.24-.92-.19-1.69-.41-2.31-.65l-.12,8.95c0,.68-.23,1.23-.69,1.66-.46.41-1.08.61-1.86.61s-1.4-.2-1.86-.61c-.43-.43-.65-1-.65-1.7s.03-1.97.08-3.81c.05-2.43.08-4.58.08-6.44,0-3.46-.07-6.51-.2-9.16l-.12.08c-.27.13-.5.2-.69.2-.43,0-.8-.23-1.09-.69-.27-.46-.41-1-.41-1.62,0-.46.14-.82.41-1.09.3-.3.74-.63,1.34-1.01l.45-.24v-.57c0-.81.2-1.4.61-1.78.43-.41,1.09-.61,1.99-.61s1.51.09,1.86.28c.38.19.57.41.57.65v.04c1.54-.41,3.02-.61,4.46-.61ZM226.81,125.95c1.73,0,3.15-.47,4.25-1.42,1.11-.95,1.66-2.13,1.66-3.57s-.59-2.63-1.78-3.53c-1.19-.92-2.67-1.38-4.46-1.38-1.16,0-2.58.24-4.25.73.05,1.35.08,2.17.08,2.47,0,1.05.03,2.39.08,4.01.05.81.08,1.39.08,1.74.54.27,1.22.5,2.03.69.81.16,1.58.24,2.31.24Z"/><path class="b" d="M97.54,207.27c185.05,5.14,302.58,7,477.87,6.35l35.87-.17c11.35-.06,20.57,9.19,20.43,20.51l-2.4,200.66c-.13,10.65-8.5,19.33-19.04,19.97l-1.03.04c-191.29,2.01-310.38.94-497.15-5.49l-18.29-.64c-10.99-.39-19.68-9.49-19.55-20.48l2.4-200.74.04-1.05c.66-10.46,9.28-18.72,19.78-18.96h1.06Z"/><path d="M568.51,263.06c2.56.02,4.91.52,7.04,1.51,2.16.96,3.87,2.3,5.12,4.03,1.25,1.73,1.87,3.69,1.85,5.9-.02,2.07-.6,3.92-1.74,5.53-1.12,1.61-2.65,2.86-4.6,3.76-1.95.89-4.14,1.33-6.57,1.31-1.2-.01-2.35-.12-3.45-.32-1.1-.24-2.02-.5-2.77-.8l-.23,10.74c0,.81-.29,1.47-.84,1.99-.56.48-1.3.72-2.24.71-.94,0-1.68-.26-2.23-.75-.51-.52-.77-1.21-.76-2.05,0-.84.05-2.37.13-4.57.09-2.92.14-5.49.16-7.73.03-4.15-.02-7.81-.16-10.99l-.15.1c-.32.16-.6.24-.83.24-.52,0-.95-.28-1.31-.84-.32-.55-.48-1.2-.47-1.95,0-.55.17-.99.5-1.31.36-.35.9-.75,1.61-1.2l.54-.29v-.68c.01-.97.26-1.68.75-2.13.52-.48,1.32-.72,2.39-.71,1.07,0,1.82.13,2.23.36.45.23.68.49.67.78v.05c1.85-.47,3.63-.7,5.35-.69ZM568.63,280.18c2.07.02,3.78-.54,5.12-1.66,1.34-1.12,2.01-2.54,2.03-4.26.01-1.75-.69-3.17-2.11-4.25-1.42-1.11-3.2-1.68-5.34-1.69-1.39-.01-3.1.27-5.11.83.05,1.62.08,2.61.07,2.97-.01,1.26.01,2.87.06,4.82.06.97.09,1.67.08,2.09.65.33,1.45.61,2.42.84.97.2,1.89.31,2.77.31Z"/><path d="M548.76,294.17c.09.29.14.55.14.78,0,.81-.35,1.44-1.04,1.89-.65.42-1.43.62-2.34.61-.71,0-1.33-.16-1.84-.45-.52-.3-.85-.74-1.01-1.32l-1.8-6.72-11.23-.14c-.23.78-.47,1.52-.7,2.23-.2.68-.38,1.31-.55,1.89l-.75,2.47c-.2.62-.56,1.07-1.08,1.35-.49.32-1.07.48-1.75.47-.91,0-1.7-.24-2.38-.7-.64-.46-.96-1.06-.96-1.81,0-.16.04-.44.1-.83,0,0,2.36-6.89,7.06-20.66l1.74-5.19c.7-2.1,1.45-3.6,2.27-4.5.82-.9,1.88-1.35,3.17-1.34,1.26,0,2.26.42,3,1.24.74.82,1.42,2.23,2.06,4.25,1.36,4.22,2.96,9.54,4.79,15.94h1.36c.68.02,1.21.25,1.6.71.38.46.58,1.12.57,2-.01,1.82-.59,2.72-1.72,2.71h-.24s1.52,5.12,1.52,5.12ZM539.41,283.5c-.94-3.64-1.76-6.66-2.46-9.06-.06-.23-.13-.42-.19-.59-.06-.16-.11-.33-.14-.49-.25-.91-.46-1.57-.62-2-.16-.42-.32-.63-.48-.64-.16,0-.33.21-.49.63-.17.42-.33.94-.5,1.55-.17.65-.28,1.07-.35,1.26l-2.84,9.22,8.07.11Z"/><path d="M504.08,296.59c-2.4-.02-4.53-.54-6.41-1.56-1.84-1.02-3.26-2.34-4.25-3.97-.99-1.66-1.48-3.45-1.46-5.36,0-1,.27-1.73.79-2.18.52-.48,1.22-.72,2.1-.71,2.01.01,3.04.85,3.09,2.5.05,1.88.67,3.34,1.86,4.39,1.22,1.01,2.66,1.53,4.32,1.54,1.46.01,2.72-.3,3.8-.94,1.07-.67,1.62-1.66,1.63-2.95,0-.97-.31-1.78-.95-2.44-.64-.65-1.43-1.18-2.37-1.57-.94-.4-2.15-.81-3.64-1.24-1.94-.57-3.61-1.14-5-1.74-1.36-.59-2.65-1.56-3.87-2.9-1.19-1.37-1.77-3.12-1.76-5.26.01-1.94.55-3.67,1.59-5.19,1.05-1.55,2.47-2.74,4.26-3.57,1.79-.86,3.74-1.28,5.84-1.27,2.2.02,4.19.5,5.97,1.46,1.81.92,3.21,2.15,4.2,3.68,1.03,1.53,1.53,3.16,1.52,4.87,0,1-.27,1.72-.79,2.13-.49.42-1.22.62-2.19.62-.91,0-1.57-.22-1.99-.65-.42-.43-.72-1.09-.91-2-.19-1.3-.79-2.42-1.82-3.37-1-.95-2.34-1.43-4.02-1.44-1.62-.01-2.99.43-4.09,1.33-1.08.9-1.62,2.08-1.63,3.54,0,.88.26,1.57.81,2.1.55.52,1.22.95,2.03,1.28.81.3,2.28.78,4.41,1.44,1.71.53,3.3,1.16,4.75,1.88,1.45.69,2.74,1.72,3.87,3.09,1.16,1.37,1.73,3.09,1.71,5.17-.01,1.85-.53,3.48-1.55,4.9-1.01,1.42-2.4,2.51-4.16,3.27-1.72.76-3.62,1.14-5.7,1.12Z"/><path d="M485.52,293.68c.1.29.14.55.14.78,0,.81-.35,1.44-1.04,1.89-.65.42-1.43.62-2.34.61-.71,0-1.33-.16-1.84-.45-.52-.3-.85-.74-1.01-1.32l-1.79-6.72-11.23-.14c-.23.78-.47,1.52-.7,2.23-.2.68-.38,1.31-.55,1.89l-.75,2.48c-.2.61-.56,1.06-1.08,1.35-.49.32-1.07.48-1.75.47-.91,0-1.7-.24-2.38-.7-.64-.46-.96-1.06-.96-1.81,0-.16.04-.44.1-.83,0,0,2.36-6.89,7.06-20.66l1.74-5.19c.7-2.1,1.45-3.6,2.27-4.51.82-.9,1.87-1.35,3.17-1.34,1.26,0,2.26.42,3,1.24.74.82,1.43,2.23,2.06,4.25,1.36,4.22,2.96,9.54,4.79,15.94h1.36c.68.02,1.21.25,1.6.71.39.46.58,1.12.57,2-.01,1.82-.59,2.72-1.72,2.71h-.24s1.52,5.12,1.52,5.12ZM476.17,283.01c-.94-3.64-1.76-6.66-2.46-9.06-.06-.23-.13-.42-.19-.59-.06-.16-.11-.32-.14-.49-.25-.91-.46-1.57-.62-2-.16-.42-.32-.63-.48-.64-.16,0-.33.21-.49.63-.17.42-.33.94-.5,1.55-.17.65-.28,1.07-.35,1.26l-2.84,9.22,8.07.11Z"/><path d="M418.55,296.27c-.84,0-1.55-.21-2.13-.6-.55-.43-.82-.95-.81-1.56l.25-32.14c0-.78.27-1.38.79-1.79.56-.45,1.27-.67,2.15-.66.88,0,1.59.24,2.13.7.58.46.87,1.06.86,1.81l-.21,14.83c4.2-2.53,7.88-4.72,11.04-6.57.52-.32,1.06-.48,1.61-.47.62,0,1.16.32,1.64.94.48.59.72,1.25.72,2,0,.42-.12.76-.35,1.02-.23.26-.6.55-1.13.87l-12.6,7.49,12.81,9.68c.48.36.72.9.72,1.61,0,.75-.29,1.38-.84,1.89-.55.48-1.19.72-1.9.72-.68,0-1.39-.27-2.13-.8-.87-.65-2.5-1.96-4.88-3.93-.61-.49-1.32-1.05-2.13-1.67-.77-.65-1.66-1.37-2.66-2.16l-.05,6.66c0,.65-.29,1.18-.84,1.6-.52.38-1.21.57-2.05.57Z"/><path d="M397.71,295.77c-2.46-.02-4.63-.54-6.51-1.56-1.84-1.05-3.25-2.47-4.24-4.26-.99-1.82-1.48-3.89-1.46-6.18.02-2.4.56-4.58,1.61-6.55,1.09-2,2.59-3.58,4.51-4.73,1.95-1.15,4.18-1.72,6.67-1.7,2.66.02,4.96.69,6.89,2,1.97,1.31,3.35,2.94,4.14,4.89.19.49.28.93.28,1.31,0,.91-.64,1.52-1.91,1.83-.33.1-.65.14-.97.14-.55,0-1-.15-1.36-.45-.35-.33-.72-.81-1.11-1.47-.54-1.04-1.28-1.91-2.22-2.59-.93-.69-2.08-1.04-3.44-1.05-1.39-.01-2.63.37-3.7,1.14-1.08.74-1.93,1.75-2.55,3.04-.59,1.29-.9,2.71-.91,4.27-.02,2.2.55,3.97,1.71,5.31,1.19,1.3,2.92,1.97,5.19,1.99,2.14.02,3.75-.52,4.83-1.62,1.11-1.13,1.69-2.4,1.73-3.83,0-.49.23-.91.69-1.26.46-.35,1.06-.53,1.8-.52.91,0,1.6.19,2.09.55.48.36.72.98.72,1.85-.01,1.56-.46,3.06-1.35,4.51-.85,1.45-2.21,2.64-4.06,3.57-1.86.93-4.21,1.38-7.06,1.36Z"/><path d="M369.39,295.94c-2.85-.02-5.28-.59-7.28-1.71-1.97-1.15-3.45-2.68-4.44-4.6-.99-1.95-1.47-4.13-1.46-6.53.02-2.4.59-4.55,1.7-6.45,1.15-1.94,2.7-3.43,4.65-4.49,1.99-1.09,4.21-1.62,6.67-1.6,2.24.02,4.24.47,6.02,1.36,1.78.89,3.18,2.15,4.2,3.78,1.02,1.63,1.53,3.51,1.51,5.65-.01,1.26-.23,2.17-.65,2.72-.39.51-1.14.77-2.24.76l-16.68.02c0,.91.29,1.85.9,2.83.61.98,1.51,1.81,2.7,2.5,1.2.66,2.6.99,4.22,1,1.1.01,2.03-.11,2.78-.37.78-.29,1.41-.62,1.9-1.01.49-.38,1.06-.92,1.71-1.59.49-.48,1.03-.72,1.61-.72.62,0,1.2.25,1.74.74.58.49.87,1.04.86,1.66,0,.45-.18.95-.54,1.5-.79,1.16-1.98,2.22-3.58,3.18-1.56.93-3.67,1.38-6.33,1.36ZM375.49,280.91c.26,0,.42-.04.49-.14.1-.1.15-.27.15-.53.01-1.49-.64-2.73-1.97-3.71-1.32-.98-2.97-1.48-4.95-1.5-1.52-.01-2.89.32-4.09.99-1.17.64-2.08,1.44-2.74,2.41-.62.94-.94,1.77-.94,2.52l14.05-.04Z"/><path d="M350.9,276.93c.75,3.12,1.1,8.48,1.04,16.1,0,.68-.28,1.23-.84,1.65-.56.38-1.25.57-2.09.57-.88,0-1.6-.22-2.18-.65-.55-.46-.82-1.09-.81-1.9.03-3.99,0-7.2-.12-9.63-.08-2.43-.27-4.28-.59-5.55-.47-1.82-1.54-2.73-3.19-2.75-2.04-.01-3.57.77-4.59,2.35-1.02,1.55-1.53,3.49-1.55,5.82l-.08,10.11c0,.58-.3,1.08-.89,1.5-.59.38-1.28.57-2.09.57-.81,0-1.51-.21-2.09-.6-.55-.43-.82-.95-.81-1.56.05-6.38.18-12.62.39-18.71.16-3.86.39-8.13.68-12.83l.11-1.9c.07-.75.37-1.34.89-1.79s1.22-.67,2.1-.66c.84,0,1.51.22,1.99.65.52.39.76.93.72,1.61l-.78,12.49-.06,1.02c.79-.84,1.76-1.51,2.93-2.02,1.2-.51,2.58-.76,4.14-.75,2.17.02,3.87.58,5.09,1.69,1.25,1.11,2.15,2.84,2.68,5.17Z"/><path d="M311.49,295.1c-2.46-.02-4.63-.54-6.5-1.56-1.84-1.05-3.25-2.47-4.25-4.26-.99-1.82-1.48-3.88-1.46-6.18.02-2.4.56-4.58,1.61-6.55,1.09-2,2.59-3.58,4.51-4.73,1.95-1.15,4.18-1.72,6.68-1.7,2.66.02,4.95.69,6.89,2,1.97,1.31,3.35,2.94,4.14,4.89.19.49.28.93.28,1.31,0,.91-.64,1.52-1.91,1.83-.33.09-.65.14-.97.14-.55,0-1-.15-1.36-.45-.35-.33-.72-.82-1.11-1.47-.54-1.04-1.28-1.91-2.22-2.59-.93-.69-2.08-1.04-3.44-1.05-1.39-.01-2.63.37-3.7,1.14-1.08.74-1.93,1.75-2.55,3.04-.59,1.29-.9,2.71-.91,4.27-.02,2.2.55,3.98,1.71,5.31,1.19,1.31,2.92,1.97,5.19,1.99,2.14.02,3.75-.52,4.83-1.62,1.11-1.12,1.69-2.4,1.73-3.83,0-.49.23-.91.69-1.26.46-.35,1.06-.53,1.8-.52.91,0,1.6.19,2.09.55.48.36.72.98.72,1.85-.01,1.56-.46,3.06-1.35,4.51-.85,1.45-2.21,2.64-4.06,3.57-1.86.93-4.21,1.38-7.06,1.36Z"/><path d="M266.31,295.14c-2.85-.02-5.28-.59-7.28-1.71-1.97-1.15-3.45-2.68-4.44-4.6-.99-1.95-1.47-4.13-1.46-6.53.02-2.4.59-4.55,1.7-6.45,1.15-1.94,2.7-3.43,4.66-4.49,1.99-1.09,4.21-1.62,6.67-1.6,2.24.02,4.24.47,6.02,1.36,1.77.89,3.18,2.15,4.2,3.78,1.03,1.63,1.53,3.51,1.51,5.65-.01,1.26-.23,2.17-.65,2.72-.39.52-1.14.77-2.24.76l-16.68.02c0,.91.29,1.85.9,2.83.61.98,1.51,1.81,2.7,2.5,1.19.66,2.6.99,4.22,1,1.1,0,2.03-.11,2.78-.37.78-.29,1.41-.62,1.9-1.01.49-.38,1.06-.92,1.71-1.59.49-.48,1.03-.72,1.61-.72.62,0,1.2.25,1.74.74.58.49.87,1.05.86,1.66,0,.45-.19.95-.55,1.5-.79,1.16-1.98,2.22-3.57,3.18-1.56.93-3.67,1.38-6.33,1.36ZM272.41,280.12c.26,0,.42-.04.49-.14.1-.1.15-.28.15-.53.01-1.49-.64-2.73-1.97-3.71-1.32-.98-2.97-1.48-4.95-1.5-1.52-.01-2.89.32-4.09.99-1.17.64-2.09,1.44-2.74,2.41-.62.93-.94,1.77-.94,2.52l14.05-.04Z"/><path d="M238.69,294.93c-2.24-.02-4.19-.57-5.87-1.65-1.68-1.08-2.9-2.49-3.66-4.21-.22-.55-.32-.98-.28-1.27.07-.58.4-1.12.98-1.6.59-.48,1.22-.72,1.9-.71.45,0,.81.12,1.07.35.26.2.55.49.87.88.9,1.17,1.7,2.04,2.41,2.6.71.52,1.6.79,2.67.8,1,0,1.85-.21,2.53-.66.72-.45,1.08-1.05,1.08-1.79,0-.81-.38-1.43-1.15-1.86-.74-.46-1.95-.99-3.63-1.58-1.71-.6-3.1-1.16-4.17-1.69-1.03-.53-1.93-1.28-2.7-2.26-.74-1.01-1.1-2.28-1.09-3.8.01-1.49.44-2.8,1.29-3.93.85-1.13,1.99-1.99,3.42-2.6,1.46-.6,3.05-.9,4.77-.89,1.82.01,3.39.37,4.71,1.06,1.36.69,2.39,1.61,3.09,2.75.7,1.11,1.05,2.31,1.04,3.61,0,.81-.22,1.41-.65,1.79-.39.38-1.06.58-2,.57-.91,0-1.52-.16-1.85-.45-.29-.29-.48-.7-.57-1.22-.21-2.17-1.48-3.27-3.81-3.29-1.17,0-2.04.25-2.63.76-.59.48-.88,1.06-.89,1.74,0,.81.38,1.44,1.15,1.9.77.46,2.02.99,3.73,1.59,1.65.53,3.01,1.06,4.07,1.59,1.07.53,1.97,1.28,2.7,2.26.77.98,1.15,2.23,1.14,3.75-.01,1.72-.51,3.14-1.49,4.27-.95,1.1-2.17,1.91-3.66,2.45-1.46.51-2.97.76-4.53.74Z"/><path d="M222.63,289.75c.55.1.97.31,1.26.64.32.3.48.83.47,1.61,0,.68-.19,1.25-.55,1.7-.36.45-.83.67-1.41.67-1.39-.01-2.45-.2-3.16-.56-.71-.36-1.34-1.03-1.88-2.01-1.38,2.03-3.85,3.03-7.41,3-3.73-.03-6.51-1.14-8.34-3.32-1.83-2.22-2.73-5.11-2.7-8.67.02-2.37.5-4.5,1.46-6.41.99-1.9,2.38-3.4,4.17-4.49,1.79-1.09,3.85-1.62,6.19-1.6,1.33.01,2.53.29,3.59.85,1.07.53,1.87,1.23,2.41,2.11l.15-1.02c.04-.45.25-.84.64-1.16.39-.32,1.01-.48,1.85-.47.97,0,1.67.24,2.09.7.45.46.62,1.03.52,1.71-.2,1.04-.43,2.86-.67,5.49-.11,1.3-.17,2.97-.18,5.01l-.02,2.29c-.01,1.36.06,2.35.22,2.97.16.58.59.91,1.3.98ZM215.37,285.7c.04-1.39.07-3.42.1-6.08.01-1.49-.47-2.65-1.43-3.46-.93-.82-2.02-1.23-3.25-1.24-1.78-.01-3.22.75-4.3,2.3-1.08,1.55-1.63,3.41-1.65,5.58-.02,2.1.44,3.86,1.37,5.26.93,1.4,2.3,2.11,4.12,2.12,1.49.01,2.69-.37,3.61-1.14.91-.77,1.39-1.88,1.44-3.34Z"/><path d="M182.74,294.49c-2.85-.02-5.28-.59-7.28-1.71-1.97-1.15-3.45-2.68-4.44-4.6-.99-1.95-1.48-4.13-1.46-6.53.02-2.4.59-4.55,1.7-6.45,1.15-1.94,2.7-3.43,4.65-4.49,1.99-1.09,4.21-1.62,6.67-1.6,2.24.02,4.24.47,6.02,1.36,1.78.89,3.18,2.15,4.2,3.78,1.02,1.63,1.53,3.51,1.51,5.65,0,1.26-.23,2.17-.65,2.72-.39.51-1.14.77-2.24.76l-16.68.02c0,.91.29,1.85.9,2.83s1.51,1.81,2.7,2.5c1.19.66,2.6.99,4.22,1,1.1.01,2.03-.11,2.77-.37.78-.29,1.41-.62,1.9-1.01.49-.38,1.06-.92,1.71-1.59.49-.48,1.03-.72,1.61-.72.62,0,1.2.25,1.74.74.58.49.87,1.04.86,1.66,0,.45-.19.95-.55,1.5-.79,1.16-1.98,2.22-3.57,3.18-1.56.93-3.67,1.38-6.33,1.36ZM188.84,279.47c.26,0,.42-.04.49-.14.1-.1.15-.27.15-.53.01-1.49-.64-2.73-1.96-3.71-1.32-.98-2.97-1.48-4.95-1.5-1.52-.01-2.89.32-4.09.99-1.17.64-2.09,1.44-2.74,2.41-.62.94-.94,1.78-.94,2.52l14.05-.04Z"/><path d="M160.79,293.5c-.88,0-1.59-.24-2.13-.7-.51-.49-.77-1.11-.76-1.85l-.04-32.97c0-.78.29-1.39.84-1.84.59-.48,1.33-.72,2.24-.71.88,0,1.57.24,2.09.7.55.46.82,1.08.81,1.85v33.01c-.02.78-.32,1.39-.9,1.84-.59.45-1.3.67-2.14.66Z"/><path d="M138.77,259.73c2.56.02,4.91.52,7.04,1.51,2.16.96,3.87,2.3,5.12,4.03,1.25,1.73,1.87,3.69,1.85,5.9-.02,2.07-.6,3.92-1.74,5.53-1.11,1.61-2.65,2.86-4.6,3.76-1.95.89-4.14,1.33-6.57,1.31-1.2-.01-2.35-.12-3.45-.32-1.1-.23-2.02-.5-2.77-.8l-.23,10.74c0,.81-.29,1.47-.84,1.99-.55.48-1.3.72-2.24.71-.94,0-1.68-.26-2.23-.75-.51-.52-.77-1.21-.76-2.05,0-.84.05-2.37.13-4.57.09-2.92.14-5.49.16-7.73.03-4.15-.02-7.81-.16-10.99l-.15.1c-.33.16-.6.24-.83.24-.52,0-.95-.28-1.31-.84-.32-.56-.48-1.2-.47-1.95,0-.55.17-.99.5-1.31.36-.35.9-.75,1.61-1.2l.54-.29v-.68c.01-.97.26-1.68.75-2.13.52-.48,1.32-.72,2.39-.71,1.07,0,1.81.13,2.23.36.45.23.68.49.67.78v.05c1.85-.47,3.64-.7,5.35-.69ZM138.89,276.84c2.07.02,3.78-.54,5.12-1.66s2.01-2.55,2.03-4.26c.01-1.75-.69-3.16-2.11-4.25-1.42-1.11-3.2-1.68-5.34-1.69-1.39-.01-3.1.27-5.11.84.05,1.62.08,2.61.07,2.97,0,1.26.01,2.87.06,4.81.06.97.08,1.67.08,2.09.65.33,1.45.61,2.42.85.97.2,1.89.31,2.77.31Z"/><path d="M553.93,382.92c-.07.39-.15.87-.22,1.45-.04.58-.1,1.16-.18,1.75-.04.58-.07,1.09-.07,1.51-.05,1-.09,2.15-.11,3.45.01,1.26.02,2.6.03,3.99.04,1.36.11,2.72.22,4.09.21,2.69.61,5.07,1.19,7.12.58,2.02,1.3,3.61,2.15,4.76.89,1.15,1.9,1.73,3.03,1.76.62.01,1.22-.26,1.82-.79.59-.57,1.16-1.32,1.69-2.26.57-.96,1.07-2.02,1.52-3.18.48-1.19.87-2.38,1.18-3.58l3,3.51c-1.02,2.74-2.05,4.91-3.08,6.51-1,1.57-2.03,2.7-3.08,3.4-1.02.69-2.08,1.03-3.18,1.01-1.52-.03-2.99-.61-4.39-1.73-1.4-1.16-2.6-3-3.6-5.51-.99-2.55-1.68-5.91-2.06-10.1-.14-1.43-.24-2.97-.31-4.63-.03-1.65-.05-3.23-.06-4.72.03-1.49.05-2.71.07-3.64,0-.55,0-1.26-.01-2.14-.02-.88-.1-1.61-.25-2.19l4.71.18ZM579.24,384.74c.85,1.12,1.66,2.43,2.41,3.93.78,1.47,1.48,3.06,2.1,4.75.65,1.67,1.22,3.39,1.71,5.18.52,1.79.92,3.58,1.22,5.37.32,1.76.55,3.45.69,5.07l-3.92,1.54c-.16-2.21-.46-4.45-.9-6.73-.44-2.31-1-4.54-1.68-6.69-.67-2.19-1.46-4.24-2.37-6.17-.91-1.93-1.93-3.6-3.07-5.02l3.82-1.24Z"/><path d="M519.96,381.78c-.15-.52-.34-1.12-.55-1.81-.18-.68-.38-1.35-.6-2l4.14-.46c.15.94.35,2.02.62,3.22.27,1.17.59,2.38.96,3.62.37,1.21.74,2.33,1.11,3.38.71,2.12,1.61,4.24,2.71,6.37,1.1,2.09,2.14,3.86,3.11,5.31.35.46.7.9,1.05,1.33s.7.85,1.05,1.28l-2.04,2.69c-.58-.14-1.36-.28-2.33-.43-.94-.15-1.97-.28-3.11-.4-1.1-.15-2.2-.28-3.3-.4-1.1-.12-2.09-.21-2.96-.3l.35-3.25c.91.08,1.86.18,2.86.29,1.04.12,2.01.23,2.91.34.94.08,1.7.16,2.28.23-.66-1.05-1.37-2.24-2.12-3.59-.75-1.38-1.49-2.81-2.21-4.32-.68-1.54-1.29-3.04-1.82-4.51-.49-1.44-.91-2.71-1.24-3.82-.34-1.11-.63-2.04-.88-2.79ZM502.1,385.25c2.72.37,5.34.65,7.86.82,2.56.18,4.97.25,7.24.23,2.3-.02,4.38-.12,6.23-.28,1.3-.14,2.66-.31,4.09-.51,1.46-.2,2.91-.47,4.34-.8,1.43-.33,2.78-.68,4.06-1.05l.37,3.8c-1.14.34-2.39.62-3.76.85-1.37.23-2.73.45-4.1.66-1.37.2-2.65.36-3.85.47-3.09.3-6.54.43-10.37.4-3.79-.03-7.82-.27-12.1-.7l-.03-3.89ZM509.31,400.89c-.73,1.15-1.32,2.28-1.76,3.37-.41,1.06-.62,2.18-.64,3.34-.04,2.3.93,4,2.92,5.11,1.99,1.11,4.78,1.71,8.38,1.8,2.49.08,4.78.02,6.86-.17,2.11-.19,4.01-.46,5.7-.82l-.26,3.89c-1.5.23-3.28.44-5.36.63-2.08.19-4.48.26-7.2.21-3.08-.09-5.75-.52-8-1.31-2.22-.78-3.94-1.92-5.14-3.4-1.2-1.51-1.79-3.37-1.75-5.58.02-1.33.26-2.64.7-3.93.48-1.32,1.07-2.69,1.78-4.1l3.78.94Z"/><path d="M466.01,377.75c-.17.51-.35,1.16-.52,1.93-.17.78-.32,1.4-.42,1.89-.25,1.16-.55,2.52-.9,4.07-.32,1.52-.69,3.12-1.11,4.79-.39,1.68-.82,3.32-1.3,4.94-.45,1.71-1,3.58-1.66,5.61-.65,2-1.34,4.01-2.05,6.04-.72,2.03-1.45,3.95-2.19,5.75-.75,1.8-1.44,3.38-2.08,4.73l-4.25-1.54c.77-1.25,1.54-2.74,2.32-4.48.81-1.74,1.59-3.6,2.34-5.6.78-2,1.5-3.98,2.15-5.94.68-2,1.27-3.85,1.75-5.56.31-1.13.63-2.32.94-3.58.32-1.26.61-2.49.89-3.68.31-1.23.56-2.34.74-3.34.21-1.04.37-1.87.48-2.52.11-.68.19-1.39.23-2.14.05-.75.04-1.36-.02-1.85l4.66.47ZM455.07,385.62c1.82.03,3.76-.01,5.84-.14,2.11-.16,4.25-.39,6.43-.71,2.18-.32,4.28-.7,6.29-1.15l-.07,3.79c-2.02.42-4.13.77-6.34,1.05-2.21.29-4.39.5-6.53.66-2.11.13-4.02.17-5.74.14-1.07-.02-2.06-.05-2.97-.1-.91-.08-1.8-.15-2.67-.19l-.08-3.79c1.16.15,2.2.27,3.11.35.94.05,1.85.08,2.72.1ZM470.31,392.6c1.3-.11,2.71-.18,4.23-.22,1.56-.07,3.11-.09,4.67-.06,1.43.03,2.85.08,4.28.17,1.46.09,2.83.23,4.13.41l-.16,3.69c-1.23-.18-2.54-.34-3.93-.46-1.39-.15-2.8-.24-4.23-.27-1.56-.03-3.08,0-4.57.06-1.49.04-2.99.14-4.48.31l.06-3.65ZM471.12,404.44c-.21.81-.38,1.58-.53,2.33-.14.71-.22,1.39-.23,2.04-.01.58.07,1.15.26,1.71.22.52.62,1,1.19,1.43.58.43,1.4.79,2.46,1.07,1.1.28,2.5.43,4.22.46,1.56.03,3.14-.02,4.77-.16,1.66-.13,3.23-.35,4.73-.64l-.22,3.94c-1.3.17-2.75.31-4.34.41-1.59.13-3.28.18-5.06.15-3.82-.07-6.75-.72-8.77-1.95-2.02-1.24-3.01-3.05-2.97-5.45.02-.94.1-1.86.24-2.77.15-.94.34-1.92.59-2.96l3.64.41ZM482.61,379.5c.41.56.85,1.25,1.32,2.07.47.82.93,1.64,1.37,2.46.47.82.87,1.57,1.18,2.26l-2.65,1.12c-.28-.68-.65-1.44-1.13-2.26-.44-.82-.89-1.64-1.37-2.46-.44-.82-.88-1.52-1.32-2.12l2.6-1.07ZM487.99,377.61c.44.62.92,1.35,1.42,2.16.5.82.97,1.64,1.41,2.46.47.82.86,1.54,1.18,2.16l-2.65,1.12c-.5-1.11-1.11-2.29-1.83-3.53-.72-1.28-1.42-2.38-2.08-3.3l2.55-1.07Z"/><path d="M431.51,378.78c-.53.38-1.12.85-1.78,1.43-.66.54-1.2.97-1.63,1.28-.85.73-1.89,1.59-3.11,2.57-1.22.95-2.5,1.97-3.85,3.04-1.35,1.05-2.65,2.06-3.9,3.04-1.25.95-2.33,1.81-3.26,2.57-.99.82-1.65,1.51-1.98,2.05-.33.51-.34,1.05-.03,1.6.35.56,1.03,1.3,2.05,2.22.89.73,1.92,1.59,3.07,2.59,1.15.96,2.36,2,3.64,3.13,1.31,1.13,2.63,2.29,3.97,3.48,1.34,1.19,2.63,2.36,3.88,3.52,1.24,1.16,2.36,2.26,3.34,3.32l-3.51,3.15c-.98-1.19-2.08-2.39-3.29-3.61-.83-.89-1.86-1.93-3.1-3.12-1.24-1.19-2.58-2.43-4.02-3.72-1.4-1.29-2.81-2.53-4.21-3.72-1.37-1.22-2.62-2.32-3.73-3.28-1.53-1.32-2.5-2.48-2.91-3.46-.4-1.01-.3-2,.3-2.96.6-.96,1.64-2.03,3.12-3.2.92-.76,2.02-1.65,3.31-2.66,1.31-1.01,2.68-2.07,4.09-3.18,1.41-1.14,2.75-2.23,4-3.28,1.28-1.08,2.34-2.03,3.16-2.86.49-.48,1.01-1.02,1.54-1.62.56-.61.99-1.13,1.29-1.58l3.54,3.27Z"/><path d="M354.21,380.99c.94-.02,1.78-.03,2.53-.05.75-.05,1.35-.09,1.8-.11.78-.08,1.9-.18,3.36-.28,1.49-.14,3.2-.27,5.11-.4,1.92-.16,3.98-.32,6.18-.47,2.21-.16,4.43-.31,6.67-.46,1.79-.13,3.47-.23,5.06-.3,1.59-.1,3.07-.17,4.43-.21,1.36-.07,2.58-.12,3.65-.13l-.07,3.89c-.91-.05-1.94-.07-3.11-.05-1.17.01-2.32.07-3.46.18-1.14.08-2.13.24-2.98.48-1.73.52-3.3,1.33-4.71,2.44-1.38,1.08-2.57,2.34-3.57,3.78-1,1.41-1.77,2.9-2.32,4.48-.51,1.55-.78,3.03-.81,4.46-.03,1.91.26,3.59.88,5.02.62,1.41,1.48,2.6,2.56,3.6,1.12.99,2.38,1.81,3.8,2.45,1.45.64,2.96,1.12,4.55,1.44,1.58.32,3.17.53,4.75.62l-1.48,4.01c-1.78-.1-3.59-.39-5.43-.88-1.81-.45-3.53-1.1-5.17-1.94-1.64-.87-3.09-1.95-4.37-3.24-1.27-1.29-2.27-2.78-2.98-4.48-.72-1.7-1.05-3.63-1.01-5.81.04-2.53.52-4.85,1.44-6.98.95-2.15,2.13-4.03,3.55-5.63,1.42-1.59,2.89-2.82,4.39-3.66-1.04.11-2.32.23-3.85.37-1.53.13-3.18.28-4.97.45-1.75.13-3.51.29-5.26.49-1.75.2-3.41.39-4.97.59-1.53.17-2.81.35-3.85.56l-.36-4.24Z"/><path d="M319.57,374.77c-.14.81-.26,1.63-.34,2.47-.08.81-.14,1.62-.19,2.43-.09,1.36-.18,3.04-.29,5.05-.1,2.01-.2,4.14-.31,6.41-.11,2.24-.19,4.47-.27,6.71-.07,2.24-.13,4.25-.16,6.03-.03,1.78.28,3.21.94,4.29.66,1.08,1.59,1.86,2.78,2.34,1.19.48,2.56.73,4.12.76,2.2.04,4.2-.2,5.99-.72,1.79-.55,3.4-1.28,4.81-2.2,1.41-.95,2.66-2.01,3.75-3.19,1.12-1.18,2.13-2.39,3.03-3.64l2.71,3.35c-.87,1.15-1.92,2.35-3.18,3.59-1.22,1.21-2.67,2.34-4.34,3.38-1.67,1.04-3.6,1.88-5.78,2.52-2.15.64-4.55.94-7.21.89-2.3-.04-4.34-.43-6.11-1.18-1.77-.75-3.14-1.92-4.12-3.53-.98-1.61-1.44-3.72-1.39-6.35.03-1.46.07-3.06.14-4.81.06-1.78.15-3.61.24-5.49.1-1.88.18-3.71.25-5.49.06-1.81.13-3.48.19-5,.06-1.52.1-2.79.12-3.79.02-.91,0-1.78-.05-2.63-.05-.84-.13-1.62-.25-2.34l4.91.14Z"/><path d="M284.56,374.58l3.35.06c-.26,1.94-.65,3.88-1.17,5.81-.52,1.9-1.23,3.72-2.14,5.46-.91,1.73-2.09,3.33-3.54,4.8-1.45,1.43-3.26,2.66-5.42,3.7-.19-.39-.5-.85-.95-1.38-.41-.53-.79-.94-1.14-1.24,1.99-.87,3.65-1.94,4.97-3.22,1.32-1.3,2.38-2.71,3.19-4.22.81-1.54,1.42-3.14,1.84-4.78.45-1.68.79-3.34,1.01-4.99ZM275.54,381.37l1.8-2.54c1.68.61,3.41,1.34,5.21,2.18,1.8.81,3.49,1.67,5.06,2.57,1.6.87,2.94,1.69,3.99,2.46l-1.85,2.84c-1.06-.8-2.38-1.67-3.99-2.6-1.57-.94-3.26-1.84-5.06-2.72-1.77-.88-3.49-1.6-5.16-2.18ZM296.06,373.47l3.45.06s0,.1,0,.29c0,.16,0,.37-.01.63,0,.23,0,.42-.01.58-.23,3.82-.46,6.91-.7,9.27s-.5,4.16-.78,5.38c-.28,1.23-.64,2.06-1.07,2.51-.36.48-.78.81-1.23,1-.46.19-1.03.31-1.71.36-.59.05-1.4.07-2.43.05-1-.05-2.09-.12-3.25-.2-.02-.49-.11-1.04-.26-1.66-.15-.65-.37-1.21-.65-1.67,1.13.12,2.17.2,3.11.25.94.02,1.6.03,1.99.04.71.08,1.23-.07,1.56-.46.3-.32.55-1.03.77-2.13.25-1.1.47-2.75.67-4.95.2-2.2.38-5.13.55-8.79v-.58ZM280.72,399.07l3.35.06-.21,11.76c-.01.58.08.96.27,1.12.19.16.63.25,1.31.27.13,0,.41,0,.83.02.42,0,.88.01,1.36.02.52,0,.99.02,1.41.02.42,0,.75.01.97.02.42,0,.75-.1.98-.32.23-.25.4-.77.51-1.55.11-.78.2-1.99.26-3.64.22.2.51.4.86.6.35.17.73.32,1.11.46.38.14.74.26,1.06.36-.13,1.98-.35,3.49-.66,4.56-.31,1.1-.78,1.84-1.4,2.21-.59.41-1.4.61-2.44.59-.16,0-.5-.01-1.02-.02-.52-.01-1.07-.02-1.65-.03-.58-.01-1.13-.02-1.65-.03-.49,0-.84-.01-1.07-.02-1.2-.02-2.14-.17-2.81-.44-.64-.27-1.07-.75-1.29-1.43-.21-.68-.31-1.61-.29-2.78l.21-11.81ZM276.07,400.64l2.9.83c-.19,1.42-.46,2.86-.81,4.31-.32,1.45-.76,2.82-1.34,4.11-.58,1.25-1.29,2.33-2.15,3.22l-2.69-1.8c.79-.8,1.44-1.76,1.95-2.88.54-1.16.98-2.4,1.33-3.72.35-1.36.62-2.71.8-4.07ZM281.57,394.66l2.23-2.1c1.06.54,2.13,1.19,3.22,1.95,1.09.77,2.11,1.55,3.07,2.34.96.8,1.72,1.54,2.3,2.23l-2.28,2.39c-.57-.69-1.32-1.45-2.24-2.28-.92-.83-1.93-1.62-3.02-2.39-1.09-.8-2.18-1.52-3.27-2.15ZM292.83,401.28l2.99-1.16c.85,1.22,1.64,2.53,2.36,3.93.75,1.37,1.38,2.75,1.87,4.12.53,1.37.89,2.61,1.1,3.72l-3.28,1.25c-.17-1.11-.51-2.34-1-3.72-.49-1.37-1.1-2.76-1.82-4.17-.69-1.44-1.42-2.77-2.21-3.98ZM276.08,373.12l21.53.39-.06,3.11-21.53-.39.06-3.11ZM258.25,385.44l13.81.25-.05,2.87-13.81-.25.05-2.87ZM258.68,372.42l13.47.24-.05,2.92-13.47-.24.05-2.92ZM258.14,391.91l13.8.25-.05,2.92-13.81-.25.05-2.92ZM256.18,378.74l17.4.31-.05,3.06-17.4-.31.05-3.06ZM259.67,398.5l12.2.22-.26,14.2-12.2-.22.05-3.01,9.04.16.15-8.12-9.04-.16.05-3.06ZM257.97,398.47l3.11.05-.3,16.43-3.11-.06.29-16.43Z"/><path d="M230.82,393.75l19.01.34-.05,2.82-19.01-.34.05-2.82ZM230.68,401.72l19.01.34-.05,2.87-19.01-.34.05-2.87ZM230.59,409.7l21.24.38-.06,3.11-21.24-.38.06-3.11ZM225.61,375.08l26.59.48-.15,8.36-3.31-.06.09-5.2-20.08-.36-.09,5.2-3.21-.06.15-8.36ZM238.8,388.06l3.4.06-.42,23.43-3.4-.06.42-23.43ZM232.23,385.65l18.57.33-.06,3.16-18.57-.33-.47,26.15-3.45-.06.47-26.05,3.22-3.2h.29ZM237.13,370.28l3.44.74c-1.45,4.9-3.41,9.31-5.88,13.22-2.44,3.91-5.33,7.13-8.68,9.67-.16-.23-.4-.51-.71-.84-.29-.36-.6-.71-.95-1.04-.32-.33-.61-.6-.86-.79,3.25-2.31,6.01-5.26,8.28-8.85,2.3-3.62,4.09-7.66,5.37-12.11ZM242.01,380.04l3.39.89c-.61,1.25-1.23,2.52-1.87,3.81-.61,1.25-1.19,2.33-1.76,3.23l-2.76-.83c.54-.96,1.09-2.12,1.67-3.47.58-1.38,1.02-2.59,1.33-3.62ZM208.39,373.07l17.16.31-.06,3.4-17.16-.31.06-3.4ZM213.04,387.35l10.94.2-.38,21.29-10.94-.2.06-3.21,7.78.14.27-14.83-7.78-.14.06-3.26ZM214.05,374.77l3.49.6c-.55,3.4-1.24,6.69-2.07,9.88-.8,3.16-1.78,6.11-2.93,8.84-1.12,2.74-2.44,5.16-3.97,7.27-.13-.26-.31-.61-.57-1.03-.25-.46-.5-.9-.75-1.33-.25-.46-.49-.82-.71-1.08,1.33-1.82,2.47-3.94,3.42-6.36.98-2.45,1.81-5.09,2.48-7.93.67-2.87,1.21-5.83,1.62-8.87ZM211.54,387.32l3.06.05-.45,25.13-3.06-.05.45-25.13Z"/><path d="M188.08,382.62c.41.62.87,1.38,1.37,2.26.5.89.99,1.78,1.46,2.7.5.89.93,1.64,1.27,2.26l-2.74,1.12c-.31-.68-.7-1.45-1.17-2.31-.47-.88-.96-1.77-1.46-2.65-.47-.92-.91-1.69-1.32-2.31l2.6-1.07ZM193.81,380.54c.41.56.87,1.28,1.37,2.17.54.85,1.06,1.72,1.56,2.61.5.85.91,1.62,1.22,2.31l-2.65,1.12c-.38-.69-.82-1.46-1.32-2.31-.47-.88-.96-1.75-1.46-2.6-.47-.85-.93-1.57-1.37-2.16l2.65-1.12ZM190.76,374.45c-.53.38-1.12.85-1.78,1.43-.66.54-1.2.97-1.63,1.28-.86.73-1.89,1.59-3.11,2.57-1.22.95-2.52,1.97-3.9,3.04-1.35,1.05-2.65,2.06-3.9,3.04-1.25.95-2.32,1.81-3.21,2.57-.99.82-1.66,1.51-2.03,2.05-.33.51-.33,1.05.02,1.6.35.56,1.03,1.3,2.05,2.22.86.73,1.87,1.59,3.02,2.58,1.15.96,2.38,2.01,3.69,3.13,1.31,1.13,2.62,2.29,3.93,3.47,1.34,1.19,2.63,2.37,3.88,3.52s2.37,2.26,3.39,3.32l-3.51,3.15c-.51-.59-1.05-1.2-1.62-1.83-.54-.59-1.1-1.19-1.67-1.78-.83-.89-1.88-1.93-3.15-3.12-1.24-1.19-2.58-2.43-4.02-3.72-1.4-1.29-2.79-2.53-4.16-3.72-1.37-1.23-2.63-2.32-3.78-3.28-1.5-1.32-2.45-2.48-2.86-3.46-.4-1.01-.32-2,.25-2.96.6-.96,1.64-2.03,3.12-3.2.95-.76,2.07-1.65,3.35-2.66,1.31-1.01,2.68-2.07,4.09-3.18,1.41-1.14,2.75-2.24,4-3.28,1.25-1.08,2.29-2.03,3.11-2.86.49-.48,1.02-1.02,1.59-1.62.56-.61.98-1.13,1.24-1.58l3.59,3.27Z"/><path d="M139.08,370.9c0,.16-.04.45-.11.87-.04.42-.08.84-.12,1.26,0,.39-.03.7-.07.92-.04.62-.07,1.46-.09,2.53s-.04,2.24-.06,3.5c-.02,1.26-.05,2.54-.07,3.84,0,1.3,0,2.51-.02,3.65.01,1.13.01,2.09,0,2.87l-3.71-1.91c0-.45.02-1.13.04-2.04.02-.94.04-2.01.06-3.21.02-1.23.03-2.45.02-3.65.02-1.2.03-2.3.01-3.31-.01-1-.03-1.78-.06-2.34-.02-.65-.06-1.26-.11-1.85-.05-.62-.1-1.02-.12-1.22l4.42.08ZM113.15,377.19c1.33.02,2.84.03,4.52.03,1.69-.03,3.47-.07,5.35-.1,1.91-.03,3.84-.04,5.79-.04,1.95,0,3.81,0,5.59,0s3.48.01,5.01.04c1.46.03,2.92.05,4.38.08s2.82.05,4.08.07c1.3.02,2.43.06,3.4.11,1,.02,1.8.03,2.38.04l-.11,3.6c-1.36-.09-3.19-.17-5.49-.24-2.27-.11-5.18-.19-8.75-.26-2.11-.04-4.31-.04-6.61-.02-2.27,0-4.55,0-6.86.02-2.3.02-4.54.08-6.71.17-2.14.06-4.12.14-5.94.23l-.03-3.74ZM138.41,391.8c-.04,2.14-.39,3.93-1.07,5.38-.64,1.45-1.54,2.52-2.68,3.21-1.11.69-2.42,1.03-3.91,1-1-.02-1.99-.2-2.96-.54-.93-.37-1.78-.91-2.55-1.6-.73-.73-1.32-1.6-1.75-2.61-.4-1.05-.59-2.21-.57-3.51.03-1.62.44-3.06,1.24-4.31.8-1.25,1.86-2.23,3.17-2.96,1.34-.72,2.77-1.07,4.3-1.04,1.91.03,3.48.5,4.69,1.4,1.25.87,2.18,2.05,2.81,3.55.62,1.47.92,3.15.88,5.02-.03,1.62-.3,3.27-.82,4.95-.48,1.68-1.29,3.28-2.42,4.82-1.1,1.54-2.6,2.94-4.5,4.2-1.87,1.23-4.24,2.24-7.11,3.03l-3.2-3.27c2.21-.48,4.2-1.11,5.97-1.89,1.76-.78,3.26-1.74,4.48-2.88,1.22-1.15,2.15-2.49,2.8-4.04.68-1.54,1.03-3.32,1.07-5.33.04-2.2-.4-3.8-1.32-4.79s-2.05-1.5-3.38-1.52c-.84-.01-1.64.18-2.39.59-.75.37-1.38.95-1.88,1.72-.47.77-.71,1.69-.73,2.76-.03,1.52.44,2.71,1.39,3.58.99.86,2.15,1.3,3.48,1.33,1,.02,1.87-.24,2.59-.78.72-.57,1.24-1.42,1.55-2.55.35-1.16.4-2.6.18-4.33l2.65,1.41Z"/><path d="M548.87,387.06c0-.27,0-.58,0-.93l-.02-1.18c-.01-.85-.1-1.53-.23-2.05l-.21-.79.82.03,5.42.21-.13.69c-.07.36-.14.83-.21,1.39l-.08.89c-.03.3-.06.59-.1.89-.04.56-.06,1.04-.07,1.44v.02c-.05,1-.09,2.14-.11,3.43.01,1.26.02,2.59.03,3.97.04,1.35.11,2.7.22,4.05l.09.98c.22,2.26.58,4.26,1.08,6.02l.22.72c.52,1.62,1.13,2.89,1.83,3.83.81,1.05,1.66,1.5,2.56,1.52v.61s-.43-.03-.43-.03c-.96-.14-1.84-.72-2.61-1.72-.85-1.15-1.57-2.73-2.15-4.75-.51-1.8-.87-3.84-1.1-6.12l-.09-1c-.11-1.36-.18-2.73-.22-4.09,0-1.39-.01-2.72-.02-3.99.02-1.29.06-2.45.11-3.45,0-.42.03-.92.07-1.51.07-.58.13-1.16.18-1.75.07-.58.15-1.07.22-1.45l-4.71-.18c.15.59.24,1.32.25,2.19.02.88.02,1.59.01,2.14l-.06,3.65c0,1.49.02,3.07.06,4.72.07,1.66.17,3.2.31,4.63.38,4.19,1.06,7.56,2.05,10.1.99,2.51,2.19,4.35,3.6,5.51,1.23.99,2.51,1.55,3.83,1.7l.57.03c1.1.02,2.16-.32,3.18-1.01,1.05-.69,2.08-1.83,3.08-3.4.91-1.4,1.81-3.24,2.7-5.51l.38-1-3-3.51c-.31,1.19-.71,2.39-1.18,3.58l-.34.85c-.35.83-.75,1.61-1.17,2.33l-.41.66c-.41.63-.84,1.16-1.28,1.59l-.22.19c-.52.41-1.05.61-1.59.6v-.61c.43,0,.88-.16,1.39-.62.54-.52,1.07-1.23,1.59-2.12h0s.4-.72.4-.72c.39-.74.75-1.53,1.07-2.38h0s.33-.88.33-.88c.32-.88.6-1.75.82-2.63l.3-1.12,3.99,4.66-.13.33c-1.03,2.76-2.08,4.97-3.14,6.62h0c-1.03,1.61-2.11,2.82-3.25,3.58h0c-1.11.75-2.28,1.13-3.52,1.11-1.68-.03-3.27-.67-4.76-1.86h0c-1.51-1.26-2.76-3.2-3.77-5.76h0c-1.02-2.62-1.71-6.05-2.09-10.27l-.1-1.1c-.09-1.12-.16-2.31-.21-3.56h0c-.03-1.67-.06-3.25-.06-4.74l.06-3.66ZM579.72,384.37c.88,1.15,1.7,2.49,2.46,4.02l.58,1.15c.57,1.16,1.08,2.39,1.55,3.67l.48,1.28c.46,1.28.88,2.61,1.25,3.96.52,1.81.94,3.62,1.23,5.43l.23,1.32c.21,1.31.37,2.58.47,3.81l.04.45-4.34,1.7-.77.3-.06-.83c-.15-2.18-.45-4.4-.89-6.65-.44-2.29-.99-4.5-1.66-6.63-.5-1.62-1.06-3.17-1.69-4.64l-.65-1.45c-.89-1.89-1.89-3.52-2.99-4.89l-.56-.69,4.65-1.52.41-.13.26.34ZM575.42,385.98c1.14,1.41,2.16,3.09,3.07,5.01.91,1.93,1.69,3.98,2.37,6.17.67,2.15,1.24,4.38,1.68,6.69.44,2.28.74,4.52.9,6.73l3.92-1.53c-.13-1.62-.36-3.31-.69-5.07-.29-1.79-.7-3.58-1.22-5.37-.49-1.79-1.06-3.52-1.71-5.18-.62-1.7-1.32-3.28-2.1-4.75-.75-1.51-1.55-2.82-2.41-3.93l-3.81,1.25Z"/><path d="M506.9,407.61c.02-1.16.24-2.28.64-3.34.44-1.09,1.03-2.22,1.76-3.37l-3.78-.94c-.71,1.41-1.3,2.78-1.77,4.1l-.16.48c-.34,1.13-.52,2.28-.55,3.44l.02.81c.1,1.85.68,3.44,1.73,4.76,1.21,1.48,2.92,2.61,5.14,3.4,1.97.69,4.26,1.11,6.87,1.26l1.13.05c2.04.04,3.9,0,5.58-.09l1.62-.12c1.56-.14,2.95-.3,4.18-.46l1.18-.17.27-3.89c-1.69.36-3.6.63-5.71.82-2.08.19-4.36.25-6.86.17-3.37-.09-6.04-.63-8-1.6l-.38-.2c-1.87-1.04-2.84-2.6-2.92-4.69v-.43ZM523.56,377.41c.14.93.35,1.99.62,3.18.27,1.16.58,2.35.94,3.57.11.34.22.68.32,1.01.65-.08,1.32-.17,2.01-.27l1.08-.16c1.08-.17,2.15-.38,3.2-.63l2.07-.51c.67-.17,1.32-.35,1.95-.53l.7-.2.07.73.42,4.3-.48.14c-.88.26-1.81.48-2.81.68l-1.02.19c-.68.12-1.37.23-2.06.34l-2.05.32c-.5.07-1,.14-1.48.2.53,1.34,1.15,2.68,1.84,4.02l.81,1.5c.79,1.43,1.55,2.68,2.27,3.74.34.45.68.88,1.02,1.3l1.05,1.28.3.37-2.33,3.07-.24.32-.38-.09c-.56-.13-1.31-.27-2.28-.42h0c-.93-.15-1.95-.28-3.07-.39h-.02c-.55-.08-1.09-.15-1.64-.21l-1.64-.19c-1.1-.12-2.08-.21-2.95-.3l-.61-.06.06-.61.41-3.85.6.05c.91.08,1.87.18,2.87.29,1.03.12,2,.23,2.91.34.38.03.73.07,1.06.1-.47-.78-.97-1.63-1.49-2.55h0c-.76-1.39-1.5-2.84-2.22-4.35h0c-.43-.99-.83-1.95-1.2-2.9-2.03.13-4.19.2-6.49.2h-1.42c-3.81-.04-7.86-.28-12.15-.71l-.54-.06-.04-5.14.69.1c2.7.37,5.31.64,7.82.82l1.88.11c1.85.09,3.62.13,5.31.11l1.68-.03c.57-.01,1.11-.04,1.65-.06l-.27-.86c-.34-1.11-.62-2.03-.87-2.78v-.02c-.16-.51-.34-1.12-.56-1.8v-.02c-.19-.67-.38-1.33-.59-1.97l-.23-.71.75-.08,4.72-.52.09.58ZM518.81,377.96c.22.65.42,1.32.6,2,.21.68.4,1.29.55,1.81.25.75.54,1.68.88,2.79.15.5.32,1.04.5,1.6-1.29.07-2.66.12-4.13.13h-1.73c-1.17-.02-2.38-.05-3.62-.12l-1.89-.11c-2.53-.17-5.15-.45-7.86-.82l.03,3.89c3.74.38,7.29.61,10.66.68l1.43.02c3,.03,5.77-.05,8.31-.23.41,1.07.86,2.16,1.36,3.27.72,1.5,1.45,2.94,2.21,4.32.75,1.34,1.46,2.54,2.12,3.59-.29-.04-.63-.07-1.01-.12l-1.27-.12-2.91-.34c-1-.12-1.96-.21-2.86-.3l-.35,3.25c.87.08,1.86.18,2.96.3,1.1.12,2.2.25,3.3.4,1.13.12,2.17.25,3.11.4.48.07.92.15,1.31.22l1.02.21,2.04-2.69-1.05-1.28c-.35-.43-.7-.87-1.05-1.33-.73-1.08-1.5-2.35-2.3-3.8l-.81-1.51c-.83-1.6-1.55-3.21-2.15-4.81.09-.01.17-.01.26-.02l1.99-.27c.68-.1,1.37-.21,2.05-.32l2.05-.34c1.03-.18,1.99-.38,2.88-.61l.88-.24-.37-3.8c-1.27.37-2.62.72-4.05,1.05l-1.08.24c-1.08.22-2.17.41-3.27.56-.86.12-1.7.23-2.52.33-.16-.49-.31-.98-.47-1.5-.37-1.24-.69-2.44-.96-3.62-.27-1.2-.48-2.28-.62-3.22l-4.14.46ZM507.51,407.62c-.02,1.06.19,1.95.62,2.69.43.74,1.08,1.37,1.99,1.88l.36.19c1.85.92,4.41,1.45,7.74,1.54l1.82.03c1.78,0,3.43-.06,4.97-.2l1.53-.16c1.49-.17,2.86-.39,4.11-.65l.79-.17-.06.8-.3,4.37-.48.07c-1.13.18-2.43.34-3.89.49l-1.51.15c-2.1.19-4.53.26-7.27.21h0c-3.12-.09-5.85-.53-8.18-1.35-2.3-.81-4.12-2-5.42-3.59h0c-1.3-1.64-1.92-3.64-1.88-5.97.02-1.39.27-2.77.73-4.11h0s.39-1.03.39-1.03c.41-1.03.88-2.07,1.42-3.15l.22-.44.47.12,4.59,1.15-.45.71c-.72,1.12-1.29,2.21-1.71,3.26h0c-.38,1-.58,2.04-.6,3.14Z"/><path d="M461.41,376.67l5.41.55-.24.72c-.08.25-.16.52-.25.84l-.26,1.04c-.18.77-.32,1.4-.42,1.88-.18.82-.39,1.74-.61,2.76.73-.09,1.47-.18,2.21-.29l1.61-.25c1.59-.26,3.14-.56,4.64-.9l.75-.17-.09,5.05-.48.1c-2.03.42-4.16.78-6.39,1.06-1.14.15-2.27.27-3.39.39-.09.37-.17.75-.27,1.12-.39,1.68-.82,3.33-1.31,4.94h0c-.45,1.72-1.01,3.61-1.67,5.64-.33,1-.66,2.01-1.01,3.02l-1.05,3.04c-.54,1.53-1.09,3-1.65,4.4l-.56,1.38c-.75,1.81-1.44,3.39-2.09,4.75l-.24.5-4.77-1.72-.71-.25.39-.64c.75-1.22,1.51-2.69,2.28-4.41h0s.6-1.32.6-1.32c.59-1.34,1.16-2.76,1.72-4.24h0s.57-1.49.57-1.49c.56-1.48,1.08-2.96,1.57-4.43h0s.58.19.58.19l-.5,1.48c-.51,1.48-1.06,2.97-1.65,4.47l-.57,1.47c-.57,1.45-1.16,2.82-1.77,4.13-.78,1.74-1.55,3.23-2.32,4.48l4.25,1.54c.32-.68.65-1.41,1-2.2l1.08-2.53c.56-1.35,1.11-2.77,1.65-4.25l.54-1.5c.36-1.01.71-2.03,1.05-3.03l1-3.01c.65-2.03,1.21-3.9,1.66-5.61.48-1.61.92-3.26,1.3-4.94.13-.52.25-1.04.37-1.54.71-.07,1.43-.14,2.15-.22l1.65-.2c2.21-.28,4.32-.64,6.34-1.05l.07-3.79c-2.02.45-4.12.83-6.29,1.15l-1.63.22c-.48.06-.96.12-1.44.17.31-1.36.57-2.55.8-3.6l.42-1.89c.18-.78.35-1.42.52-1.94l-4.66-.47c.05.49.06,1.1.01,1.85l-.09,1.09c-.04.36-.09.7-.14,1.04-.11.65-.27,1.49-.48,2.52l-.15.77c-.06.31-.14.63-.21.96-1.85.1-3.59.14-5.22.11v-.61c1.49.03,3.06,0,4.73-.09.09-.44.18-.86.25-1.26v-.02s.28-1.4.28-1.4c.08-.42.15-.78.2-1.1.11-.66.18-1.35.22-2.07l.03-.52c.01-.49,0-.9-.04-1.23l-.09-.75.75.08ZM470.36,408.8c.01-.49.05-.99.14-1.51l.09-.53c.14-.74.32-1.52.53-2.33l-3.64-.41c-.25,1.03-.44,2.02-.59,2.96-.15.91-.23,1.83-.25,2.77v.44c.08,2.18,1.07,3.85,2.97,5.01,1.77,1.08,4.23,1.72,7.37,1.9l1.39.05c1.78.03,3.47-.02,5.06-.15,1.19-.08,2.3-.17,3.33-.29l1-.12.22-3.94c-1.5.3-3.07.51-4.73.65l-1.21.09c-1.21.07-2.39.09-3.56.07v-.61c1.55.03,3.12-.03,4.72-.16l1.21-.11c1.19-.13,2.34-.3,3.45-.52l.77-.15-.04.78-.22,3.93-.03.5-.5.06c-1.31.17-2.78.31-4.38.41h0c-1.61.13-3.31.19-5.11.15-3.63-.07-6.54-.65-8.66-1.81l-.41-.24c-2.21-1.35-3.3-3.37-3.26-5.98.02-.97.1-1.92.25-2.85.15-.95.35-1.95.6-3l.12-.52.53.06,3.64.41.7.08-.18.68c-.21.8-.38,1.56-.52,2.29h0c-.14.68-.21,1.32-.22,1.93,0,.5.06.99.22,1.47.17.4.48.79.99,1.17l.19.14c.48.31,1.16.59,2.05.83,1.04.26,2.39.42,4.08.45v.61s-1.24-.04-1.24-.04c-.98-.06-1.83-.17-2.57-.32l-.43-.1c-.93-.25-1.68-.55-2.23-.91l-.23-.16c-.58-.43-.97-.91-1.19-1.43-.14-.42-.22-.84-.25-1.27v-.43ZM449.32,384.57c1.15.15,2.17.26,3.06.34l1.38.06c.45.02.89.03,1.32.04v.61s-1.35-.03-1.35-.03l-1.38-.06c-.91-.08-1.94-.2-3.11-.35l.08,3.79c.87.05,1.76.11,2.67.19.45.02.93.04,1.42.06l1.54.04c1.36.03,2.84,0,4.45-.07-.13.53-.25,1.06-.39,1.6l-.47,1.84c-.16.6-.31,1.18-.47,1.74-.48,1.71-1.07,3.56-1.75,5.56l-.58-.2c.68-1.99,1.26-3.83,1.74-5.53.31-1.12.62-2.31.94-3.56l.2-.82c-1.31.05-2.54.06-3.68.04-1.08-.02-2.07-.05-2.99-.1h-.02c-.9-.08-1.78-.15-2.65-.19l-.56-.03-.11-5.06.7.09ZM479.23,391.72c1.44.03,2.87.09,4.3.18l1.09.08c1.07.09,2.1.2,3.08.34l.55.08-.03.55-.19,4.37-.67-.1c-1.22-.18-2.51-.33-3.89-.46h-.01c-1.37-.15-2.76-.24-4.17-.27-1.54-.03-3.05,0-4.53.07h-.01c-1.47.04-2.95.14-4.43.3l-.69.08.09-4.89.55-.04c1.31-.11,2.73-.18,4.26-.22l1.18-.04c1.18-.03,2.35-.04,3.53-.02ZM483.1,379.14c.43.58.88,1.29,1.36,2.12l.7,1.24c.23.41.45.81.67,1.22l.66,1.2c.2.38.38.75.54,1.11l.26.57-3.22,1.36-.57.24-.23-.57c-.27-.65-.63-1.38-1.09-2.18h-.01c-.44-.83-.89-1.64-1.36-2.46v-.02c-.44-.8-.86-1.48-1.28-2.04l-.47-.63.72-.3,2.6-1.07.44-.18.28.38ZM480.01,380.57c.44.59.89,1.3,1.32,2.12.47.82.93,1.64,1.37,2.46.47.82.85,1.57,1.13,2.26l2.65-1.12c-.31-.69-.7-1.44-1.17-2.26-.22-.41-.44-.82-.67-1.23l-.7-1.23c-.47-.82-.91-1.51-1.32-2.07l-2.6,1.07ZM488.49,377.25c.45.64.93,1.37,1.44,2.2l.74,1.25c.23.41.46.82.68,1.23l.65,1.17c.2.36.38.71.54,1.02l.29.58-.6.25-3.19,1.35-.24-.54c-.49-1.09-1.09-2.25-1.8-3.48h0c-.72-1.27-1.4-2.35-2.04-3.25l-.45-.62.7-.3,2.55-1.07.45-.19.28.4ZM485.44,378.68c.66.92,1.36,2.02,2.08,3.3.54.93,1.02,1.83,1.44,2.69l.39.85,2.65-1.12c-.31-.62-.71-1.34-1.18-2.16-.22-.41-.45-.82-.68-1.23l-.73-1.23c-.5-.82-.98-1.54-1.42-2.16l-2.55,1.07ZM470.25,396.25c1.12-.13,2.24-.21,3.36-.27l1.12-.04c1.49-.07,3.02-.09,4.57-.06l1.07.03c1.06.04,2.12.13,3.16.24,1.39.12,2.7.27,3.93.46l.16-3.69c-.97-.14-1.99-.25-3.05-.34l-1.08-.08c-.71-.04-1.42-.08-2.14-.11l-2.14-.06c-1.56-.03-3.11,0-4.67.06-1.52.04-2.94.11-4.23.21l-.06,3.65Z"/><path d="M412.02,394.77l.51.33c-.11.18-.16.33-.16.47,0,.14.04.3.15.5.3.48.93,1.17,1.93,2.08.9.73,1.91,1.59,3.05,2.58l1.78,1.51c.61.52,1.23,1.06,1.87,1.63h0c1.31,1.13,2.64,2.29,3.98,3.48l1.98,1.78c.65.59,1.28,1.17,1.91,1.75l.92.87c.89.85,1.71,1.68,2.46,2.48l.42.45-.46.41-3.51,3.15-.47.42-.41-.49c-.97-1.17-2.05-2.36-3.25-3.57h-.01s.45-.43.45-.43c1.21,1.22,2.31,2.42,3.29,3.61l3.51-3.15c-.74-.79-1.55-1.61-2.44-2.46l-.91-.86c-.62-.58-1.26-1.16-1.9-1.75l-1.97-1.77c-1.34-1.19-2.67-2.35-3.97-3.47-1.28-1.13-2.49-2.17-3.64-3.13-1.15-.99-2.17-1.86-3.07-2.59-1.02-.93-1.71-1.67-2.05-2.22-.31-.56-.3-1.09.03-1.6ZM428.38,375.06l3.54,3.27.54.5-.6.44c-.51.37-1.08.83-1.73,1.39h-.01c-.64.54-1.19.96-1.62,1.29l-1.43,1.2c-.52.43-1.09.89-1.7,1.39h0c-1.21.95-2.5,1.97-3.84,3.04h0c-1.35,1.05-2.65,2.06-3.89,3.04h0c-1.24.95-2.32,1.8-3.24,2.56-.98.81-1.57,1.45-1.85,1.9h0s-.51-.32-.51-.32c.33-.54,1-1.23,1.98-2.05.46-.38.96-.79,1.51-1.21l1.75-1.35,3.9-3.04,3.85-3.04c1.22-.98,2.25-1.84,3.11-2.57.21-.16.45-.34.73-.56l.9-.73c.66-.57,1.25-1.05,1.78-1.43l-3.54-3.27c-.3.45-.73.98-1.29,1.58l-.78.86c-.26.27-.51.52-.76.76-.83.83-1.88,1.78-3.16,2.86l-1.94,1.61c-.67.55-1.35,1.11-2.06,1.68l-4.09,3.18c-1.28,1.01-2.38,1.9-3.31,2.67l-.53.43c-1.2,1-2.06,1.92-2.59,2.77l-.2.36c-.42.85-.45,1.71-.1,2.6.41.98,1.37,2.13,2.91,3.46,1.12.96,2.36,2.05,3.73,3.28,1.41,1.19,2.81,2.43,4.21,3.72,1.43,1.29,2.77,2.53,4.02,3.72,1.24,1.19,2.28,2.23,3.11,3.12l-.45.41c-.41-.44-.87-.92-1.38-1.43l-1.7-1.66c-1.24-1.18-2.57-2.42-4.01-3.71h0c-1.4-1.29-2.8-2.52-4.2-3.71h-.01c-1.37-1.23-2.61-2.32-3.73-3.28h0c-1.55-1.34-2.61-2.57-3.07-3.69h0c-.48-1.21-.35-2.4.34-3.51l.27-.4c.67-.93,1.68-1.92,2.99-2.96.92-.76,2.03-1.65,3.31-2.66h0c1.31-1.02,2.67-2.07,4.08-3.18l2.06-1.67c.66-.55,1.31-1.08,1.93-1.6l.91-.78c.87-.76,1.61-1.44,2.21-2.04h0s.74-.75.74-.75c.25-.27.5-.55.76-.84h.01s.39-.44.39-.44c.36-.41.64-.77.85-1.08l.4-.59.52.48Z"/><path d="M371.99,398.23c.02-1.43.3-2.91.81-4.46.48-1.38,1.13-2.7,1.95-3.95l.36-.53c.87-1.26,1.89-2.38,3.06-3.36l.51-.41c1.41-1.11,2.99-1.92,4.71-2.44.64-.18,1.35-.32,2.15-.41l.82-.07c.85-.08,1.71-.14,2.58-.16l.87-.02c1.17-.01,2.2,0,3.11.05l.07-3.89c-1.07.01-2.29.05-3.65.13l-2.13.08c-.74.03-1.51.08-2.3.13l-2.46.13c-.84.05-1.71.11-2.6.17l-6.67.46-3.2.23c-1.03.08-2.03.16-2.98.24-1.92.13-3.62.26-5.11.4l-1.93.15c-.56.05-1.04.09-1.43.13-.45.02-1.05.06-1.8.11-.75.02-1.59.04-2.53.05l.36,4.24c.78-.16,1.7-.3,2.75-.43l1.1-.13c.78-.1,1.58-.2,2.41-.3l2.56-.3c.88-.1,1.75-.19,2.63-.27l2.63-.22,4.97-.45c1.53-.13,2.81-.26,3.85-.37-1.51.85-2.97,2.07-4.39,3.66l-.52.61c-1.19,1.46-2.2,3.13-3.03,5.01l-.32.81c-.7,1.9-1.08,3.96-1.12,6.17v.8c.05,1.85.39,3.52,1.01,5,.72,1.7,1.71,3.19,2.98,4.48,1.27,1.29,2.73,2.37,4.37,3.24,1.64.84,3.36,1.49,5.17,1.94,1.61.43,3.2.7,4.76.83l.67.05,1.48-4.01c-1.19-.07-2.38-.2-3.57-.4l-1.19-.22c-1.38-.28-2.72-.68-4-1.21l-.55-.23c-1.41-.64-2.68-1.46-3.8-2.45-1.08-.99-1.94-2.19-2.56-3.6-.54-1.26-.84-2.7-.88-4.32v-.7ZM372.6,398.24c-.03,1.84.25,3.43.83,4.77l.23.49c.56,1.12,1.29,2.08,2.18,2.9l.41.35c.97.79,2.04,1.46,3.23,2l.53.22c1.24.51,2.54.91,3.89,1.18l1.17.21c1.16.19,2.33.32,3.5.39l.82.05-1.77,4.78-.15.42-.45-.02c-1.82-.1-3.67-.4-5.55-.89l-.69-.18c-1.6-.45-3.14-1.05-4.61-1.8h0c-1.48-.79-2.82-1.75-4.01-2.86l-.5-.49c-1.33-1.34-2.37-2.9-3.11-4.67-.75-1.79-1.1-3.81-1.06-6.05.05-2.6.54-5,1.49-7.2h0s.37-.82.37-.82c.9-1.87,2-3.53,3.28-4.97l.55-.6c.65-.68,1.31-1.29,1.99-1.83-.47.04-.96.09-1.48.14-1.53.14-3.18.29-4.97.45h-.01c-.87.06-1.75.14-2.62.22l-2.62.27c-1.75.19-3.41.39-4.96.59h-.01c-1.52.17-2.78.35-3.8.56l-.67.13-.06-.68-.36-4.24-.05-.65h.65c.94-.03,1.78-.04,2.52-.06l1.79-.11c.79-.08,1.9-.18,3.34-.28l2.41-.2c.85-.06,1.75-.13,2.71-.19l2.99-.24c1.03-.08,2.1-.16,3.2-.24l6.67-.46,2.61-.17c.84-.05,1.66-.09,2.45-.13l2.31-.13,2.14-.09c1.36-.07,2.59-.12,3.66-.13h.62s-.09,5.14-.09,5.14l-.63-.03c-.44-.02-.92-.04-1.43-.05h-1.64c-1.15,0-2.29.07-3.41.17h-.01c-1.11.07-2.05.23-2.85.46h0c-1.65.5-3.15,1.28-4.5,2.34h0c-1.33,1.04-2.48,2.25-3.44,3.65h0c-.96,1.37-1.71,2.81-2.24,4.33-.5,1.5-.75,2.92-.78,4.27Z"/><path d="M346.64,404.48l.3.37-.29.38c-.66.89-1.44,1.79-2.32,2.72l-.92.94c-1.1,1.09-2.37,2.11-3.82,3.05l-.63.4c-1.72,1.07-3.71,1.93-5.93,2.59h0c-2.22.67-4.69.97-7.4.92-2.07-.04-3.94-.35-5.62-.95l-.71-.28c-1.65-.69-2.98-1.74-3.99-3.15l-.41-.62c-1.06-1.74-1.53-3.98-1.48-6.67.03-1.46.07-3.07.14-4.82l.11-2.71c.04-.92.09-1.85.14-2.79l.14-2.78c.04-.91.07-1.82.11-2.7l.19-5.01c.06-1.52.1-2.78.12-3.78,0-.45,0-.89,0-1.31l-.05-1.26c-.05-.83-.13-1.59-.24-2.28l-.12-.73.74.02,4.91.14.71.02-.12.69c-.14.79-.25,1.6-.33,2.42-.08.8-.14,1.61-.19,2.41h0c-.04.68-.09,1.44-.14,2.28l-.15,2.77-.31,6.41c-.05,1.12-.1,2.23-.15,3.35l-.12,3.35c-.07,2.23-.12,4.24-.16,6.02-.03,1.71.27,3.02.85,3.97l.23.35c.57.79,1.32,1.36,2.25,1.74l.43.16c1.01.34,2.17.53,3.48.56v.61s-.59-.02-.59-.02c-1.13-.06-2.16-.25-3.09-.57l-.46-.17c-1.04-.42-1.88-1.06-2.52-1.94l-.26-.39c-.58-.95-.89-2.16-.94-3.64v-.65c.01-.89.03-1.84.06-2.84l.09-3.18c.04-1.12.08-2.24.12-3.35l.15-3.35.31-6.41c.05-1,.1-1.92.15-2.77l.14-2.29c.02-.4.05-.81.08-1.21l.11-1.21c.08-.84.19-1.67.34-2.48l-4.91-.14c.12.72.2,1.49.25,2.34.05.84.07,1.72.05,2.63l-.04,1.7c-.02.63-.04,1.33-.07,2.09l-.19,5.01-.11,2.71-.27,5.56c-.04.92-.08,1.82-.11,2.71l-.08,2.52c-.02.8-.04,1.57-.05,2.3v.96c.07,2.19.54,3.98,1.39,5.39.97,1.61,2.35,2.78,4.12,3.53,1.55.65,3.3,1.04,5.26,1.15l.85.03c2.66.05,5.06-.25,7.21-.89,1.91-.56,3.62-1.28,5.14-2.14l.64-.38c1.46-.91,2.75-1.88,3.87-2.93l.47-.45c.94-.93,1.77-1.84,2.49-2.72l.68-.87-2.71-3.35c-.9,1.25-1.91,2.46-3.03,3.64-1.09,1.18-2.34,2.24-3.75,3.19-1.41.92-3.01,1.65-4.81,2.2l-.68.18c-1.61.39-3.39.57-5.31.54v-.61c2.16.04,4.09-.2,5.81-.69,1.74-.54,3.29-1.24,4.65-2.12l.51-.35c1.17-.83,2.21-1.75,3.14-2.75h0s.81-.88.81-.88c.79-.88,1.51-1.78,2.17-2.7l.46-.65,3.21,3.98Z"/><path d="M271.87,398.72l-13.9-.25-.3,16.43,3.11.05.04-2.24,10.79.19.26-14.2ZM296.32,399.77c.87,1.24,1.67,2.58,2.4,4.01.76,1.39,1.4,2.78,1.9,4.18l.37,1.03c.34,1,.59,1.93.76,2.8l.1.5-4.45,1.7-.12-.74c-.13-.79-.34-1.67-.64-2.62l-.33-.98c-.48-1.34-1.08-2.71-1.79-4.09v-.02c-.68-1.42-1.41-2.72-2.18-3.91l-.41-.63,3.68-1.43.44-.17.27.39ZM276.07,400.64c-.19,1.36-.46,2.71-.8,4.07-.35,1.32-.79,2.56-1.33,3.72l-.2.42c-.47.95-1.06,1.77-1.75,2.47l2.69,1.8c.75-.78,1.39-1.7,1.93-2.76l.22-.46c.57-1.29,1.02-2.66,1.34-4.11.26-1.09.48-2.17.65-3.24l.16-1.07-2.9-.83ZM292.83,401.28c.79,1.21,1.53,2.54,2.21,3.98.72,1.41,1.33,2.8,1.82,4.17.49,1.37.83,2.61,1,3.71l3.28-1.25c-.21-1.11-.57-2.35-1.1-3.72-.49-1.37-1.12-2.74-1.87-4.12-.72-1.41-1.51-2.72-2.36-3.93l-2.99,1.16ZM290.02,411.76v.61s-.98-.02-.98-.02v-.61s.98.02.98.02ZM289.05,411.74v.61s-1.42-.02-1.42-.02v-.61s1.42.03,1.42.03ZM287.64,411.72v.61s-1.37-.02-1.37-.02v-.61s1.37.02,1.37.02ZM286.28,411.69v.61s-.83-.02-.83-.02v-.61s.83.01.83.01ZM283.86,410.89l.21-11.76-3.35-.06-.21,11.81v.83c.04.79.13,1.43.29,1.95.21.68.64,1.16,1.29,1.43.51.2,1.16.34,1.96.4l.85.04,5.4.1h.38c.86-.03,1.55-.23,2.06-.59.62-.38,1.09-1.12,1.4-2.21.23-.8.42-1.85.55-3.16l.12-1.4-1.06-.36c-.39-.14-.76-.29-1.11-.46-.35-.2-.64-.4-.87-.6-.06,1.65-.15,2.86-.26,3.64l-.09.53c-.11.48-.25.82-.42,1.01-.23.22-.56.33-.98.32v-.61c.3,0,.45-.06.53-.14.04-.05.1-.15.17-.35.07-.21.13-.5.19-.86l.08-.64c.07-.72.13-1.7.18-2.94l.05-1.29.96.86c.18.16.43.33.74.51.33.16.67.3,1.03.43.38.13.73.25,1.05.35l.45.15-.03.47c-.13,1.99-.36,3.56-.69,4.68h0c-.33,1.17-.86,2.08-1.67,2.57h0c-.73.49-1.67.7-2.77.68l-5.4-.1c-1.23-.02-2.25-.17-3.03-.48h-.01c-.71-.3-1.22-.81-1.52-1.51l-.11-.31c-.24-.77-.34-1.77-.32-2.97l.22-12.42,4.57.08-.22,12.37c0,.26.02.45.04.57.01.04.02.07.03.09.02.01.08.03.18.05.17.03.41.06.73.06v.61s-.48-.02-.48-.02c-.42-.04-.7-.12-.84-.24-.14-.13-.23-.37-.26-.73v-.4ZM268.66,401.72l-.15,8.12-7.63-.14.15-8.12,7.63.14ZM261.5,409.11l6.42.12.12-6.9-6.42-.12-.12,6.9ZM284.08,392.02c1.09.55,2.19,1.22,3.3,2l.81.58c.8.59,1.57,1.18,2.3,1.79l.7.6c.66.59,1.22,1.16,1.68,1.71l.34.42-2.65,2.78-.47.49-.44-.53c-.55-.66-1.27-1.4-2.18-2.21-.91-.81-1.89-1.59-2.96-2.34h-.01c-1.07-.79-2.14-1.5-3.22-2.12l-.7-.41.59-.56,2.23-2.1.31-.29.38.19ZM281.57,394.66c1.09.63,2.18,1.35,3.27,2.15,1.09.77,2.09,1.56,3.02,2.39.93.83,1.68,1.59,2.25,2.28l2.28-2.39c-.43-.52-.97-1.07-1.61-1.64l-.68-.59c-.72-.6-1.47-1.19-2.26-1.76l-.8-.58c-1.09-.77-2.16-1.42-3.22-1.95l-2.23,2.1ZM271.94,392.15l-13.8-.25-.05,2.92,13.8.25.05-2.92ZM288.14,377.05c-.22,1.19-.49,2.38-.81,3.56-.17.61-.36,1.21-.56,1.81.38.21.76.42,1.13.63l1.16.65c1.12.64,2.08,1.26,2.89,1.85l.47.34-.32.49-1.85,2.84-.32.49c.2.01.4.03.6.04l2,.04h.03c.6.07.89-.07,1.04-.25v-.02c.08-.07.19-.24.3-.56.11-.31.22-.74.33-1.27v-.02s.18-.9.18-.9c.17-1,.33-2.33.48-3.97.14-1.52.27-3.39.39-5.61l-7.15-.13ZM272.06,385.69l-13.8-.25-.05,2.87,13.8.25.05-2.87ZM273.59,379.05l-17.4-.31-.05,3.06,17.4.31.05-3.06ZM272.15,372.66l-13.47-.24-.05,2.92,13.47.24.05-2.92ZM272.28,410.05c.42-.56.79-1.18,1.1-1.87h0s.37-.87.37-.87c.36-.87.66-1.79.92-2.76.34-1.33.61-2.67.79-4l.1-.69,3.58,1.02.5.15-.07.52c-.19,1.45-.46,2.91-.82,4.38-.33,1.48-.78,2.89-1.37,4.22h0c-.6,1.31-1.35,2.45-2.26,3.39l-.35.37-2.52-1.69-.02,1.32-10.79-.19-.04,2.24-4.33-.08.32-17.65,15.12.27-.21,11.93ZM272.49,395.69l-15.02-.27.07-4.13,15.02.27h0s.75-.32.75-.32c1.7-.74,3.13-1.63,4.3-2.65l.49-.45c1.19-1.17,2.15-2.42,2.9-3.76-.18-.09-.37-.19-.56-.28h0c-1.75-.87-3.44-1.58-5.09-2.16l-.76-.27.47-.66,1.79-2.54.27-.38.44.16c1.66.61,3.36,1.32,5.13,2.15.04-.13.08-.26.12-.38l.16-.61.31-1.24c.1-.4.18-.8.27-1.21l-8.14-.15.08-4.33,24.65.44-.04,2.14c-.17,2.87-.35,5.33-.53,7.38l-.18,1.91c-.18,1.78-.37,3.25-.58,4.41l-.21,1.05c-.29,1.24-.67,2.22-1.22,2.8h0c-.35.45-.76.81-1.23,1.04l-.21.1c-.53.22-1.16.34-1.88.4h0c-.62.06-1.45.08-2.5.06h-.02c-1.01-.05-2.1-.12-3.27-.2l-.53-.04-.03-.54c-.02-.44-.1-.95-.25-1.54h0c-.14-.61-.33-1.1-.58-1.49l-.65-1.05,1.23.13c.84.09,1.63.15,2.36.2l-.44-.33c-1.03-.78-2.34-1.63-3.93-2.56h0c-.16-.1-.32-.19-.49-.29-.91,1.67-2.07,3.21-3.47,4.63h0c-1.51,1.49-3.37,2.76-5.58,3.82l-.55.26-.26-.55c-.16-.33-.44-.74-.86-1.25v-.02c-.41-.51-.76-.89-1.07-1.15l-.6-.51-.07,3.94ZM272.6,389.18l-15.02-.27.07-4.09,15.02.27-.07,4.08ZM274.13,382.73l-18.62-.33.08-4.28,18.62.33-.08,4.28ZM276.02,376.23l8.25.15c-.19,1.06-.43,2.13-.72,3.2l-.17.61c-.1.36-.21.71-.33,1.06-.17-.08-.33-.16-.5-.23-1.8-.84-3.54-1.57-5.21-2.19l-1.79,2.55c1.68.58,3.4,1.31,5.16,2.18.38.19.76.37,1.13.56-.04.08-.08.16-.12.24-.8,1.51-1.87,2.92-3.19,4.22l-.51.47c-1.23,1.07-2.72,1.99-4.46,2.75.35.3.73.71,1.15,1.23.44.53.76.99.95,1.38,1.89-.9,3.5-1.96,4.85-3.17l.56-.53c1.45-1.47,2.63-3.07,3.54-4.8.04-.08.08-.16.12-.24.35.2.7.4,1.04.6,1.6.94,2.93,1.81,3.99,2.6l1.85-2.84c-1.06-.76-2.39-1.58-3.99-2.46-.52-.3-1.05-.59-1.59-.87.19-.51.36-1.02.52-1.54l.2-.71c.36-1.34.66-2.68.89-4.02l8.29.15c-.13,2.51-.27,4.59-.43,6.26l-.15,1.55c-.16,1.44-.33,2.58-.52,3.4l-.17.75c-.18.68-.38,1.14-.6,1.38-.33.38-.85.54-1.57.46l-1.99-.03-1.48-.1c-.52-.04-1.06-.09-1.62-.15.28.46.5,1.01.65,1.67.15.62.24,1.17.26,1.66.58.04,1.14.08,1.69.12l1.57.09c1.04.02,1.85,0,2.43-.06.51-.04.96-.12,1.34-.23l.36-.13c.46-.19.87-.52,1.23-1,.37-.39.69-1.08.96-2.07l.11-.44c.21-.92.41-2.16.6-3.72l.18-1.66c.24-2.36.47-5.46.7-9.28l.03-1.51-23.43-.42-.05,3.11ZM272.69,376.19l-14.68-.26.07-4.13,14.68.27-.07,4.13Z"/><path d="M238.41,409.83l-6.61-.12.09-5.11,6.61.12-.09,5.11ZM232.42,409.12l5.4.1.07-3.89-5.39-.1-.07,3.89ZM220.76,390.75l-.27,14.83-6.22-.11.27-14.83,6.22.11ZM214.89,404.87l5.01.09.25-13.61-5.01-.09-.25,13.61ZM238.55,401.86l-6.61-.12.09-5.15,6.61.12-.09,5.15ZM232.56,401.15l5.39.1.07-3.94-5.39-.1-.07,3.94ZM238.7,393.89l-6.61-.12.09-4.96,6.61.12-.09,4.96ZM232.7,393.17l5.4.1.07-3.74-5.39-.1-.07,3.74ZM224.97,377.38l-7.14-.13c-.5,2.79-1.09,5.5-1.78,8.15h0c-.12.47-.24.93-.37,1.39l8.92.16-.05,2.7c2.57-2.08,4.81-4.6,6.69-7.59l.83-1.36c.33-.56.64-1.14.95-1.72l-3.65-.06-.09,5.2-4.42-.08.12-6.66ZM252.21,375.56l-13.09-.23c.53-1.39,1.01-2.82,1.45-4.3l-3.44-.74c-.49,1.72-1.07,3.38-1.72,4.98l-9.8-.18-.15,8.36,3.21.06.09-5.2,5.23.09c-.68,1.38-1.43,2.72-2.24,4-2.17,3.43-4.78,6.27-7.84,8.52l.06-3.36-9.09-.16c.2-.7.4-1.41.58-2.13.73-2.8,1.35-5.67,1.86-8.62l8.17.15.06-3.4-17.16-.31-.06,3.4,5.46.1c-.37,2.41-.82,4.77-1.35,7.07l-.26,1.06c-.62,2.44-1.36,4.73-2.22,6.88-.95,2.41-2.09,4.53-3.42,6.36.22.26.46.62.71,1.08.25.43.5.87.76,1.33.25.43.44.77.57,1.03,1.03-1.42,1.96-2.99,2.81-4.7l-.28,15.78,3.06.05.07-3.84,9.38.17.31-17.23c.14.13.28.27.43.42.35.33.67.68.96,1.04.32.33.56.61.72.84.92-.7,1.81-1.45,2.67-2.26l-.42,23.25,3.45.06.04-2.14,20.03.36.06-3.11-10.02-.18.09-5.11,7.73.14.05-2.87-7.73-.14.09-5.15,7.73.14.05-2.82-7.73-.14.09-4.96,8.56.15.06-3.16-7.83-.14c.18-.35.37-.72.56-1.11.64-1.28,1.26-2.55,1.87-3.81l-3.39-.89c-.31,1.03-.75,2.24-1.33,3.62-.33.77-.65,1.48-.97,2.12l-5.96-.11c.32-.47.63-.95.94-1.44,1.15-1.82,2.19-3.75,3.11-5.78l11.04.2-.09,5.2,3.31.06.15-8.36ZM226.14,374.48l8.87.16c.58-1.46,1.09-2.97,1.54-4.53l.16-.54.56.12,4.08.88-.19.63c-.36,1.21-.75,2.39-1.17,3.54l12.84.23-.17,9.58-4.52-.08.09-5.2-10.03-.18c-.9,1.92-1.89,3.75-2.99,5.49-.11.18-.22.35-.34.53l4.47.08c.26-.54.52-1.12.79-1.75.57-1.37,1-2.55,1.31-3.56l.17-.56,3.95,1.04.72.19-.32.67c-.61,1.25-1.23,2.53-1.87,3.81-.04.08-.09.17-.13.25l7.47.13-.08,4.37-8.56-.15-.07,3.74,7.73.14-.07,4.04-7.73-.14-.07,3.94,7.73.14-.07,4.08-7.73-.14-.07,3.89,10.01.18-.08,4.33-20.03-.36-.04,2.14-4.67-.08.41-22.46c-.54.47-1.1.92-1.67,1.35l-.51.38-.36-.53c-.13-.19-.34-.44-.65-.76l-.02-.02-.02-.02c-.1-.13-.21-.26-.32-.38l-.29,16.4-9.38-.17-.07,3.84-4.28-.08.25-13.88c-.52.9-1.08,1.75-1.66,2.56l-.6.83-.44-.92c-.11-.24-.29-.57-.54-.98v-.02c-.26-.45-.5-.89-.75-1.31v-.02c-.25-.44-.46-.76-.65-.98l-.31-.36.28-.38c1.29-1.78,2.41-3.85,3.35-6.22h0s.36-.92.36-.92c.43-1.14.83-2.32,1.19-3.55v-.18h.05c.3-1.04.59-2.1.84-3.2.48-2.07.89-4.18,1.24-6.34l-5.37-.1.08-4.62,18.38.33-.03,1.7Z"/><path d="M191.72,374.51l-.61.44c-.51.37-1.08.83-1.73,1.39h-.01c-.65.54-1.18.96-1.62,1.29l-1.43,1.2c-.52.43-1.09.89-1.7,1.38h0c-1.22.96-2.51,1.97-3.9,3.05h0c-1.35,1.05-2.64,2.06-3.89,3.04h0c-1.24.95-2.3,1.8-3.18,2.55h0c-.98.82-1.6,1.46-1.92,1.93-.11.17-.14.31-.14.44,0,.13.05.3.17.51l.29.4c.35.44.9,1,1.66,1.69.86.73,1.86,1.58,3,2.57l1.79,1.51c.62.52,1.25,1.07,1.91,1.63l1.97,1.72c.66.58,1.31,1.17,1.97,1.77,1.34,1.19,2.63,2.37,3.88,3.53l.92.86c.9.85,1.73,1.68,2.5,2.48l.44.45-4.44,3.98-.41-.47c-.25-.29-.51-.59-.78-.89l-.83-.92c-.54-.59-1.09-1.18-1.66-1.77h0s.44-.42.44-.42c.57.59,1.13,1.19,1.67,1.78.57.63,1.11,1.24,1.62,1.83l3.51-3.15c-.76-.79-1.59-1.61-2.48-2.46l-.91-.86c-.62-.58-1.26-1.16-1.9-1.75l-1.97-1.77c-.65-.59-1.31-1.18-1.96-1.76l-1.96-1.71c-1.31-1.13-2.54-2.17-3.69-3.13l-3.02-2.58c-.89-.81-1.53-1.48-1.91-2.01l-.15-.22c-.35-.56-.35-1.09-.02-1.61.27-.41.72-.9,1.35-1.46l.68-.59c.44-.38.93-.79,1.47-1.21l1.74-1.36,7.79-6.08c1.22-.98,2.25-1.84,3.11-2.57.21-.16.46-.34.73-.56l.9-.73c.66-.57,1.25-1.05,1.78-1.43l-3.59-3.27c-.27.45-.68.98-1.25,1.58l-.82.86c-.26.27-.52.53-.77.76-.83.83-1.86,1.78-3.11,2.86l-1.94,1.61c-.67.55-1.35,1.11-2.06,1.68l-4.09,3.18c-1.28,1.01-2.4,1.9-3.35,2.66l-.53.43c-1.2,1-2.06,1.93-2.59,2.77l-.19.36c-.39.85-.41,1.71-.06,2.6.4.98,1.36,2.13,2.86,3.46,1.15.96,2.41,2.05,3.78,3.28,1.37,1.19,2.76,2.43,4.16,3.72,1.44,1.29,2.77,2.53,4.02,3.72,1.28,1.19,2.33,2.23,3.15,3.12l-.44.42c-.81-.88-1.85-1.91-3.12-3.09h0c-1.24-1.19-2.57-2.42-4.01-3.71h0c-1.4-1.29-2.78-2.53-4.15-3.72h0c-1.37-1.23-2.62-2.31-3.77-3.27h-.01c-1.52-1.35-2.56-2.58-3.01-3.69h0c-.47-1.2-.37-2.38.29-3.5h0s.27-.41.27-.41c.67-.93,1.68-1.92,2.99-2.96.95-.76,2.07-1.65,3.35-2.66h0c1.31-1.02,2.67-2.07,4.08-3.18l2.06-1.67c.67-.55,1.31-1.08,1.93-1.6,1.24-1.07,2.27-2.01,3.08-2.82h0s.75-.76.75-.76c.26-.27.53-.55.81-.85.55-.59.93-1.08,1.17-1.48l.38-.64,4.69,4.28ZM188.59,382.29c.42.64.88,1.4,1.39,2.3l.75,1.35c.24.45.48.9.71,1.35l1.28,2.26.33.6-.64.26-3.28,1.34-.24-.53c-.3-.67-.69-1.42-1.15-2.26h0c-.47-.89-.95-1.77-1.45-2.65v-.02c-.47-.9-.9-1.65-1.3-2.25l-.4-.62,3.74-1.55.28.42ZM185.49,383.7c.41.62.85,1.39,1.32,2.31.5.88.99,1.77,1.46,2.65.24.43.45.83.65,1.22l.53,1.09,2.74-1.12c-.35-.62-.77-1.38-1.27-2.26-.23-.46-.47-.91-.72-1.36l-.74-1.34c-.5-.88-.96-1.64-1.37-2.26l-2.6,1.07ZM194.3,380.18c.43.58.89,1.31,1.4,2.2l.8,1.3c.26.44.51.88.77,1.32.51.87.93,1.65,1.26,2.36l.26.57-3.73,1.58-.26-.48c-.37-.68-.81-1.45-1.31-2.29v-.02c-.48-.88-.96-1.73-1.46-2.58v-.02c-.47-.83-.91-1.53-1.33-2.09l-.47-.62.72-.3,2.65-1.12.44-.19.28.39ZM191.16,381.66c.44.59.9,1.31,1.37,2.17.5.85.99,1.72,1.46,2.6.25.43.49.83.71,1.22l.61,1.09,2.65-1.12c-.31-.68-.72-1.45-1.22-2.31-.5-.88-1.02-1.75-1.56-2.6-.5-.89-.96-1.61-1.37-2.17l-2.65,1.12Z"/><path d="M140.01,394.79c.03-1.88-.26-3.56-.88-5.03-.17-.41-.37-.8-.59-1.16,0-.35,0-.73,0-1.13.02-1.13.03-2.35.02-3.65l.06-3.3c.23,0,.46,0,.68,0l4.86.11c1.46.04,2.75.09,3.89.14,2.3.07,4.13.15,5.49.25l.11-3.6-2.38-.04-1.58-.06-1.82-.04v-.61c1.31.02,2.45.06,3.43.11l2.98.05-.13,4.21-.02.63-.63-.04c-1.35-.09-3.17-.17-5.47-.25h0c-2.26-.11-5.17-.19-8.73-.25-.02,0-.05,0-.07,0l-.05,2.7c0,1.29,0,2.5-.02,3.63v.97c.2.35.38.71.54,1.1l.23.59c.5,1.41.73,2.97.7,4.68-.03,1.68-.31,3.39-.84,5.11h0c-.51,1.75-1.34,3.42-2.51,5h0c-1.15,1.6-2.7,3.05-4.65,4.34-1.94,1.28-4.37,2.31-7.28,3.11l-.35.09-4.22-4.31,1.07-.23c2.18-.47,4.13-1.09,5.85-1.85l.63-.29c1.44-.7,2.66-1.53,3.68-2.48l.42-.42c.39-.41.74-.83,1.06-1.29-.84.28-1.76.41-2.73.39-1.07-.02-2.12-.21-3.15-.58h-.02c-1-.41-1.91-.98-2.73-1.72l-.02-.02.43-.43c.77.69,1.62,1.23,2.55,1.6.85.3,1.71.47,2.58.52h.38c1.49.04,2.79-.29,3.91-.99.12-.07.24-.15.35-.23-.63,1.36-1.5,2.56-2.6,3.6l-.47.42c-1.13.96-2.46,1.78-4.01,2.47l-.67.29c-1.59.65-3.36,1.18-5.3,1.6l3.2,3.27c2.51-.69,4.63-1.55,6.38-2.58l.73-.45c1.9-1.26,3.4-2.66,4.5-4.2,1.13-1.54,1.94-3.14,2.42-4.82.45-1.47.72-2.91.8-4.34l.02-.61ZM126.57,393.14c.02-1.07.26-1.99.73-2.76.44-.67.97-1.19,1.6-1.57l.28-.15c.75-.41,1.55-.6,2.39-.59l.49.03c1.12.13,2.08.62,2.89,1.49.38.41.68.93.89,1.54.12,1.39.04,2.59-.25,3.58l-.13.41c-.32.93-.79,1.64-1.43,2.14l-.28.19c-.66.41-1.43.61-2.31.59v-.61c.89.02,1.62-.21,2.22-.65.6-.47,1.06-1.19,1.34-2.23h0s.1-.42.1-.42c.18-.8.23-1.76.13-2.88-.19-.51-.44-.92-.74-1.24-.81-.87-1.78-1.31-2.94-1.33-.74-.01-1.43.16-2.09.52h-.02c-.64.33-1.19.82-1.63,1.5l-.14.26c-.31.61-.48,1.34-.5,2.2-.02,1.38.39,2.39,1.19,3.11.88.76,1.9,1.15,3.08,1.17v.61s-.5-.03-.5-.03c-1.13-.11-2.12-.55-2.99-1.3-.84-.75-1.3-1.76-1.38-3.02v-.56ZM138.69,376.48c.02-1.07.05-1.91.09-2.53.02-.11.03-.25.04-.4l.02-.52c.04-.42.08-.84.12-1.26.07-.42.11-.71.11-.87l-4.42-.08c.03.2.07.6.12,1.22.05.59.09,1.2.11,1.85.02.55.04,1.33.06,2.34,0,.28,0,.57,0,.87-.18,0-.37,0-.55,0-1.78,0-3.65,0-5.59,0h-2.91c-.96.02-1.93.03-2.88.04l-5.35.1h-2.4c-.75-.01-1.46-.02-2.13-.03l.03,3.74c.91-.05,1.86-.09,2.85-.13l3.09-.1c1.09-.05,2.19-.08,3.31-.11l3.4-.06c1.15-.01,2.3-.02,3.44-.02h3.42c.76,0,1.51,0,2.26,0,0,.88,0,1.77-.02,2.67l-.04,2.24c-.76-.3-1.6-.49-2.55-.57l-.7-.03c-1.52-.03-2.96.32-4.3,1.04-1.31.72-2.37,1.71-3.17,2.96l-.28.48c-.62,1.13-.94,2.41-.96,3.83v.48c.03,1.11.22,2.12.57,3.03.44,1.01,1.02,1.88,1.75,2.61l-.43.43c-.79-.78-1.42-1.72-1.88-2.8v-.02c-.44-1.13-.64-2.38-.62-3.74.03-1.72.48-3.27,1.34-4.62l.33-.49c.81-1.11,1.83-2,3.05-2.68h0s.54-.27.54-.27c1.28-.59,2.63-.87,4.05-.84.95.02,1.83.14,2.64.37l.03-1.41c.01-.69.02-1.38.02-2.06-.54,0-1.09,0-1.64,0h0c-1.13,0-2.27,0-3.41,0l-3.44.02c-2.3.02-4.53.08-6.7.17h0c-2.14.06-4.11.14-5.92.23l-.63.03v-.64s-.04-4.37-.04-4.37h.62c1.32.03,2.82.04,4.5.04l5.35-.1,2.89-.03c.97,0,1.94-.01,2.91,0h5.53s0-.25,0-.25c-.01-1-.03-1.78-.05-2.32h0c-.02-.64-.06-1.25-.11-1.82h0c-.05-.62-.09-1.01-.12-1.19l-.11-.71,5.75.1v.61c-.01.21-.06.54-.13.94v.02s0,0,0,0v.03s0,0,0,0v.02s0,0,0,0v.02s0,0,0,0v.03s0,0,0,0v.02s0,0,0,0v.02s0,0,0,0v.02s0,0,0,0v.02s0,0,0,0v.02h0v.02s0,0,0,0v.03s0,0,0,0v.02s0,0,0,0v.02s0,0,0,0v.02s0,0,0,0v.02s0,0,0,0v.02s0,0,0,0v.02s0,0,0,0v.03s0,0,0,0v.02s0,0,0,0v.02s0,0,0,0v.02s0,0,0,0v.02s0,0,0,0v.03s0,0,0,0v.02s0,0,0,0v.02s0,0,0,0v.02s0,0,0,0v.02s0,0,0,0v.02s0,0,0,0v.02s0,0,0,0v.03s0,0,0,0v.02s0,0,0,0v.02s0,0,0,0v.02s0,0,0,0v.02s0,0,0,0v.03s0,0,0,0v.02s0,0,0,0v.02s0,0,0,0v.02s0,0,0,0v.02s0,0,0,0v.02s0,0,0,0v.02s0,0,0,0v.03s0,0,0,0v.02s0,0,0,0v.02s0,0,0,0v.02s0,0,0,0v.02h0c0,.37-.03.69-.07.94h0c-.04.6-.07,1.43-.09,2.5v.02s.08,0,.12,0v.61s-.74-.01-.74-.01v-.64ZM143.79,376.6v.61s-4.39-.08-4.39-.08v-.61s4.39.08,4.39.08ZM147.88,376.67v.61s-4.1-.07-4.1-.07v-.61s4.1.07,4.1.07Z"/><path d="M474.7,95.12h0c1.68-.05,3.08,1.27,3.13,2.94l1.43,46.57c.05,1.68-1.27,3.08-2.94,3.13h0c-1.68.05-3.08-1.27-3.13-2.94l-1.43-46.57c-.05-1.68,1.27-3.08,2.94-3.13Z"/><path d="M613.62,328.17c1.53.17,2.71,1.48,2.69,3.06-.02,1.57-1.23,2.85-2.76,2.99h-.31c-76.96-.91-184.57-1.09-282.71-1.16-91.98-.06-175.66-.03-217.91-.41l-7.89-.08c-1.68-.02-3.02-1.4-3-3.08.02-1.68,1.4-3.02,3.08-3l7.88.08c42.21.38,125.84.34,217.85.41,98.13.07,205.78.25,282.78,1.17l.31.02Z"/><path class="d" d="M673.79,159.19c.31,0,.62,0,1.24.46.62.46,1.55,1.39,4.37,3.28"/><path class="d" d="M692.5,174.16c1.55,2.17,4.19,5.86,6.54,11.52,2.35,5.66,3.25,7.18,3.91,16.21.65,9.03-.15,19.99-1.55,23.89-2.01,5.58-4.59,9.42-7.09,13.17-2.46,3.69-8.33,7.55-12.08,10.82-3.46,3.02-7.48,4.53-11.23,6.55-.94.47-1.87.78-2.81,1.09-.94.31-1.87.62-2.82,1.88"/><path class="d" d="M674.98,236.71c-1.73,2.68-4.58,6.48-5.7,8.94-.94,2.08-2.05,4.67-2.93,6.74-.84,1.99-2.29,4.74-2.94,6.97-.67,2.31,6.01,1.9,8.23,2.54,1.93.55,4.11,1.27,6.57,1.51,2.35.23,5.46.87,7.84,1.35.63.16,1.42.32,2.06.48.64.16,1.11.32,1.59.48"/><path class="d" d="M669.71,342.9h37.05"/><path class="d" d="M671.61,385.65c1.89.31,6.93,2.2,11.39,3.64,1.89.16,4.12.48,6.49,1.26,1.12.47,2.06,1.1,3.98,1.75"/><path class="d" d="M56.04,282.1c-1.89-.31-6.93-1.58-12.33-3.79-1.27-.64-2.53-1.26-3.64-1.74-1.12-.48-2.06-.79-3.03-2.07"/><path class="d" d="M37.99,309.65c-6.64-.31-12.94-.95-19.14-1.74-3-.16-5.55-.48-7.92-.95-1.42-.16-3.31-.16-6.19-1.11"/><path class="d" d="M36.09,358.1c-2.2,0-6.63.63-10.59,1.9-1.11.32-2.37.63-3.8.79-1.43.16-3,.16-6.51,1.11"/><path class="d" d="M670.14,302.64c5.54-1.11,10.54-2.22,14.44-3.33,2.49-.56,4.73-1.11,6.53-1.53.98-.14,2.08-.14,3.21-.14"/></svg>