<?xml version="1.0" encoding="UTF-8"?><svg id="a" xmlns="http://www.w3.org/2000/svg" xmlns:xlink="http://www.w3.org/1999/xlink" viewBox="0 0 462.78 472.71"><defs><style>.c{fill:#fb8f34;}.d{fill:#fca72f;}.e,.f,.g,.h{fill:#a7a7a7;stroke:#a7a7a7;stroke-width:.2px;}.f,.h{stroke-linecap:round;}.i{fill:#fca32d;}.j{fill:#552c08;}.k{fill:#fee9b9;}.l{fill:#fca731;}.m{fill:none;}.n{fill:#b2b2b2;}.o{fill:#fca52f;}.p{fill:#1d0501;}.q{fill:#fa9526;}.r{fill:#fee9ba;}.g,.h{stroke-linejoin:round;}.s{clip-path:url(#b);}.t{fill:#d3d3d3;}.u{fill:#562e09;}.v{fill:#562d09;}.w{fill:#fdba44;}.x{fill:#fa9525;}.y{fill:#301509;}.z{fill:#170702;}.aa{fill:#f99828;}.ab{fill:#fee7b6;}.ac{fill:#562d08;}.ad{fill:#572e09;}.ae{fill:#fa9324;}</style><clipPath id="b"><rect class="m" x="86.78" y="54.71" width="376" height="418"/></clipPath></defs><path class="e" d="M194.73,24.76c.52-.16,1.04-.1,1.56.16l.19.1c.41.25.69.6.82,1.04.16.52.08,1.05-.23,1.58h0c-.28.52-.67.87-1.17,1.02-.54.16-1.06.11-1.56-.16h0c-.51-.29-.84-.71-1-1.24-.15-.5-.09-1,.18-1.5l.11-.18c.27-.4.63-.67,1.1-.82ZM195.1,21.98c.07.3.06.58-.03.84h0c-.11.29-.32.47-.62.56-.29.09-.55.07-.77-.07h0c-.22-.16-.38-.42-.48-.76l-4.61-14.65h0s-.03-.13-.03-.13c-.07-.29-.05-.55.05-.78l.05-.09c.13-.21.33-.36.6-.44.29-.09.55-.06.78.1l.09.06c.2.15.34.39.43.69l4.51,14.55h0s.03.13.03.13Z"/><path class="e" d="M178.04,19.22c-1.11.33-2.03.92-2.76,1.75h0c-.71.83-1.17,1.66-1.37,2.49l.69,2.3c.27.89.51,1.65.75,2.3l.23.61h0s.09.22.09.22c.24.5.63.94,1.18,1.31l.24.14c.58.32,1.25.53,1.99.63h0c.86.09,1.71.01,2.56-.24.88-.27,1.66-.71,2.33-1.32h0s.25-.24.25-.24c.55-.59.94-1.32,1.18-2.22l.04-.19c.21-.97.12-2.08-.25-3.33-.56-1.86-1.49-3.13-2.79-3.83h0c-1.29-.73-2.73-.85-4.35-.37ZM172.65,19.71c.1.33.2.62.28.87.33-.67.85-1.31,1.55-1.93.79-.69,1.81-1.22,3.07-1.6,1.51-.45,2.95-.53,4.33-.22h0c1.37.29,2.57.93,3.6,1.93,1.02,1,1.78,2.32,2.27,3.95.53,1.77.6,3.37.18,4.78h0c-.42,1.39-1.13,2.53-2.15,3.43-1.01.89-2.17,1.53-3.48,1.92-.91.27-1.81.4-2.69.37h0c-.89-.05-1.67-.18-2.35-.41h0c-.58-.21-1.04-.44-1.38-.7-.02.43-.13.87-.33,1.3h0c-.21.49-.46.87-.73,1.12h0c-.15.14-.32.24-.52.3-.29.09-.57.07-.84-.06l-.11-.06c-.29-.17-.48-.4-.56-.67-.07-.24-.05-.48.07-.72l.06-.1c.05-.09.13-.2.23-.34.1-.16.19-.32.25-.46h0s.05-.13.05-.13c.04-.13.07-.27.07-.41v-.18c-.02-.44-.12-1-.33-1.69h0s-.77-2.34-.77-2.34h0s-1.45-4.48-1.45-4.48l-1.32-4.15c-1.25-4.01-2.31-7.23-3.17-9.67l-.04-.12c-.07-.28-.03-.54.15-.77.18-.27.46-.46.83-.57.34-.1.65-.1.93,0h0c.26.09.46.27.58.51l.05.11h0s.46,1.27.46,1.27c.45,1.25.86,2.45,1.24,3.61l.77,2.36c.26.8.52,1.62.78,2.46h0s.45,1.48.45,1.48Z"/><path class="e" d="M158.32,22.5c1.57-.47,3.07-.56,4.51-.28l.27.05c1.34.29,2.52.93,3.54,1.92l.2.2c1,1,1.74,2.32,2.22,3.94.71,2.35.61,4.39-.31,6.11l-.19.34c-1.08,1.75-2.83,2.98-5.24,3.71-2.33.7-4.46.67-6.38-.11h0c-1.92-.79-3.26-2.51-4.06-5.14-.5-1.65-.62-3.18-.37-4.61h0s.05-.27.05-.27c.29-1.34.9-2.51,1.82-3.51l.19-.2c.97-.97,2.21-1.68,3.74-2.14ZM159.02,24.61c-1.65.5-2.8,1.45-3.47,2.88h0c-.65,1.42-.69,3.06-.13,4.92.59,1.97,1.55,3.22,2.88,3.8,1.33.58,2.78.64,4.33.18,1.61-.49,2.8-1.36,3.55-2.61l.14-.24c.64-1.23.71-2.71.19-4.46-.36-1.21-.93-2.21-1.69-2.99h0c-.75-.81-1.62-1.33-2.64-1.57h0c-1-.27-2.05-.24-3.16.1Z"/><path class="e" d="M145.37,27c.39-.12.72-.13.99,0,.27.12.46.37.56.71,1.3,4.33,2.6,8.87,3.89,13.6h0c.7,2.63.82,4.76.34,6.4h0c-.48,1.66-1.53,2.75-3.16,3.24-1.29.39-2.48.29-3.57-.29l-.2-.11c-.99-.57-1.67-1.45-2.02-2.64-.14-.47-.17-.86-.04-1.13.13-.27.41-.46.81-.58.36-.11.68-.11.95.02.27.13.47.37.61.71l.15.32c.34.72.68,1.2,1.03,1.44l.16.1c.38.2.82.24,1.32.09.46-.14.83-.38,1.11-.73.28-.34.46-.8.56-1.36.19-1.13.02-2.71-.55-4.73h0s-1.01-3.67-1.01-3.67c-1-3.58-1.96-6.91-2.89-9.99-.09-.29-.06-.56.09-.81l.07-.1c.18-.22.46-.39.82-.5ZM143.7,21.12c.59-.18,1.13-.13,1.62.14h0c.5.25.83.66,1,1.21.17.58.11,1.11-.19,1.6-.28.48-.7.8-1.25.97-.57.17-1.12.14-1.64-.1h0c-.5-.27-.84-.69-1-1.24-.17-.56-.11-1.08.16-1.56.27-.5.71-.84,1.3-1.02Z"/><path class="e" d="M122.96,21.17c.38-.12.74-.1,1.05.04h0c.31.13.51.37.59.71h0c.23,1.15.64,2.9,1.25,5.25l.66,2.55c.97,3.67,1.89,6.97,2.77,9.89.45,1.49.82,2.66,1.11,3.5.15.42.27.76.38,1.02.08.2.15.34.21.44l.05.08h0s.19.29.19.29c.19.28.38.51.56.69.26.22.46.28.61.23.05-.01.1,0,.13.02.03.02.06.05.08.09.04.06.08.16.11.27.1.34.04.68-.16,1.03-.2.34-.48.57-.84.68-.24.07-.47.08-.68.02h0c-.35-.08-.74-.26-1.16-.54h0c-.37-.28-.7-.7-.98-1.24-.25.77-.68,1.47-1.28,2.11l-.3.29c-.83.77-1.85,1.33-3.04,1.69-1.35.41-2.68.53-3.97.36l-.26-.04c-1.29-.21-2.46-.75-3.49-1.62l-.21-.18c-1.09-.99-1.9-2.37-2.43-4.14-.48-1.61-.57-3.1-.26-4.48l.06-.26c.33-1.27.97-2.37,1.92-3.29l.2-.19c1-.91,2.25-1.6,3.76-2.05,1.15-.35,2.22-.48,3.19-.39l.36.03c.74.08,1.38.26,1.94.53l-.13-.42-1.93-7.07h0s-.28-1.12-.28-1.12c-.27-1.12-.52-2.25-.74-3.39h0s-.01-.12-.01-.12c-.02-.27.04-.53.18-.76l.07-.1c.16-.22.4-.37.7-.46ZM120.28,36.69c-1.57.47-2.71,1.3-3.42,2.47l-.14.24c-.7,1.3-.78,2.84-.24,4.64.39,1.29.97,2.28,1.74,2.96l.3.24c.71.54,1.48.87,2.3,1.01h0c.94.13,1.84.07,2.71-.19.86-.26,1.62-.69,2.28-1.28l.24-.24c.54-.56.94-1.17,1.2-1.84.29-.78.32-1.54.1-2.27-.27-.9-.48-1.62-.62-2.16l-.73-2.53c-.53-.52-1.32-.92-2.38-1.19-1.07-.27-2.18-.23-3.35.12Z"/><path class="e" d="M100.62,39.85c1.57-.47,3.07-.56,4.51-.28l.27.05c1.34.29,2.52.93,3.54,1.92l.2.2c1,1,1.74,2.32,2.22,3.94.71,2.35.61,4.39-.31,6.11l-.19.34c-1.08,1.75-2.83,2.98-5.24,3.71-2.33.7-4.45.67-6.38-.11h0c-1.92-.79-3.27-2.51-4.06-5.14-.49-1.65-.62-3.18-.37-4.61h0s.05-.27.05-.27c.29-1.34.9-2.51,1.82-3.51l.19-.2c.97-.97,2.21-1.68,3.74-2.14ZM101.32,41.95c-1.65.5-2.8,1.45-3.47,2.88h0c-.64,1.42-.69,3.06-.13,4.92.59,1.97,1.55,3.22,2.88,3.8,1.34.58,2.78.64,4.33.18,1.61-.49,2.8-1.36,3.56-2.61l.14-.24c.64-1.23.71-2.71.19-4.46-.36-1.21-.93-2.21-1.69-2.99h0c-.75-.81-1.62-1.33-2.64-1.57h0c-1-.27-2.05-.24-3.16.1Z"/><path class="e" d="M82.45,45.31c1.57-.47,3.07-.56,4.51-.28l.27.05c1.34.29,2.52.93,3.54,1.92l.2.2c1,1,1.74,2.32,2.22,3.94.71,2.35.61,4.39-.31,6.11l-.19.34c-1.08,1.75-2.83,2.98-5.24,3.71-2.33.7-4.45.67-6.38-.11h0c-1.92-.79-3.27-2.51-4.06-5.14-.49-1.65-.62-3.18-.37-4.61h0s.05-.27.05-.27c.29-1.34.9-2.51,1.82-3.51l.19-.2c.97-.97,2.21-1.68,3.74-2.14ZM83.15,47.41c-1.65.5-2.8,1.45-3.47,2.88h0c-.64,1.42-.69,3.06-.13,4.92.59,1.97,1.55,3.22,2.88,3.8,1.34.58,2.78.64,4.33.18,1.61-.49,2.8-1.36,3.55-2.61l.14-.24c.64-1.23.71-2.71.19-4.46-.36-1.21-.93-2.21-1.69-2.99h0c-.75-.81-1.62-1.33-2.64-1.57h0c-1-.27-2.05-.24-3.16.1Z"/><path class="e" d="M60.65,46.05c1.46-.44,2.8-.56,4.01-.36l.45.07c.94.18,1.77.48,2.5.9l-.11-.37c-.1-.32-.09-.62.05-.88l.06-.11c.18-.29.47-.5.85-.61.36-.11.68-.11.96,0l.11.04c.24.11.4.28.47.5.22.73.37,1.34.46,1.84.09.5.11.89.07,1.18h0c-.04.28-.15.51-.33.7-.18.19-.43.33-.74.42-.24.07-.47.09-.69.07h0s0,0,0,0c-.23-.05-.52-.17-.89-.35l-.56-.26c-.36-.16-.69-.3-.99-.42l-.43-.16c-.54-.19-1.15-.29-1.83-.3h0c-.67-.04-1.42.07-2.27.32-1.6.48-2.89,1.28-3.87,2.38-.99,1.11-1.62,2.4-1.91,3.87-.28,1.47-.2,2.97.26,4.49.46,1.52,1.21,2.81,2.26,3.88l.2.19c1,.95,2.16,1.59,3.48,1.94h0c1.43.36,2.91.31,4.45-.15,1.84-.55,3.02-1.5,3.58-2.84h0s.1-.26.1-.26c.47-1.29.45-2.94-.05-4.93l-4.25,1.18c-.39.11-.73.1-1.01-.03-.27-.14-.46-.4-.57-.76-.12-.39-.09-.73.1-1.01.2-.3.48-.49.84-.58h0s7.34-2.04,7.34-2.04h0c.41-.12.76-.13,1.04,0,.29.13.48.39.59.75.11.37.09.7-.06,1h0c-.17.28-.44.45-.81.54h0s-.71.18-.71.18c.73,2.84.67,5.22-.18,7.13h0c-.87,1.92-2.61,3.26-5.18,4.03-2.08.62-4.07.7-5.97.21h0c-1.88-.49-3.5-1.42-4.85-2.79h0c-1.33-1.38-2.29-3.03-2.87-4.97-.58-1.94-.68-3.84-.3-5.71l.08-.35c.4-1.74,1.2-3.28,2.38-4.6l.24-.26c1.22-1.28,2.74-2.19,4.56-2.74Z"/><path class="e" d="M220.14,70.99c.49-.15.97-.1,1.43.15l.17.1c.37.24.63.61.78,1.1.17.56.13,1.07-.13,1.52-.25.45-.63.74-1.12.89-.51.15-.99.11-1.45-.12h0c-.45-.24-.75-.65-.92-1.2-.17-.56-.13-1.07.13-1.52.25-.46.62-.77,1.11-.92ZM216.72,53.89l.03.1.9,3.18h0s2.59,10.57,2.59,10.57l.02.09-1.95.59-.03-.09-3.66-10.24h0s-1-3.15-1-3.15l-.03-.1,3.14-.95Z"/><path class="e" d="M190.03,60.57l.02.12c.03.24.08.51.13.81.07.29.15.63.25,1.03.08.27.19.67.34,1.21l.1.33c.61-.22,1.23-.44,1.85-.67l.65-.25c1.52-.59,3-1.24,4.43-1.95l.11-.05.03.11.56,1.97.02.09-.08.03c-.95.4-1.99.83-3.12,1.29-.85.34-1.72.68-2.61,1.02l-.9.33c-.11.04-.22.08-.33.12l1.01,3.35c.02.08.05.16.07.23.07-.03.14-.05.22-.07l.9-.33c.9-.33,1.77-.68,2.63-1.02l.87-.37c.86-.37,1.7-.75,2.53-1.15l.11-.05.03.11.58,2.02.02.08-.08.04c-.86.39-1.72.77-2.59,1.13h0c-.43.17-.86.33-1.29.5l-1.31.49c-.64.23-1.29.47-1.96.7.05.16.11.33.16.49l.5,1.44c.17.47.33.93.5,1.39l.22.61c1.18-.02,2.3.05,3.36.22l.87.15c.85.17,1.65.37,2.38.6l.7.22c.67.22,1.25.43,1.73.64l.08.03-.02.08-.66,2.27-.03.12-.11-.05c-.78-.39-1.65-.74-2.62-1.07h0c-.95-.33-1.97-.6-3.06-.8h0c-.59-.11-1.21-.19-1.83-.22.22.62.39,1.13.51,1.52.19.64.22,1.3.09,1.98h0c-.12.68-.48,1.31-1.08,1.89h0c-.58.6-1.47,1.07-2.66,1.43-1.94.58-3.54.69-4.79.31h0c-1.25-.36-2.08-1.21-2.47-2.53-.25-.84-.23-1.65.08-2.43h0s.14-.29.14-.29c.29-.57.73-1.1,1.31-1.58l.3-.24c.83-.65,1.9-1.16,3.19-1.55.74-.22,1.48-.39,2.2-.51l-.29-.87c-.3-.88-.59-1.72-.87-2.54-.46.14-.93.29-1.41.43-.3.09-.63.19-.99.28l-1.15.3c-.4.1-.8.2-1.21.3l-1.24.29c-.82.19-1.57.34-2.23.47l-.09.02-.03-.08-.63-2-.03-.11.12-.02c.5-.07,1.06-.16,1.67-.27l.46-.08c.46-.09.93-.19,1.41-.3.64-.15,1.24-.3,1.82-.43h0c.58-.15,1.09-.3,1.53-.43.46-.14.91-.28,1.35-.42-.03-.1-.06-.2-.09-.3l-.98-3.27c-.36.12-.72.23-1.08.34-.47.14-1.01.29-1.62.44l-.63.15c-.44.1-.87.2-1.31.3l-1.3.28c-.84.18-1.56.32-2.15.44l-.09.02-.03-.09-.62-1.98-.04-.11.12-.02c.47-.06,1-.15,1.62-.25.61-.11,1.25-.22,1.91-.34h0c.68-.14,1.31-.29,1.91-.43h0c.61-.16,1.14-.31,1.59-.45.37-.11.74-.23,1.11-.35l-.07-.25-.23-.82c-.07-.26-.14-.51-.21-.74-.03-.11-.07-.23-.12-.36l-.16-.45c-.12-.33-.22-.58-.31-.74l-.06-.11,2.51-.75ZM190.3,78.41c-1.28.38-2.18.89-2.71,1.5-.52.61-.67,1.2-.5,1.79.11.37.33.68.67.94.33.23.79.37,1.38.4h.23c.55,0,1.21-.12,1.97-.35.38-.12.73-.26,1.04-.43l.3-.18c.37-.26.62-.59.76-.98h0s.05-.16.05-.16c.1-.36.08-.8-.08-1.32-.14-.46-.33-1.03-.57-1.72-.84.08-1.69.25-2.56.51Z"/><path class="e" d="M157.77,83.83l2.24-.15h.14s-.04.13-.04.13c-.2.76-.32,1.47-.37,2.14-.04.64.04,1.28.23,1.91.19.62.48,1.11.88,1.48.4.37.91.61,1.54.74,1.26.25,2.88.1,4.87-.48,1.38-.4,2.62-.83,3.72-1.29h0s.82-.36.82-.36c.79-.36,1.51-.72,2.16-1.09l.12-.06.03.13.54,2.18.02.08-.07.04c-.59.29-1.26.61-2.04.95l-.8.35c-1.11.47-2.42.93-3.92,1.38h0c-1.71.5-3.26.73-4.65.69h0c-1.37-.04-2.53-.36-3.47-.98h0c-.95-.63-1.61-1.57-1.98-2.81-.22-.74-.33-1.51-.31-2.31h0s.03-.62.03-.62c.04-.63.12-1.28.22-1.96v-.08s.09,0,.09,0ZM163.48,68.52c.24.49.54,1.04.9,1.65l.27.45c.28.45.57.9.88,1.36l.48.67c.41-.19.82-.38,1.25-.59h0s.57-.28.57-.28c.57-.29,1.12-.59,1.66-.92l.54-.32c.53-.32,1.03-.64,1.5-.96l.1-.07.05.11.87,2.02.03.08-.07.05c-.43.29-.89.58-1.4.86l-.52.28c-.35.18-.71.37-1.07.55l-1.07.53c-.36.18-.72.35-1.06.5.59.73,1.24,1.45,1.94,2.15l.71.68c.69.65,1.33,1.21,1.92,1.67l.4.28c.13.09.27.18.4.27l.8.52.07.04-.03.07-.65,1.83-.02.06h-.06c-.17.02-.37.04-.59.07l-.75.11c-.54.08-1.13.19-1.77.33h0c-.31.06-.63.11-.94.17l-.94.19c-.62.13-1.18.25-1.67.36l-.1.02-.02-.1-.38-1.84-.02-.1.1-.02c.51-.11,1.05-.23,1.62-.34l1.66-.32h0c.43-.1.79-.17,1.09-.23-.5-.43-1.05-.92-1.64-1.46h0c-.66-.62-1.32-1.29-1.97-1.99h0c-.45-.5-.87-1.01-1.28-1.5-1.13.45-2.36.89-3.68,1.32l-.78.25c-2.09.65-4.35,1.23-6.77,1.74l-.09.02-.03-.08-.7-2.13-.04-.11.11-.02,1.15-.21c1.14-.22,2.24-.46,3.3-.72l1.06-.27c1.04-.28,2.02-.57,2.95-.88l.92-.31c.42-.15.82-.29,1.2-.44l-.48-.68c-.38-.55-.7-1.01-.97-1.37h0c-.17-.26-.38-.56-.62-.9h0c-.22-.34-.44-.67-.68-.99l-.07-.1.11-.05,2.19-.98.09-.04.04.09Z"/><path class="e" d="M128.68,79.01l2.54-.68.11-.03v.12c.03.19.06.43.1.72l.15,1.04c.1.66.23,1.43.4,2.29.01,0,.02-.01.03-.02l.06-.04.06.04,1.06.7.07.04-.03.07c-.1.26-.19.58-.29.96h0s-.31,1.12-.31,1.12c-.01.05-.03.1-.04.15.05.27.11.54.17.82.04.17.08.34.11.51.38-.63.81-1.29,1.29-1.99h0s.39-.54.39-.54c.4-.53.82-1.05,1.27-1.55l.46-.49c.46-.47.93-.89,1.41-1.25h0s.25-.18.25-.18c.58-.4,1.16-.69,1.75-.87.85-.26,1.61-.32,2.27-.18l.24.05c.56.15,1.03.44,1.42.86l.16.18c.36.44.64.98.83,1.61.2.67.38,1.46.54,2.37.17.89.32,1.82.46,2.79h0c.15.97.31,1.9.46,2.81.17.9.36,1.69.56,2.36.13.43.34.76.63,1.01l.12.08c.28.16.61.19,1.01.07.62-.19,1.21-.56,1.77-1.13l.21-.23c.49-.56.93-1.23,1.34-2.03l.09-.18.09.18,1.04,2.2.02.05-.02.04c-.51.94-1.11,1.73-1.83,2.38h0c-.72.63-1.55,1.09-2.49,1.38-.9.27-1.73.2-2.48-.22-.76-.42-1.3-1.21-1.63-2.33-.23-.75-.42-1.59-.58-2.5l-.23-1.38c-.08-.47-.15-.94-.23-1.41-.15-.97-.3-1.88-.44-2.73l-.11-.63c-.12-.61-.25-1.16-.4-1.66-.23-.76-.57-1.22-1.01-1.43h0c-.45-.23-1.01-.25-1.7-.05-.61.18-1.23.57-1.88,1.17h0c-.66.58-1.29,1.31-1.9,2.17h0c-.62.85-1.2,1.77-1.73,2.76h0c-.26.46-.5.92-.72,1.38h0c.28,1.12.56,2.16.85,3.1l.68,2.25c.2.68.42,1.35.64,2.03l.35,1.03c.12.36.25.73.39,1.12h0c.09.23.19.49.29.79l.16.42c.06.13.11.26.17.38l.05.11-2.55.77-.02-.11c-.04-.26-.1-.53-.19-.83h0s-.1-.41-.1-.41c-.03-.13-.07-.24-.1-.35h0s-.34-1.22-.34-1.22c-.11-.38-.21-.74-.31-1.07l-.61-2.04-.71-2.56-.2-.7s0,0,0-.01l-.75,2.38c-.27.86-.54,1.72-.83,2.59h0c-.29.85-.55,1.63-.79,2.34l-.04.13-.11-.08-1.92-1.44-.06-.05.03-.07c.21-.51.46-1.13.73-1.85l.43-1.16c.14-.4.29-.81.43-1.23h0s.89-2.49.89-2.49l.21-.61c.2-.59.38-1.15.54-1.66h0s.15-.49.15-.49c.04-.14.08-.27.12-.4-.13-.57-.27-1.15-.4-1.74l-.19-.83c-.1.05-.21.1-.33.16h0s-1.42.63-1.42.63c-.53.24-1.07.49-1.61.75h0c-.55.24-1.06.48-1.54.7l-.1.04-.04-.1-.88-2.13-.04-.11.11-.03c.29-.07.56-.14.83-.22.28-.1.58-.21.9-.33h0l.61-.23.72-.29,1.65-.73c.22-.1.44-.21.65-.31-.12-.55-.23-1.03-.33-1.45l-.16-.68c-.04-.18-.08-.31-.11-.4-.09-.3-.2-.62-.32-.95h0s0,0,0,0c-.1-.33-.23-.66-.38-.98l-.05-.11.12-.03Z"/><path class="e" d="M112.98,87.65l.75,2.49,5.47-1.64.3-.15h.02s.02,0,.02,0l1.46-.12h.11s0,.1,0,.1c-.01.86-.06,1.76-.13,2.68h0c-.06.92-.14,1.7-.26,2.34v.07s-.09,0-.09,0l-1.77.15h-.12s.02-.11.02-.11c.08-.58.13-1.29.15-2.11h0s.02-.63.02-.63c0,0,0-.02,0-.03l-4.6,1.38,1.04,3.45,3.86-1.16.31-.18h.03s.03-.01.03-.01l1.41.1h.09v.1c0,1.78-.21,3.44-.65,4.99h0c-.37,1.29-.89,2.48-1.54,3.59,2.16.64,4.57.83,7.22.57l.19-.02-.09.16c-.13.25-.28.58-.42.99h0c-.13.41-.22.76-.26,1.06v.08s-.09,0-.09,0c-2.23.12-4.3-.05-6.21-.51-.55-.14-1.08-.29-1.6-.48-.49.64-1.03,1.24-1.6,1.82l-.41.4c-1.1,1.03-2.3,1.97-3.61,2.82l-.08.05-.06-.08c-.16-.22-.39-.46-.71-.73h0c-.29-.26-.55-.46-.78-.6l-.15-.09.15-.09c1.2-.71,2.33-1.52,3.37-2.44l.38-.35c.53-.5,1.02-1.04,1.47-1.59-.43-.23-.86-.47-1.27-.74l-.29-.2c-1.46-1.01-2.79-2.29-3.99-3.82l-.78.24c.07.32.14.65.21.98.23,1.09.38,2.23.44,3.42.08,1.19.04,2.38-.13,3.57-.17,1.19-.51,2.35-1.02,3.46l-.05.12-.1-.08c-.12-.09-.29-.19-.53-.29l-.33-.12-.34-.11c-.23-.07-.43-.11-.59-.14l-.13-.02.06-.12c.5-1.04.82-2.09.96-3.16h0s.06-.4.06-.4c.11-.94.13-1.87.06-2.8h0s-.07-.79-.07-.79c-.08-.78-.2-1.53-.35-2.25l-.17-.73c-.17-.71-.35-1.39-.55-2.03l-1.56-5.19,6.6-1.98-.75-2.49,2.01-.61ZM109.63,83.39l.73,2.41,9.63-2.89.58,1.93-18.61,5.59,2.06,6.85c.31,1.04.6,2.18.85,3.41h0c.27,1.23.46,2.5.56,3.82.12,1.3.08,2.6-.09,3.9h0c-.16,1.31-.51,2.54-1.07,3.71l-.05.12-.1-.09c-.12-.11-.3-.22-.52-.35l-.68-.32c-.22-.1-.41-.17-.56-.2l-.13-.02.05-.12c.5-1.1.82-2.22.96-3.36.14-1.15.15-2.29.04-3.44h0s-.04-.43-.04-.43c-.06-.57-.13-1.13-.23-1.68-.09.1-.17.19-.26.29l-.47.51c-.62.65-1.22,1.29-1.79,1.91l-.08.09-.07-.09-1.23-1.56-.06-.07.07-.06c.26-.23.54-.49.84-.77l.96-.91c.52-.51,1.06-1.04,1.6-1.59-.18-.72-.37-1.41-.57-2.07l-2.64-8.78,8.77-2.64-.73-2.41,2.28-.69ZM112.18,98.53c1.32,1.57,2.88,2.78,4.67,3.64.59-.96,1.06-1.98,1.4-3.06h0s.15-.5.15-.5c.19-.67.32-1.36.4-2.07l-6.63,1.99ZM108.73,97.33c.02.06.03.11.05.17l4.56-1.37-1.04-3.45-4.56,1.37.99,3.28ZM98.01,92.23c.68.72,1.33,1.51,1.95,2.38l.44.63c.41.61.73,1.17.95,1.66l.03.07-.06.05-1.39,1.21-.1.09-.05-.13c-.2-.46-.46-.96-.8-1.5h0c-.26-.42-.54-.84-.84-1.27l-.31-.43c-.42-.57-.86-1.1-1.29-1.59l-.07-.08.08-.07,1.32-1.04.07-.06.06.07Z"/><path class="e" d="M78.39,93.98v.12c.02.08.03.17.04.27l.06.31.14.66c.05.24.1.46.14.66.11.42.24.96.4,1.63.1.37.21.77.32,1.19l.6-.26c.84-.39,1.64-.78,2.41-1.19l.57-.32c.55-.32,1.06-.62,1.5-.92l.11-.07.04.12.68,2.08.03.08-.07.04c-.65.37-1.38.77-2.19,1.19h0c-.61.3-1.24.6-1.88.88l-.64.29c-.19.08-.38.16-.56.24.12.43.24.86.36,1.3h0c.22.81.44,1.56.65,2.26l.24.79c.69-.46,1.39-.88,2.13-1.26l.45-.23c1.03-.52,2.01-.92,2.94-1.2,1.32-.4,2.55-.52,3.7-.37h0c1.17.14,2.17.53,3,1.18h0c.85.62,1.43,1.48,1.76,2.57.33,1.08.39,2.12.19,3.09h0c-.19.97-.63,1.87-1.33,2.69h0c-.68.82-1.6,1.57-2.75,2.25h0c-.56.31-1.13.57-1.71.78h0c-.55.22-1.06.43-1.51.6l-.07.03-.05-.06-1.4-1.95-.09-.12.14-.04c.5-.13,1.02-.29,1.55-.46l.4-.14c.39-.15.76-.32,1.11-.51h0s.27-.15.27-.15c.63-.35,1.19-.75,1.69-1.22l.21-.21c.47-.5.81-1.05,1.01-1.64h0s.08-.26.08-.26c.17-.6.15-1.25-.06-1.94-.23-.75-.61-1.31-1.16-1.69-.48-.34-1.04-.55-1.69-.63l-.28-.03c-.76-.06-1.57.04-2.42.29-1.03.31-2,.71-2.93,1.19l-.39.21c-.72.4-1.42.85-2.13,1.36.2.61.4,1.22.59,1.83l.39,1.16c.12.37.24.73.34,1.08l.3.91c.09.27.16.51.22.72.25.83.35,1.52.3,2.08-.05.56-.23,1-.55,1.32h0c-.29.33-.69.57-1.18.72-.53.16-1.16.21-1.89.15h0c-.72-.04-1.44-.18-2.17-.41h0c-.71-.24-1.33-.58-1.88-1.01-.55-.43-.92-.96-1.1-1.57-.25-.83-.18-1.73.21-2.7h0s.16-.36.16-.36c.39-.85.93-1.69,1.62-2.53h0l.31-.36c.56-.63,1.16-1.21,1.8-1.75-.15-.5-.3-.99-.45-1.46l-.74-2.47-.27-.96c-.69.27-1.31.49-1.85.65-.38.12-.74.22-1.07.31l-.9.25c-.53.14-1.03.25-1.52.34h-.09s-.03-.07-.03-.07l-.67-2.02-.04-.11.11-.02c.76-.13,1.4-.25,1.92-.37h0c.54-.14,1.06-.29,1.56-.44.59-.18,1.23-.4,1.93-.67-.17-.6-.32-1.14-.47-1.62h0s-.22-.81-.22-.81c-.06-.22-.11-.4-.15-.54-.05-.18-.12-.38-.21-.6h0s-.12-.37-.12-.37l-.13-.35c-.09-.22-.17-.4-.24-.52l-.06-.11,2.63-.79ZM80.14,108.92c-.4.37-.77.76-1.1,1.17h0c-.57.68-.99,1.33-1.26,1.97-.25.63-.3,1.16-.17,1.59.08.28.26.53.52.74l.22.14c.23.13.48.25.75.34l.27.08c.27.07.55.12.82.13h0c.36,0,.66-.03.9-.1.28-.08.45-.24.53-.47h0s.03-.1.03-.1c.07-.23.05-.53-.07-.91-.08-.26-.17-.57-.28-.92l-.39-1.21c-.25-.76-.51-1.58-.78-2.44ZM87.53,94.49c.75.15,1.59.34,2.52.59h0c.93.23,1.82.48,2.68.75h0c.88.26,1.59.51,2.13.74l.08.03-.02.09-.58,2.05-.03.12-.11-.06c-.41-.22-.92-.43-1.52-.64h0c-.61-.22-1.25-.43-1.93-.61h0c-.68-.2-1.35-.38-2-.54h0c-.66-.17-1.23-.31-1.73-.41l-.1-.02.03-.1.48-1.9.02-.09.09.02Z"/><path class="f" d="M215.33,35.27l.1-.03c.5-.1,1,.19,1.15.68.16.49-.09,1.02-.56,1.22l-.1.04L56.93,87.18c-.53.17-1.09-.13-1.25-.65-.17-.53.13-1.09.65-1.25l159-50Z"/><path class="g" d="M347.92,46.68c-.2-.1-.32-.24-.36-.41-.04-.19,0-.41.13-.65l5.44-10.95c.12-.24.28-.4.47-.47.19-.07.39-.06.6.05.2.1.31.25.35.44.05.2.02.42-.11.66l-5.44,10.84c-.12.24-.29.41-.49.52-.2.09-.4.08-.59-.02ZM345.84,50.51c-.38-.19-.63-.5-.77-.91-.12-.43-.09-.83.1-1.21.18-.35.47-.59.88-.72.41-.13.81-.1,1.18.09.36.19.62.49.77.91.15.42.13.8-.05,1.15-.19.36-.5.61-.95.74-.43.14-.83.12-1.17-.06Z"/><path class="g" d="M337.39,24.51c1,.51,1.73,1.26,2.2,2.24.48.97.65,2.1.52,3.39-.11,1.3-.54,2.67-1.28,4.12-.74,1.45-1.61,2.6-2.6,3.45-.97.86-2,1.38-3.07,1.57-1.07.19-2.11.04-3.11-.48-.98-.5-1.71-1.25-2.2-2.24-.47-.98-.65-2.13-.53-3.42.13-1.29.56-2.66,1.31-4.11.74-1.45,1.6-2.6,2.58-3.46.99-.85,2.02-1.36,3.08-1.54,1.09-.19,2.12-.03,3.1.48ZM336.53,26.19c-.65-.33-1.34-.4-2.07-.2-.72.18-1.44.62-2.15,1.3-.69.68-1.32,1.57-1.88,2.67-.57,1.1-.93,2.14-1.08,3.11-.13.96-.06,1.8.2,2.51.27.71.72,1.23,1.37,1.56.66.34,1.36.41,2.09.22.73-.2,1.44-.63,2.13-1.31.71-.68,1.35-1.58,1.92-2.68.57-1.1.92-2.14,1.05-3.1.15-.97.09-1.8-.18-2.5-.27-.71-.73-1.23-1.4-1.58ZM347.75,27.82l1.86.95-10.53,20.54-1.86-.95,10.53-20.54ZM338.69,33.04l5.89,3.02-.78,1.52-5.89-3.02.78-1.52Z"/><path class="g" d="M327.36,17.39l1.79.92-6.51,12.69-1.79-.92,6.51-12.69ZM321.13,21.29l3.88,1.99-.79,1.54-3.88-1.99.79-1.54ZM322.85,15.48l1.77.91-6.18,12.06-1.77-.91,6.18-12.06ZM310.58,11.7l10.38,5.32-.78,1.52-10.38-5.32.78-1.52ZM314.5,16.92c.86.44,1.54.98,2.03,1.62.52.63.82,1.3.91,2.01.12.71,0,1.42-.38,2.13-.36.7-.86,1.21-1.51,1.55-.63.34-1.36.5-2.18.46-.8-.05-1.63-.29-2.49-.73-.85-.43-1.53-.97-2.05-1.59-.51-.64-.81-1.32-.9-2.04-.09-.71.04-1.42.4-2.11.36-.71.86-1.23,1.49-1.56.63-.34,1.36-.49,2.17-.43.82.04,1.65.28,2.5.71ZM313.77,18.32c-.79-.4-1.52-.54-2.22-.42-.69.12-1.21.51-1.54,1.16-.33.63-.34,1.28-.04,1.92.31.63.85,1.15,1.64,1.55.8.41,1.54.55,2.22.42.7-.14,1.21-.52,1.54-1.16.33-.65.35-1.29.04-1.92-.29-.63-.84-1.14-1.64-1.55ZM316.02,11.66l1.86.95-1.62,3.15-1.86-.95,1.62-3.15ZM310.45,25.52l1.47.76-.35.68c-.44.86-1.07,1.61-1.87,2.25-.78.63-1.69,1.09-2.71,1.38-1.03.29-2.13.37-3.32.22l-.15-1.88c1.01.15,1.95.13,2.82-.07.89-.21,1.66-.55,2.3-1.02.66-.46,1.15-1.01,1.46-1.63l.35-.68ZM310.88,25.74l1.4.72-.35.68c-.33.65-.54,1.37-.63,2.17-.06.79.04,1.59.32,2.4.27.81.73,1.58,1.37,2.3l-1.5,1.03c-.79-.88-1.33-1.83-1.61-2.83-.28-.98-.35-1.97-.22-2.98.13-1,.42-1.94.87-2.82l.35-.68ZM317.98,29.38l1.4.72-.35.68c-.4.77-.96,1.5-1.7,2.19-.74.69-1.6,1.23-2.6,1.61-.99.41-2.07.56-3.24.46l-.06-1.83c.99.05,1.89-.07,2.7-.36.83-.28,1.55-.68,2.15-1.19.61-.51,1.05-1.05,1.34-1.6l.35-.68ZM318.39,29.59l1.45.74-.35.68c-.34.66-.52,1.4-.54,2.22,0,.81.19,1.62.56,2.43.36.82.9,1.58,1.61,2.28l-1.62.97c-.82-.86-1.41-1.78-1.78-2.78-.38-.98-.54-1.97-.47-2.99.06-1.02.33-1.98.79-2.89l.35-.68Z"/><path class="g" d="M295.25,2.92l1.52.78-.84,1.63c-.6,1.18-1.4,2.14-2.4,2.89-.99.75-2.12,1.27-3.38,1.56-1.23.28-2.52.31-3.87.07l-.17-1.95c1.21.22,2.35.22,3.43.01,1.1-.2,2.07-.59,2.92-1.17.85-.58,1.5-1.31,1.96-2.2l.84-1.63ZM295.59,3.1l1.54.79-.83,1.61c-.41.8-.59,1.68-.55,2.64.05.94.31,1.89.78,2.83s1.13,1.83,1.99,2.65l-1.64,1.02c-.98-.92-1.72-1.94-2.24-3.06-.49-1.13-.74-2.29-.74-3.47.01-1.18.3-2.31.86-3.4l.82-1.61ZM290.92.1l10.97,5.63-.79,1.54-10.97-5.63.79-1.54ZM305.07,5.93l1.88.96-5.42,10.56-1.88-.96,5.42-10.56ZM303.83,10.93l3.85,1.98-.79,1.54-3.85-1.98.79-1.54ZM288.01,11.75l13.03,6.68-2.55,4.96-11.13-5.71-1.62,3.15-1.84-.94,2.34-4.56,11.11,5.7,1.07-2.09-11.18-5.73.76-1.47ZM284.33,19.08l13.69,7.02-.76,1.47-13.69-7.02.76-1.47Z"/><path class="g" d="M329.62,81.91c-.17-.09-.28-.21-.32-.36-.03-.17,0-.36.12-.57l4.76-9.58c.11-.21.25-.35.41-.41.17-.06.34-.05.53.05.17.09.27.22.31.38.04.17.01.37-.1.58l-4.76,9.48c-.11.21-.25.36-.43.45-.17.08-.35.07-.52-.02ZM327.81,85.26c-.33-.17-.55-.43-.67-.79-.11-.37-.08-.73.09-1.06.16-.3.41-.51.77-.63.36-.12.71-.09,1.04.08.32.16.54.43.67.79s.12.7-.04,1.01c-.16.32-.44.53-.83.65-.38.12-.72.11-1.03-.05Z"/><path class="g" d="M322.25,62.64l8.73,4.48-.71,1.39-8.73-4.48.71-1.39ZM317.99,69.28l10.91,5.59-.72,1.41-10.91-5.59.72-1.41ZM324.02,69.04l1.49.76-5.64,11.01c-.23.45-.47.76-.71.94-.24.18-.55.25-.94.22-.37-.06-.83-.21-1.37-.45-.55-.23-1.22-.55-2.01-.96.06-.22.11-.5.14-.86.04-.33.06-.63.06-.9.63.34,1.19.64,1.7.89.49.27.83.44,1.01.52.18.07.31.1.39.07.09-.02.18-.1.25-.25l5.64-11.01ZM330.44,66.84l.36.18.34.07.63,1.22c-.69.37-1.44.71-2.26,1.04-.81.32-1.64.59-2.48.83-.83.24-1.62.43-2.37.56-.03-.2-.09-.43-.19-.7-.08-.27-.15-.49-.22-.64.66-.11,1.36-.29,2.1-.53.75-.25,1.46-.53,2.15-.83.7-.29,1.29-.59,1.78-.89l.17-.34ZM312.66,61.61l6.54,3.36-.72,1.41-6.55-3.36.72-1.41ZM317.75,59.06l1.35.89c-.71.89-1.47,1.84-2.28,2.84s-1.65,2-2.49,3c-.85,1-1.67,1.96-2.45,2.88s-1.51,1.72-2.17,2.42l-.88-1.3c.6-.65,1.27-1.4,2.02-2.27.77-.88,1.56-1.8,2.37-2.77.82-.98,1.62-1.96,2.4-2.93.79-.98,1.5-1.9,2.14-2.76ZM309.84,69.53l1.37-.62c.53.79,1.05,1.66,1.55,2.6.51.93.95,1.84,1.33,2.74.39.9.66,1.7.8,2.39l-1.53.74c-.13-.69-.38-1.49-.74-2.41-.35-.91-.76-1.85-1.25-2.79-.48-.95-.99-1.83-1.53-2.64ZM318.71,64.71l.24.12.28.09.8.64c-1.48,2.46-2.96,4.48-4.45,6.04-1.46,1.55-2.95,2.71-4.46,3.47-1.51.76-3.06,1.19-4.65,1.3,0-.23-.03-.52-.09-.85-.06-.31-.13-.58-.21-.81,1.4-.03,2.8-.4,4.2-1.1,1.4-.72,2.79-1.79,4.15-3.21,1.37-1.43,2.71-3.23,4.03-5.37l.16-.32Z"/><path class="g" d="M301.36,56.24l-.83,1.63,6.56,3.37.83-1.63-6.57-3.37ZM302.73,53.56l-.81,1.59,6.57,3.37.81-1.59-6.56-3.37ZM301.86,51.69l9.5,4.87-3.37,6.56-9.5-4.87,3.37-6.56ZM296.57,58.97l11.68,5.99-.65,1.27-11.68-5.99.65-1.27ZM294.59,61.71l12.47,6.4-.66,1.29-12.48-6.4.66-1.29ZM303.57,63.94l1.49.76-3.58,6.98c-.2.4-.41.67-.63.83-.22.17-.51.24-.88.2-.35-.04-.77-.18-1.27-.4-.5-.22-1.12-.53-1.86-.91.08-.21.13-.48.16-.8.04-.3.05-.57.04-.81.56.3,1.06.57,1.5.79.45.23.75.38.9.44.18.07.3.1.37.06.07-.01.14-.08.2-.2l3.57-6.96ZM295.14,64.9l1.41-.15c.25.65.49,1.36.71,2.14.22.77.36,1.41.41,1.94l-1.55.23c-.02-.35-.09-.76-.2-1.23-.1-.49-.22-.98-.36-1.49-.12-.51-.26-.99-.41-1.44ZM297.13,54.07l1.05,1.19c-.86.56-1.78,1.08-2.78,1.56-.99.46-1.99.86-2.99,1.2-1.01.34-1.98.6-2.91.79.02-.13.02-.31.03-.54,0-.23,0-.47-.01-.71-.01-.24-.03-.44-.04-.6.82-.13,1.68-.33,2.59-.6.91-.27,1.79-.59,2.65-.97.87-.39,1.68-.83,2.42-1.31ZM299.02,49.51l1.12,1.28c-.68.39-1.44.73-2.28,1.03-.83.31-1.67.57-2.53.78-.86.21-1.68.36-2.47.46,0-.15,0-.32-.03-.52-.01-.21-.03-.41-.06-.61-.01-.21-.03-.38-.06-.51.7-.07,1.44-.2,2.2-.38.78-.18,1.53-.4,2.24-.65.72-.27,1.35-.56,1.88-.89ZM293.56,56.65l2.12-.67.02.06-5.98,11.66-1.45-.74,5.29-10.31Z"/><path class="g" d="M275.59,39.22l15.79,8.1-.78,1.53-15.79-8.1.78-1.53ZM271.17,45.34l17.71,9.08-.79,1.55-17.71-9.08.79-1.55ZM282.28,43.27l1.65.84-8.37,16.32-1.65-.84,8.37-16.32Z"/><path class="h" d="M350.65,64.2l.07.04c.35.21.48.65.3,1.02s-.6.54-.98.41l-.08-.03-81.83-38.94c-.4-.19-.57-.66-.38-1.06.19-.4.66-.57,1.06-.38l81.83,38.94Z"/><path class="e" d="M151.86,199.25c.45-.13.9-.09,1.35.14l.16.09c.36.22.6.52.71.9.13.45.07.91-.19,1.36h0c-.24.45-.58.75-1.01.88-.46.14-.92.09-1.35-.14h0c-.44-.25-.73-.61-.87-1.07-.13-.43-.07-.86.16-1.29l.09-.15c.23-.35.55-.58.95-.71ZM152.19,196.88c.06.26.05.5-.03.72h0c-.1.25-.28.41-.54.49-.25.08-.48.06-.67-.06h0c-.19-.14-.33-.36-.42-.66l-3.95-12.56h0s-.03-.11-.03-.11c-.06-.25-.05-.48.05-.68l.04-.08c.11-.18.29-.31.52-.38.25-.07.48-.05.68.09l.08.05c.17.13.3.34.37.6l3.86,12.47h0s.03.11.03.11Z"/><path class="e" d="M137.38,192.29c1.34-.4,2.63-.48,3.87-.24l.23.05c1.15.25,2.17.8,3.04,1.65l.17.17c.86.86,1.49,1.99,1.91,3.38.61,2.02.52,3.77-.27,5.24l-.17.29c-.93,1.5-2.43,2.56-4.5,3.18-2,.6-3.82.57-5.48-.09h0c-1.65-.68-2.81-2.16-3.49-4.42-.42-1.41-.53-2.73-.32-3.96h0s.05-.23.05-.23c.25-1.15.77-2.16,1.57-3.02l.16-.17c.83-.83,1.9-1.44,3.21-1.83ZM137.98,194.12c-1.41.42-2.4,1.24-2.96,2.46h0c-.55,1.21-.59,2.61-.11,4.2.51,1.68,1.33,2.75,2.46,3.25,1.14.5,2.37.55,3.7.15,1.38-.42,2.39-1.16,3.04-2.23l.12-.21c.55-1.05.61-2.32.16-3.81-.31-1.04-.79-1.89-1.44-2.55h0c-.64-.69-1.39-1.14-2.25-1.34h0c-.85-.23-1.75-.2-2.7.08Z"/><path class="e" d="M116.8,190.77c.29-.09.56-.09.8,0h0c.13.04.24.1.32.19.08.09.14.2.17.33l.92,3.73c.52,2.06.89,3.62,1.14,4.68.26-.67.64-1.28,1.16-1.84.6-.67,1.45-1.16,2.53-1.49,1.17-.35,2.19-.34,3.04.06l.16.08c.69.35,1.32.96,1.9,1.79l.26.4h0s.2.36.2.36c.47.86.94,1.91,1.4,3.16l.41,1.15c.42,1.23.89,2.68,1.39,4.36.08.26.03.51-.13.75h0c-.15.22-.39.37-.7.46-.31.09-.6.1-.86,0h-.01c-.25-.12-.42-.35-.52-.67-.69-2.3-1.31-4.17-1.84-5.6-.53-1.43-.99-2.42-1.36-2.97h0c-.42-.65-.87-1.05-1.34-1.24h0c-.46-.21-1.01-.22-1.66-.02-.89.27-1.56.76-2.01,1.47h0s0,0,0,0c-.46.7-.73,1.5-.79,2.4-.07.9.03,1.8.3,2.68l1.67,5.54c.06.21.03.42-.09.62l-.06.08c-.17.22-.4.37-.7.46-.31.09-.6.1-.86,0h0c-.25-.1-.41-.28-.49-.54-1.09-3.62-2.07-7.05-2.95-10.28h0s-.57-2.18-.57-2.18c-.56-2.19-1.1-4.39-1.61-6.62h0s-.02-.12-.02-.12c-.04-.28,0-.52.11-.73.14-.23.38-.39.7-.49Z"/><path class="e" d="M107.56,201.34c1.52-.46,2.88-.47,4.06-.03l.44.17c.99.43,1.81,1.04,2.46,1.83l.09.1c.08.11.14.22.18.35.07.22.02.45-.12.66h0c-.13.22-.37.37-.68.46-.23.07-.44.07-.64,0h0c-.19-.09-.39-.24-.59-.46h0s.08-.07.08-.07l-.08.06c-.45-.59-1.08-1.01-1.89-1.27h0c-.79-.28-1.65-.29-2.6,0-.83.25-1.51.66-2.05,1.24l-.22.26c-.57.71-.92,1.54-1.05,2.48h0c-.14.93-.07,1.84.21,2.76.4,1.35,1.13,2.33,2.18,2.97l.2.11c1,.53,2.18.6,3.54.19.93-.28,1.66-.7,2.18-1.24h0l.2-.21c.43-.49.72-1.02.86-1.56h0s.06-.24.06-.24c.1-.48.12-.93.05-1.35l-.04-.21c-.06-.21-.05-.41.06-.58.12-.19.33-.32.6-.41.34-.1.64-.11.88,0,.24.11.41.33.5.64.24.79.22,1.66-.04,2.59-.26.94-.81,1.82-1.62,2.64h0c-.81.81-1.88,1.41-3.2,1.81-1.41.42-2.71.51-3.9.24h0c-1.17-.29-2.16-.83-2.97-1.64h0c-.79-.83-1.36-1.84-1.72-3.02-.38-1.26-.47-2.51-.27-3.77l.04-.24c.23-1.16.72-2.21,1.48-3.12h0s.16-.18.16-.18c.81-.89,1.88-1.53,3.19-1.93Z"/><path class="e" d="M91.53,206.16c1.2-.36,2.36-.44,3.47-.23h0c1.1.19,2.06.64,2.86,1.36l.29.28c.65.67,1.12,1.49,1.41,2.47.16.53.22.94.16,1.23h0s0,0,0,0c-.04.15-.14.28-.28.4-.15.11-.35.21-.6.29h0l-9.85,3.19c.2.61.59,1.19,1.16,1.73l.23.2c.55.46,1.21.8,1.96,1.02h0c.88.24,1.79.22,2.76-.07.64-.19,1.16-.44,1.59-.74l.18-.13c.45-.38.78-.75.98-1.1.16-.27.33-.62.52-1.05l.2-.45c.09-.23.29-.38.57-.47.25-.08.51-.05.78.08h0c.28.12.47.31.55.57.04.15.04.32,0,.49l-.05.18c-.33.95-.82,1.82-1.47,2.61h0c-.64.8-1.71,1.42-3.19,1.87-1.45.43-2.8.5-4.06.2h0c-1.24-.32-2.29-.92-3.15-1.78h0c-.85-.89-1.45-1.94-1.82-3.17-.38-1.26-.44-2.5-.19-3.72l.05-.23c.27-1.14.81-2.15,1.61-3.03.86-.94,1.98-1.61,3.34-2.02ZM92.13,207.96c-.83.25-1.52.66-2.07,1.23l-.23.25c-.52.62-.9,1.26-1.13,1.93l-.09.29c-.2.73-.25,1.29-.15,1.71l8.97-2.95h0s.04-.02.04-.02c.04-.02.05-.04.06-.07.02-.05.02-.12-.02-.23-.31-1.02-.96-1.72-1.97-2.1h0c-1.02-.4-2.15-.42-3.41-.04Z"/><path class="e" d="M70.28,204.75c.29-.09.56-.09.8,0h0c.13.04.24.1.32.19.08.09.14.2.17.33l.92,3.73c.52,2.06.9,3.62,1.14,4.68.26-.67.64-1.28,1.16-1.84.6-.67,1.45-1.16,2.53-1.49,1.17-.35,2.19-.34,3.04.06l.16.08c.69.35,1.32.95,1.9,1.79l.26.4h0l.2.35c.47.86.94,1.91,1.4,3.16l.41,1.15c.42,1.22.89,2.68,1.39,4.36.08.26.03.51-.13.75h0c-.15.22-.39.37-.7.46-.31.09-.6.1-.86,0h-.01s0,0,0,0c-.25-.12-.42-.35-.52-.66-.69-2.3-1.3-4.17-1.84-5.6-.54-1.43-.99-2.42-1.36-2.97h0c-.42-.65-.87-1.05-1.34-1.24h0c-.46-.21-1.01-.22-1.66-.02-.89.27-1.56.76-2.01,1.47h0s0,0,0,0c-.46.7-.73,1.5-.79,2.4-.07.9.03,1.8.3,2.68l1.67,5.54c.06.21.03.42-.09.62l-.06.08c-.17.22-.4.37-.7.46-.31.09-.6.1-.86,0h0c-.25-.1-.41-.28-.49-.54-1.09-3.62-2.07-7.05-2.95-10.28h0s-.57-2.18-.57-2.18c-.56-2.19-1.1-4.39-1.61-6.62h0s-.02-.12-.02-.12c-.04-.28,0-.52.12-.73.14-.23.38-.39.7-.49Z"/><path class="e" d="M53.81,217.61c1.51-.45,2.81-.26,3.89.59,1.08.84,1.93,2.32,2.56,4.42l1.85,6.15c.1.32.09.61-.04.84-.13.23-.38.39-.72.49-.36.11-.67.12-.92,0-.25-.11-.42-.34-.52-.65l-1.86-6.2c-.46-1.54-.97-2.6-1.52-3.19h0c-.27-.3-.58-.49-.93-.58-.35-.08-.74-.06-1.19.07-.88.26-1.51.79-1.89,1.59l-.08.16c-.38.9-.52,1.98-.41,3.23.08.84.3,1.85.65,3.02l1.19,3.88h0l.03.1c.05.23,0,.45-.13.64h0s0,0,0,0c-.15.2-.39.34-.7.43-.3.09-.57.11-.8.05l-.09-.03c-.25-.1-.41-.28-.49-.54-.47-1.56-1.07-3.45-1.82-5.66l-.32-.93c-.31-.91-.57-1.74-.8-2.49-.13-.43-.28-.74-.45-.94h0c-.16-.23-.44-.53-.86-.9h0c-.12-.1-.2-.23-.24-.38-.08-.25,0-.51.18-.77.2-.28.42-.46.67-.54.24-.07.52.01.82.21l.13.09h0s.21.19.21.19c.21.19.42.43.63.69l.11.13c.2.25.35.5.45.76.11-.8.39-1.53.84-2.2l.11-.15c.55-.73,1.37-1.26,2.47-1.59Z"/><path class="e" d="M37.5,222.4c1.2-.36,2.36-.44,3.47-.23h0c1.1.19,2.06.64,2.86,1.36l.29.28c.65.67,1.12,1.49,1.41,2.47.16.53.22.94.16,1.23h0s0,0,0,0c-.04.15-.14.28-.28.4-.15.11-.35.21-.6.29h0l-9.85,3.19c.2.61.59,1.19,1.16,1.73l.23.21c.55.46,1.21.8,1.96,1.02h0c.88.24,1.79.22,2.76-.07.64-.19,1.16-.44,1.59-.74l.18-.13c.45-.38.78-.75.98-1.1.16-.27.33-.62.52-1.05l.2-.45c.09-.23.29-.38.57-.47.25-.08.51-.05.78.08h0c.28.12.47.31.55.57.05.15.05.32,0,.49l-.05.18c-.33.95-.82,1.82-1.47,2.62h0c-.64.8-1.71,1.42-3.19,1.87-1.45.44-2.8.5-4.06.2h0c-1.24-.33-2.29-.92-3.15-1.78h0c-.85-.89-1.45-1.94-1.82-3.17-.38-1.26-.44-2.5-.19-3.71l.05-.23c.27-1.14.81-2.15,1.61-3.03.86-.94,1.98-1.61,3.34-2.02ZM38.1,224.2c-.83.25-1.52.66-2.07,1.23l-.23.25c-.52.62-.9,1.26-1.13,1.93l-.09.29c-.2.72-.25,1.29-.15,1.71l8.97-2.95h0s.04-.02.04-.02c.03-.02.05-.04.06-.07.02-.05.02-.12-.02-.23-.31-1.02-.96-1.72-1.97-2.1h0c-1.02-.4-2.15-.42-3.41-.04Z"/><path class="e" d="M25.54,226.39c.33-.1.62-.1.87.02h0c.27.11.46.35.56.69h0s3.08,11.22,3.08,11.22h0c.07.31.03.59-.13.83h0c-.15.22-.39.37-.7.46-.33.1-.63.1-.9-.01h0c-.25-.12-.42-.33-.51-.62h0s-3.09-11.24-3.09-11.24c-.09-.32-.08-.6.07-.84h0s.06-.09.06-.09c.16-.19.39-.33.68-.42ZM24.21,221.32c.49-.15.95-.12,1.36.11l.15.09c.35.22.59.55.72.99.15.5.1.97-.15,1.41h0c-.23.43-.6.73-1.1.88-.48.14-.93.11-1.36-.1h0c-.43-.24-.73-.6-.88-1.1-.15-.5-.11-.96.13-1.38.23-.43.61-.73,1.12-.88Z"/><path class="e" d="M11.1,224.78c1.32-.4,2.59-.56,3.79-.47l.44.04c1.02.13,1.9.45,2.65.98h0c.88.58,1.48,1.4,1.8,2.47.34,1.12.16,2.21-.51,3.27-.57.92-1.42,1.67-2.53,2.26,1.24-.08,2.33.15,3.28.68h0c1.07.59,1.77,1.42,2.09,2.48.34,1.12.3,2.18-.13,3.17h0c-.43.97-1.14,1.8-2.13,2.5h0c-.87.6-1.85,1.06-2.96,1.39l-.48.13-1.86.47h0s-1.3.36-1.3.36c0,.22-.07.42-.19.57-.14.18-.34.3-.6.38-.3.09-.57.1-.81.02-.22-.07-.4-.22-.54-.43l-.28.06h0c-.29.07-.54.05-.75-.06-.21-.11-.35-.31-.43-.58-.09-.3-.09-.57,0-.81h0s.05-.1.05-.1c.13-.22.35-.36.65-.43l.27-.08c-.48-2.48-1.17-5.19-2.05-8.13-.7-2.33-1.28-4.18-1.73-5.56l-.16.1h0c-.22.11-.45.13-.67.04h0c-.21-.1-.35-.3-.44-.58-.09-.3-.07-.58.07-.84l.06-.1c.16-.24.41-.51.76-.8l.25-.2c1.26-.99,2.72-1.73,4.39-2.23ZM11.69,226.73c-.34.1-.7.23-1.1.4l-.41.17c-.52.23-.97.46-1.33.69.52,1.61,1.17,3.7,1.94,6.27.82,2.74,1.5,5.49,2.04,8.28,1.29-.35,2.25-.62,2.88-.81,1.73-.52,2.94-1.15,3.65-1.88.7-.72.89-1.61.57-2.69-.18-.6-.46-1.07-.82-1.41-.37-.34-.83-.56-1.4-.66h0c-1.15-.22-2.66-.1-4.51.37h0c-.4.1-.73.13-1.01.1h0c-.3-.07-.49-.33-.61-.71-.11-.38-.09-.7.12-.93h0s.08-.08.08-.08c.2-.17.45-.31.76-.42l.82-.31c.78-.31,1.47-.6,2.05-.89l.28-.15c.64-.36,1.17-.82,1.59-1.37l.08-.12c.4-.59.48-1.29.24-2.1-.32-1.05-.99-1.71-2.04-1.99h0c-1.04-.29-2.32-.2-3.85.26Z"/><path class="e" d="M2.81,237.75c.26-.08.51-.03.73.14h0c.21.15.36.38.45.67h0s3.57,12.27,3.57,12.27c.09.3.09.56-.02.79-.09.22-.27.37-.52.45-.23.07-.45.06-.65-.03l-.08-.04c-.21-.13-.36-.35-.45-.65h0s-3.55-12.39-3.55-12.39c-.09-.29-.09-.55,0-.75.09-.22.27-.37.52-.45ZM1.36,233.29c.43-.13.88-.07,1.33.17l.17.09c.38.23.63.54.75.94.11.38.08.76-.1,1.14l-.08.16c-.25.44-.6.72-1.05.86-.41.12-.8.1-1.18-.06l-.16-.08c-.43-.23-.71-.56-.84-.99-.14-.46-.09-.91.14-1.35.23-.45.57-.75,1.04-.89Z"/><path class="e" d="M156.92,244.63c.45-.13.9-.09,1.35.14l.16.09c.36.22.6.52.71.9.13.45.07.91-.19,1.36h0c-.24.45-.58.75-1.01.88-.46.14-.91.09-1.35-.14h0c-.44-.25-.73-.61-.87-1.07-.13-.43-.07-.86.16-1.29l.09-.15c.23-.35.55-.58.95-.71ZM157.26,242.26c.06.26.05.5-.03.72h0c-.1.25-.28.41-.54.49-.25.08-.47.06-.67-.06h0c-.19-.14-.33-.36-.42-.65l-3.95-12.56h0s-.03-.11-.03-.11c-.06-.25-.05-.48.05-.68l.04-.08c.11-.18.29-.31.52-.38.25-.07.48-.05.68.09l.08.05c.17.13.3.34.37.6l3.86,12.47h0l.03.11Z"/><path class="e" d="M144.16,237.3c1.58-.48,2.87-.29,3.84.58l.18.17c.88.87,1.57,2.18,2.1,3.93.88,2.94,1.55,5.18,1.99,6.71.08.27.05.53-.09.76-.13.23-.36.39-.67.49-.33.1-.63.1-.88-.02h0c-.23-.13-.39-.35-.48-.65l-1.95-6.49c-.47-1.57-.99-2.64-1.53-3.22h0c-.26-.29-.56-.47-.91-.54-.35-.08-.74-.05-1.2.09-.42.13-.74.35-.98.68-.21.28-.35.65-.42,1.1l-.03.2c-.12,1.09,0,2.3.38,3.62l1.81,6.01c.09.3.08.57-.06.79-.14.22-.39.37-.72.47-.35.11-.66.12-.91,0-.25-.11-.42-.34-.51-.66l-1.4-4.76-.36-1.21-.15-.45c-.38-1.03-.91-1.9-1.59-2.62l-.14-.15c-.71-.72-1.43-.95-2.18-.73-.61.18-1.03.64-1.27,1.39h0c-.22.74-.27,1.84-.13,3.32.09.88.38,2.11.86,3.7l.98,3.26c.08.27.04.53-.13.75h0c-.17.2-.4.34-.68.42h0c-.31.08-.59.08-.83,0h-.01c-.23-.11-.38-.3-.46-.57-.53-1.77-1.4-4.59-2.6-8.47l-.3-.99-.11-.3c-.07-.18-.14-.32-.21-.43l-.1-.14c-.1-.12-.22-.22-.36-.31l-.14-.08s-.11-.05-.22-.1h-.01s0,0,0,0c-.12-.06-.19-.16-.23-.29-.09-.29-.05-.57.1-.82l.06-.09c.15-.2.34-.34.57-.41.16-.05.34,0,.54.09l.16.06c.16.07.31.16.45.27h0c.28.21.5.44.65.69l.12.2c.1.18.19.39.27.62.07-.84.28-1.55.65-2.13.45-.73,1.1-1.21,1.95-1.47.92-.28,1.77-.25,2.54.09.69.31,1.3.86,1.85,1.65.01-.96.24-1.78.69-2.44.5-.76,1.24-1.29,2.23-1.58Z"/><path class="e" d="M121.5,244.05c1.2-.36,2.36-.44,3.47-.23h0c1.1.19,2.06.64,2.85,1.36l.29.28c.65.67,1.12,1.49,1.41,2.47.16.53.22.94.16,1.23h0s0,0,0,0c-.04.15-.14.28-.28.4-.15.11-.35.21-.6.29h0l-9.85,3.19c.2.61.59,1.19,1.16,1.73l.23.2c.55.46,1.21.8,1.96,1.02h0c.88.24,1.79.22,2.76-.07.64-.19,1.16-.44,1.59-.73l.18-.13c.45-.38.78-.75.98-1.1.16-.27.33-.62.52-1.04l.2-.45c.09-.23.29-.38.57-.47.25-.08.51-.05.78.08h0c.28.12.47.31.55.57.05.15.04.32,0,.49l-.05.18c-.33.95-.83,1.82-1.47,2.61h0c-.64.8-1.71,1.42-3.19,1.87-1.45.44-2.8.51-4.06.2h0c-1.24-.32-2.29-.92-3.15-1.78h0c-.85-.89-1.45-1.94-1.82-3.17-.38-1.26-.44-2.5-.19-3.71l.05-.23c.27-1.14.81-2.15,1.61-3.03.86-.94,1.98-1.61,3.34-2.02ZM122.1,245.85c-.83.25-1.52.66-2.08,1.22l-.23.25c-.52.62-.9,1.26-1.13,1.93l-.09.29c-.2.73-.25,1.29-.15,1.71l8.97-2.95h0l.04-.02s.05-.04.06-.07c.01-.05.02-.12-.02-.24-.31-1.02-.96-1.72-1.97-2.1h0c-1.01-.4-2.15-.42-3.41-.04Z"/><path class="e" d="M105.44,251.09c-.95.28-1.73.78-2.36,1.49-.61.7-1,1.41-1.17,2.13l.59,1.97c.23.76.44,1.42.64,1.97l.19.52h0s.08.19.08.19c.2.43.53.8,1,1.11l.21.12c.5.27,1.07.45,1.7.54.73.08,1.46,0,2.18-.21.75-.23,1.42-.6,1.99-1.13h0s.21-.21.21-.21c.47-.5.81-1.13,1-1.89l.07-.33c.13-.79.05-1.68-.25-2.68-.48-1.59-1.28-2.68-2.39-3.27h0c-1.1-.62-2.33-.73-3.71-.31ZM100.84,251.49c.08.27.16.5.23.71.29-.57.72-1.11,1.32-1.62l.26-.22c.64-.49,1.43-.88,2.37-1.16,1.29-.39,2.53-.45,3.71-.19h0c1.18.25,2.21.8,3.09,1.66.88.86,1.53,1.99,1.95,3.39.46,1.52.51,2.89.16,4.11h0c-.33,1.12-.9,2.05-1.69,2.8l-.16.15c-.87.76-1.87,1.31-2.98,1.65-.78.23-1.55.34-2.31.32h0c-.76-.04-1.44-.16-2.02-.35h0c-.49-.17-.88-.37-1.17-.59-.02.36-.11.73-.28,1.09h0c-.18.42-.39.75-.63.96h0c-.13.12-.28.21-.46.26-.25.08-.5.06-.73-.05l-.1-.05c-.25-.15-.42-.34-.49-.58-.06-.21-.04-.42.06-.62l.05-.09c.04-.07.11-.17.2-.3.09-.14.16-.27.21-.39h0s.04-.11.04-.11c.04-.11.06-.22.06-.35v-.15c-.01-.37-.11-.85-.29-1.45h0s-.66-2-.66-2h0s-1.24-3.84-1.24-3.84l-1.13-3.55h0c-1.07-3.44-1.98-6.2-2.72-8.28l-.03-.11c-.06-.24-.02-.47.13-.67.16-.24.4-.4.72-.5.29-.09.57-.09.81,0l.1.04c.18.09.32.22.41.41l.04.1h0s.39,1.09.39,1.09c.38,1.07.74,2.1,1.06,3.09l.66,2.02c.22.69.44,1.39.67,2.1h0s.39,1.27.39,1.27Z"/><path class="e" d="M80.12,256.4c1.34-.4,2.63-.48,3.87-.24l.23.05c1.15.25,2.17.8,3.04,1.65l.17.17c.86.86,1.49,1.99,1.91,3.38.61,2.02.52,3.77-.27,5.24l-.17.29c-.93,1.5-2.43,2.56-4.5,3.18-2,.6-3.82.57-5.48-.09h0c-1.65-.68-2.81-2.16-3.48-4.42-.42-1.41-.53-2.73-.32-3.96h0s.05-.23.05-.23c.25-1.15.77-2.16,1.57-3.02l.16-.17c.83-.83,1.9-1.44,3.21-1.83ZM80.73,258.23c-1.41.42-2.39,1.24-2.96,2.46h0c-.55,1.21-.59,2.61-.11,4.2.51,1.68,1.33,2.76,2.46,3.25l.22.09c1.08.42,2.24.44,3.48.06,1.38-.42,2.39-1.16,3.04-2.23l.12-.21c.55-1.05.61-2.31.16-3.81-.31-1.04-.79-1.89-1.44-2.55h0c-.64-.69-1.39-1.13-2.25-1.34h0c-.85-.23-1.75-.2-2.7.08Z"/><path class="e" d="M64.87,256.58c.35-.11.67-.1.94.03l.1.05c.22.14.35.34.39.61h0s.13.91.13.91c.33,2,.56,3.34.68,4.03l2.01-.55.2-.05c.19-.03.35-.03.49.03h0c.21.08.35.28.44.55.1.34.11.62-.02.83h0c-.06.09-.15.17-.27.24-.12.07-.27.14-.46.21h0c-.52.17-1.19.38-2.01.63.24,1.09.49,2.09.76,2.99.51,1.69,1.04,2.97,1.58,3.85l.1.15c.25.35.5.58.77.72.3.15.61.18.95.08.36-.11.59-.33.72-.66l.04-.13c.08-.32.07-.74-.05-1.27l-.04-.21c-.03-.2-.03-.37.02-.5h0s.04-.08.04-.08c.05-.08.12-.14.2-.2.11-.08.26-.14.44-.2.32-.1.6-.09.8.05h0c.22.12.38.39.5.78.28.93.2,1.82-.23,2.66h0c-.42.84-1.12,1.4-2.09,1.69-.67.2-1.3.23-1.88.08-.58-.15-1.11-.48-1.58-.98h0c-.92-1.01-1.75-2.73-2.48-5.17-.27-.89-.53-1.91-.79-3.08-.25.05-.78.17-1.57.34h0c-.29.06-.54.03-.74-.09-.2-.12-.34-.33-.42-.61-.08-.28-.08-.52.02-.72.1-.2.3-.34.57-.42.14-.04.45-.12.92-.22h0l.52-.11c.11-.03.21-.05.29-.08-.26-1.32-.54-2.98-.82-4.98l-.02-.21c0-.2.03-.37.12-.52l.05-.08c.14-.18.37-.3.67-.39Z"/><path class="e" d="M57.27,263.76c.33-.1.62-.1.87.02h0c.27.11.46.35.56.68h0s3.08,11.22,3.08,11.22h0c.07.31.03.59-.13.83h0c-.15.22-.39.37-.7.46-.29.09-.56.1-.8.02l-.1-.04h0c-.25-.12-.42-.33-.51-.61h0s-3.09-11.24-3.09-11.24c-.09-.32-.08-.6.07-.84h0s.06-.09.06-.09c.16-.19.39-.33.68-.42ZM55.95,258.69c.49-.15.95-.12,1.36.11l.15.09c.35.22.59.55.72.99.15.5.1.97-.15,1.41h0c-.23.44-.6.73-1.1.88-.48.14-.93.11-1.36-.11h0c-.43-.24-.73-.6-.88-1.1-.15-.5-.11-.96.13-1.38.23-.43.61-.73,1.12-.88Z"/><path class="e" d="M53.96,276.25c.08.22.17.4.26.54l.24.29c.08.09.17.18.26.26l.12.11s.07.07.1.1c.05.06.1.12.11.17.07.23.02.47-.13.72-.15.24-.32.41-.53.47-.4.12-.81-.03-1.24-.39h0c-.4-.36-.66-.75-.79-1.17-.18.77-.54,1.43-1.11,2h0c-.64.66-1.46,1.14-2.45,1.44-1.42.43-2.65.3-3.68-.39l-.2-.15c-1.06-.81-1.88-2.2-2.47-4.16l-1.95-6.49c-.08-.26-.04-.5.11-.72h0s.07-.08.07-.08c.16-.18.37-.3.63-.38.31-.09.6-.1.86-.01l.1.04c.21.1.35.27.42.49l1.97,6.54c.44,1.46.97,2.46,1.57,2.99l.11.09c.57.45,1.28.56,2.12.3.58-.17,1.04-.45,1.38-.84.35-.39.59-.88.72-1.49.26-1.23.08-2.9-.56-5.04l-1.32-4.39c-.09-.3-.07-.58.08-.82l.06-.09c.15-.19.36-.32.64-.41.33-.1.63-.1.9.01l.1.05c.22.12.37.32.45.59l2.99,9.55h0s.08.23.08.23Z"/><path class="e" d="M32.02,265.25c.75-.22,1.44.03,2.08.72l.24.27c.57.68,1.11,1.65,1.64,2.92l.23.56c.54,1.34,1.13,3.02,1.77,5.04l.74,2.36.94,2.98c.27.87.5,1.61.69,2.24.1.32.08.61-.05.89h0c-.12.26-.37.43-.72.54-.33.1-.64.09-.91-.04h0c-.26-.16-.43-.39-.52-.69l-.97-3.15c-.38-1.26-.83-2.73-1.33-4.41-.8-2.65-1.49-4.61-2.07-5.87-.29-.63-.56-1.09-.79-1.36-.12-.14-.22-.23-.31-.28-.09-.05-.16-.06-.23-.04-.12.04-.25.16-.4.42-.1.19-.21.44-.31.76l-.1.34c-.2.7-.36,1.39-.47,2.08l-.1.68c-.08.65-.12,1.31-.12,1.98v.67c.03.91.09,1.95.17,3.12h0c.03.3-.04.56-.2.77-.17.21-.42.36-.76.46-.31.09-.59.12-.83.07h-.01s0,0,0,0c-.24-.08-.44-.25-.62-.5h0s0,0,0,0l-.76-1.2h0c-1-1.68-1.78-2.88-2.33-3.58h0c-.54-.7-1.13-1.35-1.75-1.93l-.27-.25c-.36-.33-.67-.56-.91-.7-.25-.14-.41-.17-.51-.14-.06.02-.12.07-.17.17-.05.1-.08.25-.1.45-.03.4.01.99.14,1.76.2,1.14.5,2.48.9,4.04l.43,1.62c.22.79.58,2.01,1.07,3.66l1.24,4.12c.09.29.05.56-.11.8h0c-.15.22-.42.38-.78.49-.34.1-.64.12-.86.01l-.09-.05h0c-.2-.18-.34-.43-.44-.76-.3-1-.7-2.38-1.19-4.14l-1.02-3.5c-1.04-3.47-1.58-6.1-1.59-7.88v-.33c.02-.74.15-1.35.38-1.83.27-.54.67-.9,1.22-1.07,1.23-.37,2.55.23,3.96,1.73l.53.58c1.16,1.31,2.28,2.89,3.38,4.75-.08-1.4-.05-2.81.1-4.23l.07-.57c.15-1.13.39-2.13.72-3.01l.17-.43c.47-1.13,1.11-1.83,1.92-2.07Z"/><path class="f" d="M158.69,210.24l.09-.02c.42-.1.86.14,1,.56.14.42-.06.87-.45,1.05l-.08.03L5.85,264.14c-.45.15-.93-.09-1.09-.54-.15-.45.09-.93.53-1.09l153.39-52.27Z"/><g class="s"><path class="u" d="M223.4,472.67l-.35-13.74c-34.89,19.66-86.19,12.07-110.84-20.27-14.11-18.51-15.09-39.55-12.23-61.76,2.25-17.49,9.32-36.01-5.19-50.46-1.6-1.6-6.58-4.66-7.35-5.88-3.96-6.23,11.58-10.36,15.5-11.08,39.98-7.48,69.43,20.56,78.21,57.41,4.43,18.61,1.96,41.68,12.72,57.97,6.71,10.15,18.29,15.36,30.39,14.34l2.87-29.85c-17.4,5.55-35.14-.75-39.31-19.78-4.55-20.76,13.51-52.31,26.05-68.38,3.94-5.05,8.58-9.3,12.8-14.03-9.45-3.05-18.83-6.7-27.68-11.21-7.35-3.75-18.86-10.33-24.2-16.48-3.65-4.2-1.05-5.6,3.35-6.72-6.76-4.74-15.81-11.57-19.83-18.92-3.27-5.96,1.06-6.15,4.91-9.36,9.24-7.71,13.18-20.64,15.99-31.94-5.25-8.53-11.55-16.73-15.8-25.94-10.96-23.74-15.36-58.2-12.41-84.13.78-6.86,1.8-15.22,9.97-16.22,8.63-1.06,28.45,8.65,36.42,12.98,17.12,9.31,32.73,21.78,45.67,36.32,18.13-6.93,37.81-10.46,57.26-8.72,1.53-.28,4.13-7.55,5-9.25,10.56-20.51,32.18-50.86,53.19-61.36,13.58-6.78,17.46,11.16,19.94,20.79,7.89,30.6,9.71,64.56.54,94.98,6.88,13.77,9.91,28.62,23.01,38.27,2.04,1.51,7.03,3.77,8.35,5.15,2.37,2.48-1.18,9.31-2.4,12.15-2.04,4.69-4.72,9.83-7.18,14.33-13.54,24.72-32.7,45.21-57.61,58.79,10.78,7.24,20.36,15.99,30.3,24.29.35-.02,1.31-3.8,1.5-4.49,3.29-12.07,5.94-28.8,10.52-39.94,1.58-3.84,5.38-7.48,9.54-8.31,8.54-1.02,17.12-1.76,25.72-2.22,5.8-.31,20.72-1.79,25.39.23,6.67,2.89,7.04,8.92,5.9,15.1-1.13,6.18-2.99,12.52-4.55,18.46-1.27,4.88-2.79,9.7-4.18,14.55,2.18,2.43,4.57,4.05,6.46,6.93,11.43,17.42.15,40.03-13.49,52.46-19.3,17.57-46.12,23.49-70.34,12.57,2.52,13.68,4.62,27.37,6.07,41.21l2.11,24.43.32,3.73c-1.65.14-3.32.29-4.98.43-.57-1.11-.98-2.28-1.2-3.5-2.67-40.12-8.21-81.44-23.24-118.58-1.91-6.43,2.52-8.16,5.81-2.02,7.02,13.13,11.54,33.54,14.36,48.1.35,1.81-.3,1.08.08.8.57-.42,4.08.52,4.9.91,28.86,13.52,72.34-6.54,77.71-38.59,1.53-9.14-.11-19.87-9.03-24.62-6.08-3.23-19.51-4.98-19.24,4.99,4.29-.16,17.38,6.44,17.4,11.1.01,4.66-7.07.9-8.7-1.11-7.34-5.02-24.35-7.59-14.96,6.09,4.02,3.33,8.6,5.93,13.74,7.8,2.04.97,2.35,3.53.38,4.73-3.77,2.29-13.91-3.68-16.85-6.05-4.03-1.15-3.85,4.66-2.73,7.3,2.66,6.25,8.8,9.91,14.69,12.54,3.51,5.17-1.87,5.06-5.65,4.04-1.49-.4-5.71-1.89-5.07-3.54-9.27.65-19.05,1.46-29.31,2.45-3.26.2-6.38-.32-9.45-1.2-2.07.81-5.07-1.83-6.44-3.44-3.47-4.08-2.68-9.54-1.52-14.45,2.16-7.7,4.22-15.41,6.16-23.15-10.68-9.28-21.64-18.21-32.89-26.78-3.32.89-6.58,2.04-9.76,3.46l-.86-.59c.24,1.7-6.07,2.23-6.94,1.63-2.2-1.5-.99-3.32.46-4.91,20.61-7.01,38.63-19.23,53.22-35.28,12.61-13.88,19.8-27.4,28.1-43.91.43-.86,1.16-1.54,1.86-2.18-.57-.6-.32-1.46.72-2.59l.18-.82c-9.78-4.93-17.52-13.06-21.92-23.44-3.17-7.77-6.52-15.47-10.01-22.83l.21-2.49c7.41-23.41,6.52-48.86,3.48-73.28l.06-1.55c-.29-.38-.55-.77-.77-1.18-.22-.41-.41-.81-.51-1.23-1.89-8.28-3.66-15.75-5.99-23.9-2.33-8.2-5.22-10.49-12.71-4.94-6.68,4.96-12.81,10.33-18.75,16.08l-1.02.26c-.07,1.12-.49,1.73-1.26,1.86-.93,2.06-2.96,4.68-5.21,5.38-.29,1.01-.62,2.02-1.24,2.89-9.35,13.26-17.86,26.11-24.1,40.4-.52.99-1.32,1.63-2.46,1.84-19.91-1.17-39.88,1.36-57.76,8.86-2.26,1.12-4.07.96-5.43-.47-8.24-9.46-18.18-18.46-28.8-25.92l-2.62-2.84-1.83-.25-7.16-4.58c.2-.58-.18-.93-1.11-1.07l-2.23-1.39-1.17.21c-7.86-4.96-16.52-8.67-25.35-11.57-11.14-3.66-11.85-.1-13.02,10.52l-.54,10.59-.85.46c.31,3,.46,6.03.47,9.06.87,1.1.42,2.23-.22,3.43.18.46.33.92.38,1.4,3.11,29.6,9.47,57.4,28.8,81.23-1.96,15.22-7.92,32.67-21,40.63.57.53,1.68,1.72,1.01,2.37,3.04,2.56,5.91,5.32,8.62,8.3l13.91,10.15c2.23,3.65-2.88,4.99-5.63,5.6,16.3,13.27,36.12,21.05,56.11,26.91.87-2.99,3.07-6.95,5.04-9.79,13.4-19.27,28.27-3.29,21.91,14.2,2.22.57,9.17,2.95,5,5.88-1.27.9-4.41,1.32-5.23-.16,0,.6-.42.85-1.26.77l-1.77,5.36c2.57-.11,4.51.54,5.82,1.97,2.3-.79,5.3,2.03,6.87,3.76,1.57,1.73,2.63,3.77,3.38,5.93.85,2.45,2.07,6.95.56,8.99,6.73,10.34,1.4,27.01-12.39,26.02-4.68,17.2-17.32,32.75-32.82,41.03-1.91,20.23-3.22,40.37-3.74,60.67-.03,1.18-.38,2.31-.74,3.42-1.07.08-4.35.6-4.98.43h-.02Z"/><path class="i" d="M397.03,149.65c-.8-.71-.99-3.11-.34-3.93.65-.82,5.52-2.05,7.14-3.03,2.73-1.63,3.76-3.81,4.81-6.71.93-2.57,1.24-9.83,5.47-7.75,1.79.88.87,3.92,1.17,5.92.59,3.91,2.89,8.18,6.3,10.33,2.46,1.55,6.6,1.28,6.66,4.46.07,2.9-3.75,2.39-5.85,3.19-3.05,1.18-5.15,4.39-6.46,7.25-.9,1.96-2.85,9.76-4.2,10.3-.78.32-1.72.34-2.46-.1-1.54-.9-1.31-5.99-1.75-7.97-1.09-4.84-3.2-8.65-7.64-11.02-.76-.41-2.35-.5-2.85-.95h0Z"/><path class="l" d="M433.73,114.58l15.49-12.91c3.21-1.51,5.19,1.82,3.09,4.51-3.29,4.22-10.48,8.15-14.3,12.18-2.96,1.53-5.85-.59-4.27-3.78h0Z"/><path class="o" d="M420.49,80.21c2.18-.65,3.48.87,3.1,3-.42,2.39-4.25,13.23-5.4,15.44-1.7,3.22-5.72,2.35-5.1-1.21,2.46-4.39,3.42-11.73,5.88-15.82.43-.71.65-1.16,1.53-1.42h0Z"/><path class="d" d="M462.14,136.31c.98.58.79,3.36-.15,4.13-1.82,1.5-12.55,1.32-15.3,2.11-1.82-.27-3.27-2.75-1.82-4.2,1.23-1.25,15.82-2.9,17.27-2.03h0Z"/><path class="y" d="M420.71,269.97l-25.72,2.22c7.56-1.51,17.84-1.8,25.72-2.22Z"/><path class="p" d="M374.08,455.92l-2.11-24.43c.85,8.12,1.4,16.28,2.11,24.43Z"/><path class="ae" d="M327.75,306.78c2.15-.63,9.58-4.13,10.94-3.66,11.55,8.53,22.48,17.79,33.26,27.25-1.27,8.73-4.96,17.6-6.58,26.25-1.42,7.54.55,12.01,7.69,15.1,3.12.91,6.35,1.4,9.61,1.19,9.82-.98,19.53-1.79,29.15-2.45,1.8,1.99,12.24,6,10.97.95-.26-1.02-4.74-2.59-6.05-3.36-4.9-2.86-12.52-10.44-9.99-16.63,2.28-5.57,6.6.04,9.88,1.7,2.04,1.04,11.82,5.26,11.27.3-.17-1.53-7.55-3.94-9.33-4.9-4.05-2.2-9.8-6.57-8.71-11.78.51-2.41,1.76-3.67,4.19-4.16,3.35-.68,11.43,2.32,14.46,4.14,1.84,1.11,5.61,5.2,7.42,2.68,1.6-2.23-6.21-7.51-8.01-8.38-1.76-.86-4.61-1.78-6.52-2.3-2.4-.65-3.04.42-2.45-3.55.93-6.31,9.81-6.53,14.63-5.42,19.26,4.41,18.21,27.42,10.21,41.25-13.2,22.81-42.87,34.96-68.4,27.83-3.54-.99-6.92-3.72-10.71-3.04-2.78-12.82-5.68-26.06-10.14-38.43-.93-2.56-4.59-12.18-6.06-13.7-.82-.85-2.67-.8-3.13.39-.9,2.36,3.04,9.77,4.02,12.58,8.32,23.77,14.2,54.21,17.11,79.26,1.32,11.35,1.68,22.85,2.94,34.19-3.99.42-9.49,1.03-16.05,1.84-12.52,1.54-22.54,3.03-27.92,3.85-23.89,3.66-36.38,6.58-36.58,5.76-.29-1.15,25.19-7.42,24.79-9.37-.1-.48-1.99-1.59-44.04,4.08-17.34,2.33-31.59,4.49-41.26,6,.07-10.26.15-21.03,1.03-32.2.85-10.71,1.96-21.41,2.67-32.11.18-.79,4.62-2.86,5.75-3.62,12.55-8.5,23.25-23.17,27.37-37.73,10.35.62,16.5-9.17,14.69-18.75-.52-2.76-1.77-3.69-1.83-6.73l1.75,1.06c5.65,8.89,23.65,28.36,35.01,27.55,7.57-.54,11.54-15.74,12.41-22.06,1.19-3.72,1.79-5.02,5.4-2.11.96-4.42,1.85-11.01.99-18.91-.97-8.79-3.73-15.6-5.85-19.85h0Z"/><path class="q" d="M330.95,87.44c2.15,1.12,2.42,2.99.79,5.6,2.27.84,3.18,1.96,2.7,3.37,2.36-1.06,4.6,1.98,2.14,2.92,1.12.51,2.68.04,3.64-.76,1.23-.4,1.7.18,1.83,1.26.15.73.14,1.45-.04,2.17-3.32,7.06-6.05,14.33-8.51,21.73-4.26,12.83-2.52,15.18,7.51,6.36,2.06-1.3,9.27-5.68,11.06-4.24,2.11,1.69-5.69,12.07-7.52,13.07-.53,1.35.12,2.56,1.97,3.62,6.18,3.92,11.96,8.33,17.32,13.21.77.16,1.5-.25,2.18-1.23l-.08-2.17c5.46-14.68,5.37-30.37,2.43-45.59l.45-2.13.18-.88c-1.27-4.62-1.65-7.03,2.52-2.74,2.92-.01,5.61-1.03,4.44-4.48-.76-1.45.33-2.92,1.24-1.38,4.06,23.02,4.43,45.12-.7,67.98-.51,2.27-2.55,7.41-2.22,9.21.36,1.98,2.77,5.4,3.68,7.54,5.75,13.63,8.75,25.09,21.46,34.35,1.18.87,6.23,3.5,6.63,4.03.85,1.14-1.29,3.22-1.57,3.88l-.84.93c-5.01-.14-9.97-1.04-14.9-2.71-17.68-3.46-33.21,7.04-46.92,16.78l-1.65.13-.79-.83c-.96-16.66-38.23-12.34-36.68,3.63l-.65.91c-.21.29-.43.57-.68.79-3.88,3.51-22.92,2.66-28.57,1.7l-18.4-3.05c-23.64-4.82-46.23,1.63-67.15,12.35-6.63,2.52-16.71,5.66-22.49.46-.49-.66-1.93-1.43-1.88-2.73,13.52-8.18,18.79-25.25,21.12-40.05-19.11-24.42-27.09-52.13-28.43-82.86,1.15-.67,1.42.3,1.53,1.39-.4,1.78-.04,2.93,1.11,3.47-.4,1.4,1.24,2.6,2.4,1.47,1.03,1.42,1.79,2.03,1.8-.05.93-2.22,2.74-1.23,2.29.95,1.38.25,1.86,1.43,1.44,3.56l.4.37,1.01,1.76c2.12,18.35,7.15,37.14,19.06,51.67l.6,1.95.87-.25c1.15,2.29,2.59,1.36,4.31-2.79,3.24-7.67,6.83-14.34,12.63-20.39,2.78-3.27,1.46-4.47-1.56-6.35-2.46-.91-10.8-5.68-10.32-8.34.15-.84.36-1.11,1.08-1.55,3.2-1.94,16.85,2.39,20.85,4.11,7.71,2.71,3.62-5.54,1.43-8.88-6.32-9.63-15-18.17-23.41-25.96l.07-1.04c-.83-.77-.07-1.27.99-.85,1.26,1.48,2.6,2.3,4.01,2.45.51-2.49,1.57-3.7,3.18-3.64,1.21-1.7,2.51-3.17,3.9-4.41,1.4-.22,3-.59,3.88-1.76-1.24-.68-2.48-2.1-.57-2.3,9.81,6.69,18.21,13.69,26.56,22.13,1.25,1.26,5.7,6.83,6.77,7.05,1.6.32,13.35-4.59,16.27-5.38,14.83-4.05,29.65-4.91,44.92-4.23.4-.09.79-.25,1.12-.5,1.18-.87,5.46-10.99,6.66-13.25,5.65-10.72,12.48-21.15,20.11-30.56h-.02Z"/><path class="ab" d="M404.45,222.14c-16.11,37.54-43.04,68.54-82.75,82.05-4.28,5.39,3.26,3.41,6.06,2.59,2.77,6.57,5.83,13.34,6.78,20.49.44,3.33.82,15.28-.6,17.93-1.85,3.46-3.47-2.14-4.96.06-1.17,1.73-2.16,9.22-2.95,11.74-1.22,3.88-5.07,11.71-9.08,13.12-4.41,1.54-9.04-1.02-12.78-3.12-11-6.15-19.05-15.59-26.1-25.88-.15-8.19-2.56-15.28-10.81-18.68-1.43-1.08-3.1-5.41-3.38-7.27l.6-.83c1.65,0,3.98.49,5.13-.87,2.43-2.89-5.77-3.53-6-4.28,2.8-7.1,2.74-22.11-7.58-22.5-9.58-.36-14.33,11.24-18.13,18.21-20.16-5.37-40.02-13.51-56.37-26.61-.51-.4-2.13-.59-1.14-1.36,1.1-.85,8.24-1.24,6.26-4.69l-13.84-10.05c-3-2.88-5.59-5.59-8.07-8.93,2.05,1.26,4.71,1.7,7.1,1.84,12.07.74,24.16-8.28,35.89-12.03,23.37-7.47,36.09-5.44,59.25-1.34,11.88,2.11,23.32,3.06,35.05-.73l.96.32c3.23,7.06,11.26,10.66,18.57,11.79,2.39,12.92-12.57,12.12-21.44,10.96-10.37-1.34-18.62-4.46-26.93-10.51-4.1-3.27-13.68-.07-10.94,5.82,2.89-1.73,4.46-1.4,4.7,1.01,1.1,15.48,12.65,34.93,30.26,33.63,11.6-.86,16.65-16.33,18.41-25.89,6.67-2.7,10.29-7.13,9.81-14.62l.35-1.06c6.71-2.43,12.14-7.16,13.47-14.53l.91-.64c14.37-10.04,29.64-21.14,48.29-17.82,5.3.95,10.48,3.57,16.02,2.67h0Z"/><path class="x" d="M104.92,378.57l1,.4c2.23,4.27,7.01,10.03,9.62,2.56l4.49-8.73c.58-.97,1.74-1.42,2.75-.81,6.68,5.43,15.1,9.44,23.66,10.97,4.61.82,8.24.98,10.24-3.69,2.69-6.26,3.45-13.05,4.1-19.84.19-1.92,1.91-2.01,3.48-1.38l6.93,3.83c1.61.12,2.76.62,3.46,1.51,5.12,17.46,3.77,36.27,9.38,53.03,5.6,16.76,20.75,29.77,39.83,27.85.29.25-.11,7.05-.27,7.64-.48,1.78-9.02,5.65-11.06,6.46-41.5,16.5-98.6-1.2-107.84-48.7-2.17-11.15-1.25-20.06.22-31.1h.03Z"/><path class="q" d="M258.28,292.88c.52.42,1.41,1.79,1.59,2.45,1.15,4.49-.96,13.11-2.21,17.7-.48,1.77-2.06,8.01-3.32,8.73-2.01,1.15-10.66,2.09-9.63,6.14.09.34.16.64.49.83,1.37.79,7.96-2.33,10.08-2.72,5.81-1.07,11.16.33,15.19,4.7,2.28,2.48,2.27,4.34,3.16,7.43-4.07-1.54-7.6-3.37-12.16-2.72-3.32.47-9.39,3.23-7.08,7.31,3.26-1.07,5.16-2.78,8.75-2.86,6.24-.12,12.36,4.88,12.44,11.24.07,5.55-3.57,10.82-9.52,10.63-.57-1.83.91-6.32-1.72-6.87-1.73-.37-2.32.76-2.65,2.24-2.06,9.03-1.12,11.43-6.24,20.11-9.65,16.35-28.27,35.18-49.2,27.44-21.45-7.94-14.02-33.95-6.87-49.54,7.85-17.11,18.88-33.14,32.91-45.76.69-.4,4.24.3,3.53,1.45-2.15,5.68-4.26,11.42-6.02,17.24-3.15,10.46-3.88,23.44-11.83,31.17-2.86,2.78-13.13,8.89-13.68,12.35-.32,2.02,1.1,2.2,2.65,1.43,4.11-2.07,13.32-9.27,16.37-12.76,6.6-7.54,10.15-28.05,13.73-38.41,2.26-6.52,9.82-26.95,15.92-29.65,1.6-.71,3.99-.38,5.34.7h0Z"/><path class="ab" d="M174.66,363.37l-2.55-.39c-2.42-.1-8.48-5.84-10.41-4.16-.68,5.96-1.1,12.06-3.09,17.77-1.13,3.25-2.37,6.95-6.25,7.46-7.06.93-19.05-3.93-25.01-7.67-.93-.58-4.94-3.78-5.27-3.84-.62-.11-1.02.18-1.34.68-1,1.86-6,12.39-7.21,12.79-3.24,1.07-7.91-4.58-8.61-7.44,2.9-21.78,10.09-42.1-9.71-58.58-.43-.36-3.2-1.46-2.65-2.11.29-.33,7.37-2.53,8.37-2.77,7.6-1.81,17.66-1.45,25.33-.02,26.05,4.84,41.22,23.86,48.39,48.29h0Z"/><path class="n" d="M447.5,280.18l.08,2.18c-2.19,11.33-5.79,22.41-8.71,33.6-8.45-2.56-21.29-3.04-24.44,7.32-.34,1.12-.3,4.25-.45,4.42-.08.1-1.26.09-1.74.26-7.57,2.73-9.37,10.64-5.12,17.02-6.97,2.26-6.34,10.14-3.85,15.77.8,1.81,2.36,3.34,3.15,5.16l-19.72,1.72c-3.49-.65-6.9.9-10.25-.39l11.56-44.25c.68-1.12.37-2.97,1.88-3.22.17-.71-.92-.14-.88-.53,1.3-3.45,1.85-7.18,2.82-10.71,1.27-4.63,4.84-18.91,7.3-21.91,2.83-3.46,6.66-2.89,10.85-3.21,11.52-.89,24.78-.83,36.14-2.47.59-.09.88-.59,1.38-.76h0Z"/><path class="q" d="M196.2,104.9l2.18,1.37c1.61.33,2.68,1.46.75,2.2-.12,3.32-1.4,4.33-3.85,3.04,1.52,1.43.24,3.11-1.54,3.48.34.96-1.24,2.64-2.08,3.04-.73.35-4.22.02-4.65-1.1l-1.94-.65-1.02.32c-2.59-1.66-5.23-3.3-7.96-4.67-1.78-.9-8.12-3.87-7.61.01l-.88.43.59.82c-.66,4.53-1.18,9.14-1.54,13.79l-.62.96c-1.26.35-2.21.26-2.83-.26-.46.95-5.01-.04-5.34-.25-.21-.14-2.67-3.63-2.18-4.09.12-2.78,0-5.52-.37-8.24.11-4.75.35-18.7,3.33-21.98,2.04-2.25,3.94-2.05,6.68-1.54,8.37,1.55,23.94,8.5,30.91,13.32h-.01Z"/><path class="q" d="M377.17,95.14c-1.49-.05-.49.55-.43,1.21.05.47.4,3.14.31,3.28-.25.4-1.46.54-1.01,1.86l-1.73-.68.59,2.03-2.07.18.93-.91c-.1-1.59-1.07.24-2.15-.12-.99-.32-1.05-1.05-1.48-1.38-.43-.33-1.06-.1-1.21-.25-.35-.34.18-1.33-.6-1.12.22,1.41.64,2.78.92,4.18.13.67.91,1.18-.46,1.2l-1.27-2.06c-1.55-7.07-3.92-14.02-7.21-20.21l.63-.84c-.79,0-1-.59-.65-1.8-.88-3.93-10.55,7.66-11.03,9.17h-1.06c-.82.96-1.59,2.09-2.28,3.37l-1.65-.57c-.99,3.22-4.1,2.37-2.57-1.2l-.65-.97c-.87-.43-1.73-1.19-2.57-2.26-2.57.45-3.4-.48-2.14-2.86-.85-1.12-.48-2.52,1.09-4.17,5.71-5.99,12.43-12.37,19.3-17.02,9.54-6.46,11.26-2.62,14.36,6.52,2.79,8.23,4.57,16.89,6.08,25.43v.02Z"/><path class="t" d="M444.4,275.2c.46.23.93,1.09,1.2,1.28.1.07,1.07-.87,1.27,1.26-3.22-.54-6.53-.21-9.8,0-10.17.66-20.31,1.73-30.28,2.86-1.03.12-3.07-.35-4.46-.04-6.31,1.4-8.29,7.64-9.99,13.04-5.3,16.83-9.13,34.5-13.61,51.57-1.81,6.9-4.3,13.63-5.53,20.7-6.05-3.75-1.68-11.15-.36-16.43,1.46-5.81,2.75-11.66,4.27-17.46l1.27-.36c.17-.7-.86-.13-.91-.57-.04-.3.38-2.16.51-2.64,3.49-13.25,6.67-27.26,10.53-40.33,1.33-4.51,2.67-9.94,7.93-11.01,5.26-1.07,13.22-.84,18.76-1.27,8.18-.62,17.6-2.02,25.72-1.74,1.02.04,2.56.68,3.47,1.14h0Z"/><path class="q" d="M208.53,112.18c-.94.85,1.4,1.62,1.43,1.79.35,2.03-3.61,3.14-5.19,3.14.95,1.84.22.84-.66,1.53-.62.48-2.31,1.92-1.9,2.42.12.15,1.01-.53.65.99-.43,1.82-1.11,2.23-2.57,1.26-.29-.42,1.93-1.46.44-2.11-1.25.55-1.51,3.56-2.22,3.85-1.57.65-3.01-.95-4.09-1.86-.21-.18-1.19-1.36-1.3-.51l-1.17.1-6.73-5.36-.18-1.14,3.32-.28-.77.68c1.21,1.53,1.38.26,1.89.21.26-.02,1.59.95,2.31.04.9-1.13-1.55-.43-1.34-1.12l2.52.19c.18-2.23-1.05-.74-2.56-.62.93-2.41,4.19-.02,4.78-2.71.07-1.15-1.5.17-2.1-.21-.74-.47-.01-.82-.12-1.47.76-.22.2.73.69.78.18.01-.1-1.48,2.72-1.04.51.08.12,1.19,1.6.24l-.9-.75c1.4-.07,1.01-1.64,1.32-2.22.2-.38.9-.41.95-.49.64-1.01-.82-.64-1.17-.86-.53-.34-1.46-1.43-1.99-1.79,1.61.35,3.32,1.5,4.76,2.33,2.65,1.54,5.05,3.23,7.57,4.94v.03Z"/><path class="q" d="M337.42,80.2l.18,2.07-1.27-.31c.36,1.26.4,1.89,1.49,2.78-.85-.04-1.62,1.24-1.1,1.77.85.87.62-1.13,1.16-.93-.09,1.15.8.8,1.74.68l-.76.89c2.63-.1,1.26,1.46,1.38,1.55.07.05.82-.15,1.25.11.1.06,1.38,1.84,1.44,1.96.1.23-1.52.11-.29,1.48l-1.21.52c2.8.24,1.79-1.74,1.93-1.83.85-.57,2.54.58,2.77.54.54-.09.96-2.1,1.34-2.48.24-.24.68-.1.72-.15.26.19.64.51.54.73-.83,1.91-4.49,8.7-5.68,10.11l-1.02.12c-.85.47-.88-.87-1.1-.74-1.21.76-1.6,1.35-3.46,1.14-.2.55,1.79.31.93,1.17-.09.09-2.25-.01-2.54-.41l1.21-.52c-2.04-.47-2.3-2.78-.17-1.87.29-1.13-.7-.67-.82-.83-.1-.13.38-.71.26-.79-.57-.39-1.04.26-.76.9-.69.24-.31-.6-.52-.75-.18-.12-3.71,1.53-.96-1.84-.54-.2-3.38-1.83-3.5-2-.17-.24,3.29-5.13.05-4.17l.27-1.69c1.98-2.44,4.3-4.95,6.48-7.23Z"/><path class="q" d="M155.29,115.1c1.61,2.47-.05,6.81.91,9.3.21.54,2.4.93,1.79,2.56,2.14-1.15,1.51.98,3.93.35,1.61-.43.7-1.46,2.38.35l.73-1.31-1.26-.1c1.19-2.25,1.9.06,2.24,1.68l.93.51c.23,3.17.35,6.34.35,9.52l-.77.77c-1.41,1.3-.19-1.53-1.41-1.76.57-.42,1.04-.09.74-1.09-3.04.09-1.73-2.22-1.88-2.34-1.34-1.15-.57,3.3-1.17,3.43l-1.39-1.54.32,1.22c-2.6.23-1.13-.85-1.04-2.41-1.71,3.4-1.9-1.52-4.1.77.06-.57-.32-1.69-.18-2.07.02-.06,1.18.54,1.21-.51-2.79.73-.3-3.73-2.09-4.83-.18-4.21-.34-8.28-.24-12.5h0Z"/><path class="aa" d="M264.46,314.32l2.79,8.11c-1.96-.81-4.65-1.05-6.78-1.09-.27-.24,1.8-6.5,2.13-6.88.45-.51,1.29-.13,1.86-.14Z"/><path class="z" d="M373.08,371.73c2.57.34,4.73,1.08,7.39,1.05,10.23-.11,21.23-2.44,31.54-2.74.52-.02-.18.42-.17.43-2.68-.17-5.6.87-8.07,1.09-2,.19-4.52-.02-6.64.15-7.3.61-17.52,2.83-24.06,0h0Z"/><path class="w" d="M416.46,146.68l4.23,2.28c-2.25-.21-4.02,1.39-5.4,2.95-1.57,1.77-1.8,3.07-2.52,4.79-.44,1.04-1.24,1.87-1.38,3.07-.57-.18-1.68-5.82-2.43-7.17-.96-1.76-3.51-3.71-5.1-4.91-.04-.28,4.09-2.2,4.79-2.89.22-.21,3.02-4.42,3.11-4.68.29-.84.07-1.66,0-2.5,1.38.35.78,2.05,1.12,3.01.57,1.64,2.31,4.88,3.57,6.04h0Z"/><path class="u" d="M340.14,237.28c-.43,5.27-4.56,11.05-9.11,13.67-.88.51-4.5,1.74-4.63,1.95-.34.57-.21,3.97-.46,5.3-.57,3.11-2.6,6.5-5.3,8.23-.92.59-4.1,1.63-4.35,2.11-.26.48-.05,1.45-.23,2.11-2.57,9.62-7.16,23.18-18.8,24.2-16.8,1.45-27.83-15.71-30.77-30.2-.24-1.15-.07-6.15-1.4-5.7-1.11.37-3.27,2.7-4.07-.12-1.33-4.68,4.18-7.58,8.2-7.48,4.02.1,10.12,5.66,14.41,7.56,7.89,3.48,21.22,5.82,29.73,4.47,5.65-.9,8.15-4.05,7.68-9.83-6.41.18-17.44-6.18-19.03-12.57-4.4-17.73,39.71-22.77,38.13-3.7h0Z"/><path class="r" d="M167.59,112.37c.43-.04.86-.07,1.28-.03.42.04.83.07,1.16.24,10.69,5.36,19.46,11.79,27.93,20.22,5.21,5.18,12.68,13.21,16.27,19.45,2.35,4.08-2.79,2.24-4.79,1.26l-4.24-1.18c-20.47-5.38-18.99,8.6-3.56,15.52l.66,1.12c-6.36,6.93-11.18,14.81-13.86,23.9l-1.26,1.26c-12.96-14.37-18.84-36.35-20.67-55.38-.32-3.26.07-7.97-.51-10.8.33-4.63.41-9.36.98-13.98.07-.6.51-1.12.6-1.6h0Z"/><path class="k" d="M368.8,104.62c3.43,17.93,3.77,32.76-2.79,49.9l-1.52-.65c-4.57-5.15-9.71-9.71-15.41-13.69v-1.03c13.07-17.67,1.33-20.13-12.31-9.41-.42-.03-1.21-.1-1.34-.26-1.08-1.4,5.71-17.79,7.1-20.88,4.29-9.58,9.82-20.22,17.35-27.41l1.07.32c.07.95,2.15,4.33,2.69,5.71,2.22,5.65,4.02,11.42,5.15,17.4h0Z"/><path class="ad" d="M185.07,116.29c2.48,1.7,5.72,4.42,8.07,6.4,6.71,5.61,25.25,24.62,26.95,32.62,1.77,8.29-6.95,3.16-10.59,2.07-4.24-1.27-9.35-2.59-13.79-2.39-4.93.23,1.82,5.21,3.3,6.16,2.68,1.7,8.88,3.33,8.34,7.06-.32,2.2-6.86,8.81-8.61,11.6-1.75,2.78-6.69,15.24-8.46,15.97-1.96.82-2.34-.83-3.08-1.66,2.79-9.38,7.26-18.52,14.53-25.24-4.52-3.03-12.07-6.04-12.52-12.28-.07-.99.12-3,.68-3.83,3.37-5.01,19.13-.93,23.77,1.51l.56-.66c-11.91-17.04-27.39-32.74-46.61-41.27.27-1.54-.91-2.42,2.07-3.08,2.32-.51,5.78,1.35,7.88,2.47,2.22,1.18,5.49,3.13,7.53,4.53v.02Z"/><path class="v" d="M348.2,88.87c2.37-2.83,7.05-10.56,10.99-10.53,2.88.02,1.67,2.09,1.76,3.17-2.16,1.22-3.55,3.29-4.97,5.24-9.32,12.74-15.66,27.55-20.15,42.62l6.19-4.02c8.94-5.38,17.59-3.8,11.66,8.25-.49.98-4.1,5.9-3.99,6.25,5.86,4.16,12.1,8.79,16.32,14.67-.02.07.65.46-.07,1.26-.57.65-1.38,1.14-2.25.84-1.18-.41-7.32-6.28-9.02-7.59-2.8-2.14-7.39-4.63-9.75-6.69-3.88-3.39.81-5.31,2.65-7.71.8-1.04,4.9-7.59,3.87-8.47-2.93.68-6.24,2.38-8.85,3.9-1.74,1.01-8.17,6.13-8.96,6.33-4.45,1.12-2.6-6.02-2.17-8,2.13-9.8,6.62-19.42,10.6-28.55l6.15-10.96h0Z"/><path class="ad" d="M271.03,227.66c-3.54,4.51-9.63,2.65-12.42-1.61-3.58-5.46-3.82-13.31-.24-18.82,2.38-3.64,5.17-4.68,9.14-2.25,6.07,3.72,7.83,17.18,3.52,22.67h0Z"/><path class="u" d="M337.67,195.92c5.14,4.55,5.6,18.39.16,22.71-8.3,6.61-12.95-6.77-13-13.22-.06-6.89,5.57-15.93,12.84-9.5Z"/><path class="ac" d="M253.61,170.58c3.04-.71,12.05-.51,11.66,4-.26,2.97-2.86,1.19-4.24,1.12-4.32-.21-9.89,2.22-12.88,5.27-1.32,1.35-2.92,4.96-3.93,5.54-2.91,1.64-3.02-2.17-2.77-4.25.5-4.21,8.15-10.73,12.17-11.68h0Z"/><path class="j" d="M325.09,161.08c5.15-1.15,10.35-.88,14.15,3.06,1.43,1.49,4.14,5.59,2.55,7.5-1.6,1.91-4.08-2.07-5.54-3.04-2.56-1.71-6.23-2.16-9.24-1.67-2.09.34-9.15,4.31-8.87-.12.17-2.64,4.6-5.21,6.94-5.73h0Z"/><path class="q" d="M204.36,117.14c-.02.96-2.69,2.22-3.18,1.93.42-2.09.65-.71,1.69-1.04.55-.18.71-1.05,1.49-.89Z"/><path class="q" d="M334.91,94.61c-.2.23-2.2-.74-2.16-.85.45-1.37,2.62.32,2.16.85Z"/><path class="c" d="M275.13,273.35c2.73-.27,5.71-1.48,8.42-1.56,6.92-.22,15.77,6.25,18.22,12.62,1,2.59,1.15,3.55-1.69,4.71-10.81,4.39-21.44-6.55-24.96-15.77h0Z"/></g></svg>